<svg width="25" height="25" viewBox="0 0 25 25" fill="none" xmlns="http://www.w3.org/2000/svg">
<path d="M17.3125 3.11447C17.1916 2.99321 17.0479 2.89701 16.8897 2.83136C16.7315 2.76572 16.5619 2.73193 16.3906 2.73193C16.2194 2.73193 16.0498 2.76572 15.8916 2.83136C15.7334 2.89701 15.5897 2.99321 15.4688 3.11447L6.8125 11.7707C6.71594 11.8671 6.63932 11.9816 6.58705 12.1076C6.53478 12.2336 6.50787 12.3687 6.50787 12.5051C6.50787 12.6415 6.53478 12.7766 6.58705 12.9026C6.63932 13.0286 6.71594 13.1431 6.8125 13.2395L15.4688 21.8957C15.9792 22.4061 16.8021 22.4061 17.3125 21.8957C17.8229 21.3853 17.8229 20.5624 17.3125 20.052L9.77084 12.4999L17.3229 4.9478C17.8229 4.4478 17.8229 3.61447 17.3125 3.11447Z" fill="black" stroke="black" stroke-width="1.5"/>
</svg>
