<svg width="14" height="23" viewBox="0 0 14 23" fill="none" xmlns="http://www.w3.org/2000/svg">
<path d="M12.3124 2.11447C12.1915 1.99321 12.0478 1.89701 11.8896 1.83136C11.7314 1.76572 11.5618 1.73193 11.3906 1.73193C11.2193 1.73193 11.0497 1.76572 10.8915 1.83136C10.7333 1.89701 10.5896 1.99321 10.4687 2.11447L1.81244 10.7707C1.71588 10.8671 1.63926 10.9816 1.58699 11.1076C1.53472 11.2336 1.50781 11.3687 1.50781 11.5051C1.50781 11.6415 1.53472 11.7766 1.58699 11.9026C1.63926 12.0286 1.71588 12.1431 1.81244 12.2395L10.4687 20.8957C10.9791 21.4061 11.802 21.4061 12.3124 20.8957C12.8229 20.3853 12.8229 19.5624 12.3124 19.052L4.77078 11.4999L12.3229 3.9478C12.8229 3.4478 12.8229 2.61447 12.3124 2.11447Z" fill="white" stroke="white" stroke-width="1.5"/>
</svg>
