<svg width="40" height="40" viewBox="0 0 40 40" fill="none" xmlns="http://www.w3.org/2000/svg">
<rect width="40" height="40" rx="4" fill="#318AD1"/>
<mask id="mask0_353_20779" style="mask-type:alpha" maskUnits="userSpaceOnUse" x="7" y="7" width="26" height="26">
<rect x="7" y="7" width="26" height="26" fill="#D9D9D9"/>
</mask>
<g mask="url(#mask0_353_20779)">
<path d="M13.4993 25.4166C12.901 25.4166 12.416 24.9316 12.416 24.3333V18.9166C12.416 18.3183 12.901 17.8333 13.4993 17.8333C14.0977 17.8333 14.5827 18.3183 14.5827 18.9166V24.3333C14.5827 24.9316 14.0977 25.4166 13.4993 25.4166ZM19.9993 25.4166C19.401 25.4166 18.916 24.9316 18.916 24.3333V18.9166C18.916 18.3183 19.401 17.8333 19.9993 17.8333C20.5977 17.8333 21.0827 18.3183 21.0827 18.9166V24.3333C21.0827 24.9316 20.5977 25.4166 19.9993 25.4166ZM10.2493 29.7499C9.65104 29.7499 9.16602 29.2649 9.16602 28.6666C9.16602 28.0683 9.65104 27.5833 10.2493 27.5833H29.7493C30.3477 27.5833 30.8327 28.0683 30.8327 28.6666C30.8327 29.2649 30.3477 29.7499 29.7493 29.7499H10.2493ZM26.4993 25.4166C25.901 25.4166 25.416 24.9316 25.416 24.3333V18.9166C25.416 18.3183 25.901 17.8333 26.4993 17.8333C27.0977 17.8333 27.5827 18.3183 27.5827 18.9166V24.3333C27.5827 24.9316 27.0977 25.4166 26.4993 25.4166ZM10.5051 15.6666C9.76554 15.6666 9.16602 15.0671 9.16602 14.3275C9.16602 13.8203 9.45258 13.3566 9.90624 13.1298L19.9993 8.08325L30.0925 13.1298C30.5461 13.3566 30.8327 13.8203 30.8327 14.3275C30.8327 15.0671 30.2332 15.6666 29.4936 15.6666H10.5051ZM13.9868 13.4999H26.0118L19.9993 10.5208L13.9868 13.4999Z" fill="white"/>
</g>
</svg>
