<svg width="31" height="30" viewBox="0 0 31 30" fill="none" xmlns="http://www.w3.org/2000/svg">
<path d="M7.92857 1V3.57143H2.78571C2.44472 3.57143 2.1177 3.70689 1.87658 3.94801C1.63546 4.18912 1.5 4.51615 1.5 4.85714V25.4286C1.5 25.7696 1.63546 26.0966 1.87658 26.3377C2.1177 26.5788 2.44472 26.7143 2.78571 26.7143H12.7564C11.1739 24.7378 10.3761 22.247 10.5156 19.7189C10.6551 17.1908 11.7222 14.803 13.5126 13.0126C15.303 11.2222 17.6908 10.1551 20.2189 10.0156C22.747 9.87609 25.2378 10.6739 27.2143 12.2564V4.85714C27.2143 4.51615 27.0788 4.18912 26.8377 3.94801C26.5966 3.70689 26.2696 3.57143 25.9286 3.57143H20.7857V1H18.2143V3.57143H10.5V1H7.92857ZM28.5 20.2857C28.5 21.2988 28.3005 22.3019 27.9128 23.2378C27.5251 24.1738 26.9569 25.0242 26.2405 25.7405C25.5242 26.4569 24.6738 27.0251 23.7378 27.4128C22.8019 27.8005 21.7988 28 20.7857 28C19.7727 28 18.7695 27.8005 17.8336 27.4128C16.8976 27.0251 16.0472 26.4569 15.3309 25.7405C14.6146 25.0242 14.0463 24.1738 13.6586 23.2378C13.271 22.3019 13.0714 21.2988 13.0714 20.2857C13.0714 18.2398 13.8842 16.2776 15.3309 14.8309C16.7776 13.3842 18.7398 12.5714 20.7857 12.5714C22.8317 12.5714 24.7938 13.3842 26.2405 14.8309C27.6872 16.2776 28.5 18.2398 28.5 20.2857ZM19.5 15.1429V20.818L22.4481 23.7661L24.2661 21.9481L22.0714 19.7534V15.1429H19.5Z" fill="#B9C2C9"/>
</svg>
