<svg width="50" height="50" viewBox="0 0 50 50" fill="none" xmlns="http://www.w3.org/2000/svg">
<rect width="50" height="50" rx="8" fill="#417CCA"/>
<path d="M24.9998 33C26.8443 33 28.4167 32.3502 29.7172 31.0507C31.0167 29.7502 31.6665 28.1778 31.6665 26.3333C31.6665 24.4889 31.0167 22.9164 29.7172 21.616C28.4167 20.3164 26.8443 19.6667 24.9998 19.6667C23.1554 19.6667 21.5834 20.3164 20.2838 21.616C18.9834 22.9164 18.3332 24.4889 18.3332 26.3333C18.3332 28.1778 18.9834 29.7502 20.2838 31.0507C21.5834 32.3502 23.1554 33 24.9998 33ZM24.9998 30.3333C23.8887 30.3333 22.9443 29.9444 22.1665 29.1667C21.3887 28.3889 20.9998 27.4444 20.9998 26.3333C20.9998 25.2222 21.3887 24.2778 22.1665 23.5C22.9443 22.7222 23.8887 22.3333 24.9998 22.3333C26.1109 22.3333 27.0554 22.7222 27.8332 23.5C28.6109 24.2778 28.9998 25.2222 28.9998 26.3333C28.9998 27.4444 28.6109 28.3889 27.8332 29.1667C27.0554 29.9444 26.1109 30.3333 24.9998 30.3333ZM32.9998 22.3333C33.3776 22.3333 33.6941 22.2053 33.9492 21.9493C34.2052 21.6942 34.3332 21.3778 34.3332 21C34.3332 20.6222 34.2052 20.3053 33.9492 20.0493C33.6941 19.7942 33.3776 19.6667 32.9998 19.6667C32.6221 19.6667 32.3056 19.7942 32.0505 20.0493C31.7945 20.3053 31.6665 20.6222 31.6665 21C31.6665 21.3778 31.7945 21.6942 32.0505 21.9493C32.3056 22.2053 32.6221 22.3333 32.9998 22.3333ZM14.3332 37C13.5998 37 12.9723 36.7391 12.4505 36.2173C11.9278 35.6947 11.6665 35.0667 11.6665 34.3333V18.3333C11.6665 17.6 11.9278 16.9724 12.4505 16.4507C12.9723 15.928 13.5998 15.6667 14.3332 15.6667H18.5332L20.5998 13.4333C20.7332 13.3 20.8829 13.1942 21.0492 13.116C21.2163 13.0387 21.3887 13 21.5665 13H28.4332C28.6109 13 28.7834 13.0387 28.9505 13.116C29.1167 13.1942 29.2665 13.3 29.3998 13.4333L31.4665 15.6667H35.6665C36.3998 15.6667 37.0278 15.928 37.5505 16.4507C38.0723 16.9724 38.3332 17.6 38.3332 18.3333V34.3333C38.3332 35.0667 38.0723 35.6947 37.5505 36.2173C37.0278 36.7391 36.3998 37 35.6665 37H14.3332Z" fill="white"/>
</svg>
