<svg width="50" height="50" viewBox="0 0 50 50" fill="none" xmlns="http://www.w3.org/2000/svg">
<rect width="50" height="50" rx="8" fill="#417CCA"/>
<path d="M24.9998 31.6667C25.3776 31.6667 25.6945 31.5387 25.9505 31.2827C26.2065 31.0267 26.3341 30.7103 26.3332 30.3334C26.3323 29.9565 26.2043 29.6401 25.9492 29.3841C25.6941 29.1281 25.3776 29.0001 24.9998 29.0001C24.6221 29.0001 24.3056 29.1281 24.0505 29.3841C23.7954 29.6401 23.6674 29.9565 23.6665 30.3334C23.6656 30.7103 23.7936 31.0272 24.0505 31.2841C24.3074 31.541 24.6238 31.6685 24.9998 31.6667ZM23.6665 26.3334H26.3332V18.3334H23.6665V26.3334ZM24.9998 38.3334C23.1554 38.3334 21.4221 37.9832 19.7998 37.2827C18.1776 36.5823 16.7665 35.6325 15.5665 34.4334C14.3665 33.2343 13.4167 31.8232 12.7172 30.2001C12.0176 28.577 11.6674 26.8436 11.6665 25.0001C11.6656 23.1565 12.0158 21.4232 12.7172 19.8001C13.4185 18.177 14.3683 16.7659 15.5665 15.5667C16.7647 14.3676 18.1758 13.4179 19.7998 12.7174C21.4238 12.017 23.1572 11.6667 24.9998 11.6667C26.8425 11.6667 28.5758 12.017 30.1998 12.7174C31.8238 13.4179 33.235 14.3676 34.4332 15.5667C35.6314 16.7659 36.5816 18.177 37.2838 19.8001C37.9861 21.4232 38.3358 23.1565 38.3332 25.0001C38.3305 26.8436 37.9803 28.577 37.2825 30.2001C36.5847 31.8232 35.635 33.2343 34.4332 34.4334C33.2314 35.6325 31.8203 36.5827 30.1998 37.2841C28.5794 37.9854 26.8461 38.3352 24.9998 38.3334Z" fill="white"/>
</svg>
