<svg width="50" height="50" viewBox="0 0 50 50" fill="none" xmlns="http://www.w3.org/2000/svg">
<rect width="50" height="50" rx="8" fill="#039300"/>
<mask id="mask0_353_22035" style="mask-type:alpha" maskUnits="userSpaceOnUse" x="9" y="8" width="32" height="34">
<rect x="9" y="8" width="32" height="34" fill="#D9D9D9"/>
</mask>
<g mask="url(#mask0_353_22035)">
<path d="M15.666 34.9167V22.0834C15.666 21.347 16.263 20.7501 16.9993 20.7501V20.7501C17.7357 20.7501 18.3327 21.347 18.3327 22.0834V30.1001L32.8095 14.7185C33.3462 14.1482 34.2525 14.1482 34.7892 14.7185V14.7185C35.2818 15.2419 35.2818 16.0583 34.7892 16.5817L20.1993 32.0834H27.5827C28.3651 32.0834 28.9993 32.7177 28.9993 33.5001V33.5001C28.9993 34.2825 28.3651 34.9167 27.5827 34.9167H15.666Z" fill="white"/>
</g>
</svg>
