<svg width="16" height="17" viewBox="0 0 16 17" fill="none" xmlns="http://www.w3.org/2000/svg">
<mask id="mask0_353_20764" style="mask-type:alpha" maskUnits="userSpaceOnUse" x="0" y="0" width="16" height="17">
<rect x="16" y="16.5" width="16" height="16" transform="rotate(180 16 16.5)" fill="#D9D9D9"/>
</mask>
<g mask="url(#mask0_353_20764)">
<path d="M12.666 3.83325L12.666 9.83325C12.666 10.2014 12.3675 10.4999 11.9993 10.4999C11.6312 10.4999 11.3327 10.2014 11.3327 9.83325L11.3327 6.09992L4.06602 13.3666C3.80828 13.6243 3.39041 13.6243 3.13268 13.3666C2.87495 13.1089 2.87495 12.691 3.13268 12.4333L10.3993 5.16659L6.66601 5.16659C6.29783 5.16659 5.99935 4.86811 5.99935 4.49992C5.99935 4.13173 6.29782 3.83325 6.66601 3.83325L12.666 3.83325Z" fill="#DC0004"/>
</g>
</svg>
