<svg width="24" height="24" viewBox="0 0 24 24" fill="none" xmlns="http://www.w3.org/2000/svg">
<path d="M13.2 0C13.611 0 14.0055 0.1695 14.289 0.468L19.089 5.61C19.353 5.889 19.5 6.2595 19.5 6.6435V19.5C19.5 19.8978 19.342 20.2794 19.0607 20.5607C18.7794 20.842 18.3978 21 18 21H3C2.60218 21 2.22064 20.842 1.93934 20.5607C1.65804 20.2794 1.5 19.8978 1.5 19.5V1.5C1.5 1.10218 1.65804 0.720644 1.93934 0.43934C2.22064 0.158035 2.60218 0 3 0L13.2 0ZM18 7.5H12.75C12.5511 7.5 12.3603 7.42098 12.2197 7.28033C12.079 7.13968 12 6.94891 12 6.75V1.5H3V19.5H18V7.5ZM6.75 16.5C6.55109 16.5 6.36032 16.421 6.21967 16.2803C6.07902 16.1397 6 15.9489 6 15.75C6 15.5511 6.07902 15.3603 6.21967 15.2197C6.36032 15.079 6.55109 15 6.75 15H14.25C14.4489 15 14.6397 15.079 14.7803 15.2197C14.921 15.3603 15 15.5511 15 15.75C15 15.9489 14.921 16.1397 14.7803 16.2803C14.6397 16.421 14.4489 16.5 14.25 16.5H6.75ZM6.75 12C6.55109 12 6.36032 11.921 6.21967 11.7803C6.07902 11.6397 6 11.4489 6 11.25C6 11.0511 6.07902 10.8603 6.21967 10.7197C6.36032 10.579 6.55109 10.5 6.75 10.5H14.25C14.4489 10.5 14.6397 10.579 14.7803 10.7197C14.921 10.8603 15 11.0511 15 11.25C15 11.4489 14.921 11.6397 14.7803 11.7803C14.6397 11.921 14.4489 12 14.25 12H6.75ZM8.25 24C8.05109 24 7.86032 23.921 7.71967 23.7803C7.57902 23.6397 7.5 23.4489 7.5 23.25C7.5 23.0511 7.57902 22.8603 7.71967 22.7197C7.86032 22.579 8.05109 22.5 8.25 22.5H21V9.75C21 9.55109 21.079 9.36032 21.2197 9.21967C21.3603 9.07902 21.5511 9 21.75 9C21.9489 9 22.1397 9.07902 22.2803 9.21967C22.421 9.36032 22.5 9.55109 22.5 9.75V22.5C22.5 22.8978 22.342 23.2794 22.0607 23.5607C21.7794 23.842 21.3978 24 21 24H8.25Z" fill="black"/>
</svg>
