<svg width="18" height="17" viewBox="0 0 18 17" fill="none" xmlns="http://www.w3.org/2000/svg">
<path d="M17.9375 0.0625V16.9375H0.0625V0.0625H17.9375Z" stroke="#6A707C" stroke-width="0.125"/>
<path d="M3.375 2.65625L14.625 14.3438" stroke="#6A707C" stroke-width="1.22375" stroke-linecap="round" stroke-linejoin="round"/>
<path d="M10.8911 10.4703C10.375 10.9169 9.69967 11.1634 8.9997 11.1609C8.43204 11.1609 7.87769 10.9986 7.40951 10.6954C6.94134 10.3922 6.58126 9.96235 6.37662 9.46228C6.17198 8.96221 6.13235 8.41536 6.26294 7.89361C6.39353 7.37187 6.68823 6.89966 7.10829 6.53906" stroke="#6A707C" stroke-width="1.22375" stroke-linecap="round" stroke-linejoin="round"/>
<path d="M5.20264 4.55078C2.33389 5.91875 1.12451 8.49531 1.12451 8.49531C1.12451 8.49531 3.37451 13.2766 8.99951 13.2766C10.3176 13.2867 11.6192 12.9999 12.7964 12.4398" stroke="#6A707C" stroke-width="1.22375" stroke-linecap="round" stroke-linejoin="round"/>
<path d="M14.6671 11.2293C16.1999 9.93439 16.8749 8.50002 16.8749 8.50002C16.8749 8.50002 14.6249 3.71877 8.9999 3.71877C8.51226 3.71786 8.02539 3.75562 7.54443 3.83166" stroke="#6A707C" stroke-width="1.22375" stroke-linecap="round" stroke-linejoin="round"/>
<path d="M9.52783 5.89062C10.1259 5.99766 10.671 6.28552 11.0806 6.71077C11.4903 7.13603 11.7424 7.67559 11.7989 8.24805" stroke="#6A707C" stroke-width="1.22375" stroke-linecap="round" stroke-linejoin="round"/>
</svg>
