<svg width="20" height="20" viewBox="0 0 20 20" fill="none" xmlns="http://www.w3.org/2000/svg">
<path d="M3.55801 11.6578C4.23437 8.26865 7.06181 5.86054 10.2423 5.86054C13.4218 5.86054 16.2493 8.26865 16.9266 11.6578C16.9535 11.7923 17.0304 11.9101 17.1405 11.9854C17.2506 12.0607 17.3849 12.0873 17.5137 12.0593C17.6426 12.0313 17.7556 11.9511 17.8277 11.8362C17.8999 11.7213 17.9254 11.5812 17.8985 11.4467C17.1279 7.59185 13.9048 4.82568 10.2423 4.82568C6.57983 4.82568 3.35668 7.59185 2.5861 11.4467C2.55927 11.5812 2.58474 11.7213 2.65691 11.8362C2.72907 11.9511 2.84201 12.0313 2.9709 12.0593C3.09978 12.0873 3.23404 12.0607 3.34414 11.9854C3.45425 11.9101 3.53118 11.7923 3.55801 11.6578ZM10.2324 7.93025C11.153 7.93025 12.0359 8.31185 12.6868 8.99111C13.3378 9.67037 13.7035 10.5916 13.7035 11.5522C13.7035 12.5129 13.3378 13.4341 12.6868 14.1134C12.0359 14.7926 11.153 15.1742 10.2324 15.1742C9.31181 15.1742 8.42893 14.7926 7.77797 14.1134C7.12702 13.4341 6.76132 12.5129 6.76132 11.5522C6.76132 10.5916 7.12702 9.67037 7.77797 8.99111C8.42893 8.31185 9.31181 7.93025 10.2324 7.93025Z" fill="#6A707C"/>
</svg>
