<svg width="56" height="56" viewBox="0 0 56 56" fill="none" xmlns="http://www.w3.org/2000/svg">
<rect x="1" y="1" width="54" height="54" rx="27" stroke="white" stroke-width="2"/>
<circle opacity="0.55" cx="28" cy="28" r="26" fill="black"/>
<path fill-rule="evenodd" clip-rule="evenodd" d="M37.0308 35.9376C34.8244 38.4288 31.5963 40 28 40C21.6877 40 16.5099 35.1595 16 29H18.0151C18.5186 34.0533 22.7968 38 27.9999 38C30.8069 38 33.3447 36.8514 35.1659 35H33.0171V33H36.6918H37.0308H38.9494H39.0377V35V39H37.0308V35.9376ZM40 27C39.4901 20.8405 34.3123 16 28 16C24.4036 16 21.1754 17.5713 18.969 20.0626V17H16.9621L16.9621 21V23H18.969H22.9827V21H20.834C22.6551 19.1486 25.1929 18 27.9999 18C33.2031 18 37.4813 21.9467 37.9847 27H40Z" fill="white"/>
</svg>
