<svg width="65" height="55" viewBox="0 0 65 55" fill="none" xmlns="http://www.w3.org/2000/svg">
<rect width="65" height="55" rx="8" fill="#417CCA"/>
<path d="M34.4705 15.0748C34.0024 14.7023 33.4263 14.5 32.8332 14.5C32.2401 14.5 31.664 14.7023 31.1959 15.0748L20.0175 23.9692C19.0148 24.77 19.5668 26.4138 20.8374 26.4138H22.1668V37.3272C22.1668 38.0508 22.4477 38.7448 22.9478 39.2564C23.4479 39.7681 24.1261 40.0556 24.8334 40.0556H30.1666V31.8705C30.1666 31.1469 30.4475 30.453 30.9476 29.9413C31.4477 29.4296 32.126 29.1422 32.8332 29.1422C33.5404 29.1422 34.2187 29.4296 34.7188 29.9413C35.2189 30.453 35.4998 31.1469 35.4998 31.8705V40.0556H40.833C41.5403 40.0556 42.2185 39.7681 42.7186 39.2564C43.2187 38.7448 43.4997 38.0508 43.4997 37.3272V26.4138H44.829C46.0983 26.4138 46.6529 24.77 45.6489 23.9706L34.4705 15.0748Z" fill="white"/>
</svg>
