<svg width="30" height="30" viewBox="0 0 30 30" fill="none" xmlns="http://www.w3.org/2000/svg">
<path d="M16.9705 2.57485C16.5024 2.20228 15.9263 2 15.3332 2C14.7401 2 14.164 2.20228 13.6959 2.57485L2.51746 11.4692C1.51481 12.27 2.0668 13.9138 3.33744 13.9138H4.66675V24.8272C4.66675 25.5508 4.9477 26.2448 5.44778 26.7564C5.94787 27.2681 6.62613 27.5556 7.33336 27.5556H12.6666V19.3705C12.6666 18.6469 12.9475 17.953 13.4476 17.4413C13.9477 16.9296 14.626 16.6422 15.3332 16.6422C16.0404 16.6422 16.7187 16.9296 17.2188 17.4413C17.7189 17.953 17.9998 18.6469 17.9998 19.3705V27.5556H23.333C24.0403 27.5556 24.7185 27.2681 25.2186 26.7564C25.7187 26.2448 25.9997 25.5508 25.9997 24.8272V13.9138H27.329C28.5983 13.9138 29.1529 12.27 28.1489 11.4706L16.9705 2.57485Z" fill="#318AD1"/>
</svg>
