<svg width="31" height="30" viewBox="0 0 31 30" fill="none" xmlns="http://www.w3.org/2000/svg">
<path d="M17.4705 2.57485C17.0024 2.20228 16.4263 2 15.8332 2C15.2401 2 14.664 2.20228 14.1959 2.57485L3.01746 11.4692C2.01481 12.27 2.5668 13.9138 3.83744 13.9138H5.16675V24.8272C5.16675 25.5508 5.4477 26.2448 5.94778 26.7564C6.44787 27.2681 7.12613 27.5556 7.83336 27.5556H13.1666V19.3705C13.1666 18.6469 13.4475 17.953 13.9476 17.4413C14.4477 16.9296 15.126 16.6422 15.8332 16.6422C16.5404 16.6422 17.2187 16.9296 17.7188 17.4413C18.2189 17.953 18.4998 18.6469 18.4998 19.3705V27.5556H23.833C24.5403 27.5556 25.2185 27.2681 25.7186 26.7564C26.2187 26.2448 26.4997 25.5508 26.4997 24.8272V13.9138H27.829C29.0983 13.9138 29.6529 12.27 28.6489 11.4706L17.4705 2.57485Z" fill="#B9C2C9"/>
</svg>
