<svg width="50" height="50" viewBox="0 0 50 50" fill="none" xmlns="http://www.w3.org/2000/svg">
<rect width="50" height="50" rx="8" fill="#417CCA"/>
<path d="M18.3334 27.0001C18.889 27.0001 19.3614 26.8059 19.7507 26.4174C20.1401 26.029 20.3343 25.5565 20.3334 25.0001C20.3325 24.4436 20.1383 23.9716 19.7507 23.5841C19.3632 23.1965 18.8908 23.0019 18.3334 23.0001C17.7761 22.9983 17.3041 23.193 16.9174 23.5841C16.5308 23.9752 16.3361 24.4472 16.3334 25.0001C16.3307 25.553 16.5254 26.0254 16.9174 26.4174C17.3094 26.8094 17.7814 27.0036 18.3334 27.0001ZM25.0001 27.0001C25.5556 27.0001 26.0281 26.8059 26.4174 26.4174C26.8067 26.029 27.001 25.5565 27.0001 25.0001C26.9992 24.4436 26.805 23.9716 26.4174 23.5841C26.0299 23.1965 25.5574 23.0019 25.0001 23.0001C24.4427 22.9983 23.9707 23.193 23.5841 23.5841C23.1974 23.9752 23.0027 24.4472 23.0001 25.0001C22.9974 25.553 23.1921 26.0254 23.5841 26.4174C23.9761 26.8094 24.4481 27.0036 25.0001 27.0001ZM31.6667 27.0001C32.2223 27.0001 32.6948 26.8059 33.0841 26.4174C33.4734 26.029 33.6676 25.5565 33.6668 25.0001C33.6659 24.4436 33.4716 23.9716 33.0841 23.5841C32.6965 23.1965 32.2241 23.0019 31.6667 23.0001C31.1094 22.9983 30.6374 23.193 30.2507 23.5841C29.8641 23.9752 29.6694 24.4472 29.6667 25.0001C29.6641 25.553 29.8587 26.0254 30.2507 26.4174C30.6427 26.8094 31.1147 27.0036 31.6667 27.0001ZM25.0001 38.3334C23.1556 38.3334 21.4223 37.9832 19.8001 37.2827C18.1779 36.5823 16.7667 35.6325 15.5668 34.4334C14.3668 33.2343 13.417 31.8232 12.7174 30.2001C12.0179 28.577 11.6676 26.8436 11.6667 25.0001C11.6659 23.1565 12.0161 21.4232 12.7174 19.8001C13.4187 18.177 14.3685 16.7659 15.5668 15.5667C16.765 14.3676 18.1761 13.4179 19.8001 12.7174C21.4241 12.017 23.1574 11.6667 25.0001 11.6667C26.8427 11.6667 28.5761 12.017 30.2001 12.7174C31.8241 13.4179 33.2352 14.3676 34.4334 15.5667C35.6316 16.7659 36.5819 18.177 37.2841 19.8001C37.9863 21.4232 38.3361 23.1565 38.3334 25.0001C38.3308 26.8436 37.9805 28.577 37.2828 30.2001C36.585 31.8232 35.6352 33.2343 34.4334 34.4334C33.2316 35.6325 31.8205 36.5827 30.2001 37.2841C28.5796 37.9854 26.8463 38.3352 25.0001 38.3334Z" fill="white"/>
</svg>
