<svg width="50" height="50" viewBox="0 0 50 50" fill="none" xmlns="http://www.w3.org/2000/svg">
<rect width="50" height="50" rx="8" fill="#318AD1"/>
<g clip-path="url(#clip0_353_20038)">
<mask id="mask0_353_20038" style="mask-type:luminance" maskUnits="userSpaceOnUse" x="9" y="9" width="32" height="32">
<path d="M9 9H41V41H9V9Z" fill="white"/>
<path fill-rule="evenodd" clip-rule="evenodd" d="M31.187 21.5931C31.4377 21.3843 31.7611 21.2836 32.0861 21.3132C32.411 21.3427 32.7109 21.5001 32.9199 21.7507L35.4836 24.8276C35.6833 25.0793 35.7767 25.3991 35.7437 25.7187C35.7108 26.0384 35.5542 26.3324 35.3074 26.5381C35.0605 26.7438 34.743 26.8448 34.4227 26.8196C34.1024 26.7943 33.8047 26.6448 33.5931 26.403L31.0282 23.3261C30.8194 23.0753 30.7187 22.752 30.7482 22.427C30.7778 22.102 30.9351 21.8021 31.1857 21.5931" fill="black"/>
<path fill-rule="evenodd" clip-rule="evenodd" d="M31.1874 29.6377C30.9367 29.4289 30.7791 29.129 30.7493 28.8041C30.7195 28.4791 30.82 28.1556 31.0287 27.9048L33.5936 24.8278C33.6956 24.6993 33.8223 24.5924 33.9662 24.5135C34.1101 24.4347 34.2684 24.3854 34.4316 24.3685C34.5949 24.3517 34.7598 24.3677 34.9168 24.4156C35.0738 24.4635 35.2196 24.5423 35.3457 24.6473C35.4717 24.7524 35.5755 24.8816 35.6509 25.0274C35.7263 25.1731 35.7718 25.3325 35.7847 25.4961C35.7976 25.6597 35.7776 25.8243 35.726 25.98C35.6744 26.1358 35.5921 26.2797 35.4841 26.4032L32.9204 29.4801C32.7114 29.7307 32.4115 29.8881 32.0865 29.9177C31.7616 29.9472 31.4382 29.8465 31.1874 29.6377Z" fill="black"/>
<path fill-rule="evenodd" clip-rule="evenodd" d="M34.2309 25.6154C34.2309 25.9419 34.1013 26.2549 33.8704 26.4857C33.6396 26.7165 33.3266 26.8462 33.0002 26.8462H25.0002C24.6737 26.8462 24.3607 26.7165 24.1299 26.4857C23.8991 26.2549 23.7694 25.9419 23.7694 25.6154C23.7694 25.289 23.8991 24.976 24.1299 24.7452C24.3607 24.5143 24.6737 24.3847 25.0002 24.3847H33.0002C33.3266 24.3847 33.6396 24.5143 33.8704 24.7452C34.1013 24.976 34.2309 25.289 34.2309 25.6154ZM16.3848 17.0001C16.3848 16.6736 16.5144 16.3606 16.7452 16.1298C16.9761 15.899 17.2891 15.7693 17.6155 15.7693H28.6925C29.0189 15.7693 29.3319 15.899 29.5627 16.1298C29.7936 16.3606 29.9232 16.6736 29.9232 17.0001C29.9232 17.3265 29.7936 17.6395 29.5627 17.8703C29.3319 18.1012 29.0189 18.2308 28.6925 18.2308H17.6155C17.2891 18.2308 16.9761 18.1012 16.7452 17.8703C16.5144 17.6395 16.3848 17.3265 16.3848 17.0001ZM16.3848 34.2308C16.3848 33.9044 16.5144 33.5914 16.7452 33.3605C16.9761 33.1297 17.2891 33.0001 17.6155 33.0001H28.6925C29.0189 33.0001 29.3319 33.1297 29.5627 33.3605C29.7936 33.5914 29.9232 33.9044 29.9232 34.2308C29.9232 34.5572 29.7936 34.8703 29.5627 35.1011C29.3319 35.3319 29.0189 35.4616 28.6925 35.4616H17.6155C17.2891 35.4616 16.9761 35.3319 16.7452 35.1011C16.5144 34.8703 16.3848 34.5572 16.3848 34.2308Z" fill="black"/>
<path fill-rule="evenodd" clip-rule="evenodd" d="M28.6925 15.7693C29.0189 15.7693 29.3319 15.899 29.5627 16.1298C29.7936 16.3606 29.9232 16.6736 29.9232 17.0001V21.9231C29.9232 22.2496 29.7936 22.5626 29.5627 22.7934C29.3319 23.0242 29.0189 23.1539 28.6925 23.1539C28.366 23.1539 28.053 23.0242 27.8222 22.7934C27.5914 22.5626 27.4617 22.2496 27.4617 21.9231V17.0001C27.4617 16.6736 27.5914 16.3606 27.8222 16.1298C28.053 15.899 28.366 15.7693 28.6925 15.7693ZM28.6925 28.077C29.0189 28.077 29.3319 28.2066 29.5627 28.4375C29.7936 28.6683 29.9232 28.9813 29.9232 29.3077V34.2308C29.9232 34.5572 29.7936 34.8703 29.5627 35.1011C29.3319 35.3319 29.0189 35.4616 28.6925 35.4616C28.366 35.4616 28.053 35.3319 27.8222 35.1011C27.5914 34.8703 27.4617 34.5572 27.4617 34.2308V29.3077C27.4617 28.9813 27.5914 28.6683 27.8222 28.4375C28.053 28.2066 28.366 28.077 28.6925 28.077ZM17.6155 15.7693C17.942 15.7693 18.255 15.899 18.4858 16.1298C18.7166 16.3606 18.8463 16.6736 18.8463 17.0001V34.2308C18.8463 34.5572 18.7166 34.8703 18.4858 35.1011C18.255 35.3319 17.942 35.4616 17.6155 35.4616C17.2891 35.4616 16.9761 35.3319 16.7452 35.1011C16.5144 34.8703 16.3848 34.5572 16.3848 34.2308V17.0001C16.3848 16.6736 16.5144 16.3606 16.7452 16.1298C16.9761 15.899 17.2891 15.7693 17.6155 15.7693Z" fill="black"/>
</mask>
<g mask="url(#mask0_353_20038)">
<path d="M25 41C33.8366 41 41 33.8366 41 25C41 16.1634 33.8366 9 25 9C16.1634 9 9 16.1634 9 25C9 33.8366 16.1634 41 25 41Z" fill="white"/>
</g>
</g>
<defs>
<clipPath id="clip0_353_20038">
<rect width="32" height="32" fill="white" transform="translate(9 9)"/>
</clipPath>
</defs>
</svg>
