<svg width="10" height="12" viewBox="0 0 10 12" fill="none" xmlns="http://www.w3.org/2000/svg">
<path d="M5 12C4.85417 12 4.70833 11.9741 4.5625 11.9224C4.41667 11.8706 4.28646 11.793 4.17187 11.6895C3.49479 11.0686 2.89583 10.4631 2.375 9.87322C1.85417 9.28331 1.41937 8.71162 1.07062 8.15814C0.721875 7.60466 0.45625 7.07167 0.27375 6.55917C0.0912501 6.04667 0 5.55757 0 5.09185C0 3.53946 0.502708 2.30272 1.50812 1.38163C2.51354 0.460543 3.6775 0 5 0C6.3225 0 7.48667 0.460543 8.4925 1.38163C9.49833 2.30272 10.0008 3.53946 10 5.09185C10 5.55757 9.90896 6.04667 9.72687 6.55917C9.54479 7.07167 9.27917 7.60466 8.93 8.15814C8.58083 8.71162 8.14583 9.28331 7.625 9.87322C7.10417 10.4631 6.50521 11.0686 5.82812 11.6895C5.71354 11.793 5.58333 11.8706 5.4375 11.9224C5.29167 11.9741 5.14583 12 5 12ZM5 6.20957C5.34375 6.20957 5.63812 6.08807 5.88312 5.84507C6.12812 5.60207 6.25042 5.3096 6.25 4.96766C6.24958 4.62572 6.12729 4.33345 5.88312 4.09087C5.63896 3.84828 5.34458 3.72657 5 3.72574C4.65542 3.72492 4.36125 3.84662 4.1175 4.09087C3.87375 4.33511 3.75125 4.62737 3.75 4.96766C3.74875 5.30794 3.87125 5.60041 4.1175 5.84507C4.36375 6.08973 4.65792 6.21123 5 6.20957Z" fill="#417CCA"/>
</svg>
