<svg width="303" height="202" viewBox="0 0 303 202" fill="none" xmlns="http://www.w3.org/2000/svg">
<g clip-path="url(#clip0_1958_7226)">
<path d="M61.321 66.8339C57.8919 93.8081 71.7288 121.462 93.5895 137.634C115.45 153.807 144.217 159.145 171.135 155.27C190.351 152.516 209.41 144.983 222.953 131.077C236.496 117.172 243.636 96.2804 238.181 77.6517C236.119 70.6167 232.07 63.7988 225.647 60.2652C215.387 54.6372 202.733 58.7617 191.806 62.9907C180.88 67.2198 168.245 71.3845 157.962 65.8047C150.062 61.5074 146.002 52.6593 140.213 45.7771C130.368 34.0749 114.373 27.86 99.2095 29.8499C97.3109 30.0997 95.4308 30.4744 93.5815 30.9714C77.4492 35.301 65.2525 48.5549 61.731 64.8842L61.321 66.8339Z" fill="#EBEBEB"/>
<path d="M135.512 39.8274H183.937C183.937 39.8274 179.466 18.4451 159.358 18.4451C141.473 18.4451 135.512 39.8274 135.512 39.8274Z" fill="#318AD1"/>
<path d="M160.244 0.75708H159.207V18.437H160.244V0.75708Z" fill="#318AD1"/>
<path d="M267.544 177.569C267.544 177.625 215.585 177.673 151.502 177.673C87.4197 177.673 35.4531 177.637 35.4531 177.569C35.4531 177.5 87.4036 177.464 151.502 177.464C215.601 177.464 267.544 177.508 267.544 177.569Z" fill="#263238"/>
<path d="M48.3008 152.391C48.9804 152.441 49.6432 152.626 50.2496 152.937C50.856 153.248 51.3936 153.677 51.8303 154.2C52.6986 155.253 53.3134 156.491 53.6272 157.818C54.3066 160.359 53.8885 163.362 53.1649 165.891C50.4153 164.906 48.7148 161.971 47.9389 160.427C46.7329 157.991 46.0134 152.846 48.2887 152.387" fill="#13EF00"/>
<path d="M57.1225 168.974C56.7096 168.334 56.4735 167.595 56.4382 166.834C56.4029 166.073 56.5697 165.316 56.9215 164.64C57.2844 163.971 57.7771 163.381 58.3706 162.904C58.9642 162.427 59.6469 162.073 60.3787 161.863C61.0501 161.654 61.83 161.569 62.4129 161.959C62.6756 162.158 62.8803 162.423 63.0054 162.728C63.1306 163.033 63.1717 163.366 63.1244 163.692C63.0189 164.345 62.7414 164.958 62.3204 165.468C60.9817 167.282 59.3577 168.789 57.0944 168.974" fill="#13EF00"/>
<path d="M57.4322 177.468C57.3726 177.297 57.3308 177.121 57.3076 176.942C57.2353 176.564 57.1388 176.077 57.0222 175.494C56.6613 173.898 56.5609 172.254 56.7247 170.626C56.9143 168.99 57.5374 167.434 58.5297 166.12C58.8329 165.727 59.1825 165.372 59.5709 165.062C59.6764 164.979 59.7865 164.901 59.9005 164.829C59.9368 164.799 59.9775 164.775 60.0211 164.757C59.5126 165.191 59.0481 165.675 58.6342 166.2C57.6942 167.516 57.1024 169.048 56.9137 170.654C56.6564 172.528 56.974 174.244 57.1589 175.478C57.2554 176.093 57.3358 176.592 57.38 176.938C57.4116 177.113 57.4291 177.29 57.4322 177.468Z" fill="#263238"/>
<path d="M49.1836 156.263C49.2295 156.326 49.2673 156.395 49.2962 156.468C49.3685 156.629 49.465 156.83 49.5776 157.083C49.8228 157.617 50.1645 158.393 50.5785 159.354C51.4067 161.28 52.5162 163.957 53.6739 166.94C54.8317 169.923 55.8166 172.644 56.4879 174.626C56.8337 175.615 57.103 176.419 57.2919 176.978C57.3764 177.243 57.4407 177.456 57.4929 177.621C57.5216 177.695 57.5419 177.772 57.5532 177.85C57.5125 177.782 57.4801 177.709 57.4568 177.633C57.3965 177.472 57.3201 177.263 57.2196 177.002L56.3714 174.67C55.6518 172.704 54.6468 169.987 53.493 167.008C52.3393 164.029 51.2459 161.344 50.4499 159.406C50.0479 158.454 49.7384 157.678 49.5092 157.111C49.4047 156.854 49.3203 156.649 49.256 156.484C49.2258 156.412 49.2016 156.338 49.1836 156.263Z" fill="#263238"/>
<path d="M54.1622 171.848C53.335 170.471 52.1919 169.311 50.8274 168.463C49.463 167.615 47.9162 167.104 46.3152 166.972C45.5112 166.916 44.5222 167.052 44.1604 167.776C43.7986 168.5 44.281 169.384 44.8358 169.971C46.0145 171.204 47.5318 172.06 49.1966 172.432C50.8613 172.804 52.5989 172.675 54.1903 172.061" fill="#13EF00"/>
<path d="M47.5547 169.151C47.7251 169.142 47.896 169.149 48.0652 169.171C48.2634 169.182 48.4608 169.204 48.6562 169.239C48.8853 169.284 49.1547 169.308 49.4361 169.388C49.7506 169.455 50.0607 169.541 50.3647 169.645C50.7168 169.758 51.0618 169.893 51.3978 170.047C52.1706 170.394 52.9016 170.826 53.5767 171.338C54.2439 171.861 54.8483 172.46 55.3776 173.123C55.6062 173.411 55.817 173.713 56.0088 174.027C56.1821 174.298 56.3405 174.579 56.4831 174.867C56.6039 175.102 56.7113 175.344 56.8047 175.591C56.8853 175.774 56.9538 175.962 57.0097 176.154C57.0693 176.314 57.1137 176.48 57.1424 176.648C57.0982 176.648 56.9052 175.957 56.3625 174.928C56.2147 174.651 56.0524 174.383 55.8761 174.124C55.6802 173.819 55.4682 173.525 55.2409 173.243C54.1895 171.944 52.8486 170.909 51.3255 170.22C50.9757 170.067 50.6421 169.923 50.3164 169.818C50.0175 169.709 49.7129 169.617 49.4039 169.541C48.2783 169.231 47.5507 169.195 47.5547 169.151Z" fill="#263238"/>
<path d="M120.947 95.0422L106.716 168.126L104.867 177.693L199.739 177.235C204 177.215 207.779 173.432 209.142 167.812L225.97 98.817C227.011 94.5517 224.728 90.1137 221.495 90.1177L125.45 90.2182C123.359 90.2142 121.486 92.192 120.947 95.0422Z" fill="#318AD1"/>
<g opacity="0.5">
<path opacity="0.5" d="M120.947 95.0422L106.716 168.126L104.867 177.693L199.739 177.235C204 177.215 207.779 173.432 209.142 167.812L225.97 98.817C227.011 94.5517 224.728 90.1137 221.495 90.1177L125.45 90.2182C123.359 90.2142 121.486 92.192 120.947 95.0422Z" fill="#318AD1"/>
</g>
<path d="M190.651 163.165L180.601 82.1983C180.199 78.8818 177.55 76.4055 174.426 76.4175L152.397 76.4859C151.578 76.4951 150.77 76.6709 150.021 77.0027C149.273 77.3344 148.6 77.8151 148.043 78.4155L137.591 89.5388L76.3264 89.8684C72.5838 89.8885 69.7055 93.4342 70.1999 97.414L79.5304 172.246C79.9324 175.559 82.5815 178.031 85.697 178.027L192.488 177.814C204.379 178.059 205.517 174.55 205.517 174.55C191.865 177.569 190.651 163.185 190.651 163.165Z" fill="#318AD1"/>
<g opacity="0.5">
<path opacity="0.5" d="M144.602 146.973L141 150.84L113.262 125.884L116.864 122.016L144.602 146.973Z" fill="white"/>
<path opacity="0.5" d="M139.492 121.16L143.471 124.742L118.374 151.696L114.391 148.114L139.492 121.16Z" fill="white"/>
</g>
<path d="M205.897 42.4767C205.767 42.4218 205.655 42.3311 205.575 42.215C205.494 42.099 205.449 41.9625 205.443 41.8214L205.282 38.0908C205.276 37.9749 205.298 37.8593 205.344 37.7531C205.391 37.6468 205.462 37.553 205.551 37.4788C205.641 37.4047 205.746 37.3524 205.859 37.3261C205.972 37.2997 206.09 37.3001 206.203 37.327C206.514 37.3942 206.836 37.3971 207.148 37.3356C207.46 37.2741 207.757 37.1494 208.02 36.9693C208.261 36.8162 208.469 36.6153 208.63 36.3788C208.791 36.1424 208.902 35.8754 208.956 35.5944C208.993 35.3099 208.972 35.021 208.894 34.7448C208.817 34.4685 208.685 34.2107 208.506 33.9864C208.318 33.7313 208.081 33.5158 207.809 33.3523C207.537 33.1888 207.236 33.0806 206.922 33.0337C206.29 32.9985 205.664 33.1778 205.146 33.5426C204.628 33.9074 204.248 34.4363 204.068 35.0437C204.008 35.2277 203.879 35.3815 203.709 35.473C203.538 35.5645 203.339 35.5866 203.152 35.5348C202.966 35.483 202.806 35.3612 202.707 35.1949C202.608 35.0285 202.577 34.8303 202.621 34.6417C202.894 33.6863 203.488 32.8542 204.303 32.2854C205.118 31.7165 206.104 31.4456 207.095 31.5181C207.611 31.5869 208.108 31.7586 208.556 32.0231C209.004 32.2876 209.394 32.6394 209.704 33.0578C210.005 33.4455 210.225 33.8897 210.352 34.3641C210.478 34.8385 210.508 35.3334 210.44 35.8195C210.348 36.305 210.158 36.7666 209.882 37.1759C209.605 37.5852 209.248 37.9335 208.832 38.1994C208.229 38.6054 207.524 38.8351 206.798 38.8627L206.922 41.741C206.927 41.8675 206.899 41.9931 206.843 42.1061C206.786 42.2192 206.701 42.3161 206.597 42.3879C206.493 42.4597 206.372 42.5039 206.246 42.5166C206.121 42.5294 205.993 42.5101 205.877 42.4606L205.897 42.4767Z" fill="#318AD1"/>
<path d="M207.002 44.0043C207.011 44.1257 206.983 44.2469 206.922 44.3525C206.862 44.4581 206.772 44.5435 206.663 44.5977C206.554 44.6519 206.431 44.6726 206.31 44.6572C206.19 44.6417 206.076 44.5908 205.984 44.5109C205.893 44.4309 205.827 44.3256 205.795 44.2081C205.763 44.0907 205.767 43.9664 205.806 43.8511C205.844 43.7357 205.916 43.6345 206.013 43.5601C206.109 43.4858 206.225 43.4417 206.347 43.4335C206.427 43.4274 206.508 43.4375 206.585 43.463C206.662 43.4885 206.733 43.529 206.794 43.5821C206.855 43.6352 206.904 43.6998 206.94 43.7723C206.976 43.8448 206.997 43.9236 207.002 44.0043Z" fill="#318AD1"/>
<path d="M192.982 37.2145C192.999 37.1349 193.011 37.0544 193.018 36.9733C193.018 36.7964 193.062 36.5713 193.095 36.2537C193.134 35.8638 193.2 35.477 193.292 35.0959C193.344 34.8708 193.372 34.6216 193.452 34.3683C193.533 34.115 193.613 33.8417 193.702 33.5643C194.167 32.19 194.845 30.8972 195.712 29.7332C196.847 28.226 198.286 26.9742 199.937 26.059C200.876 25.5294 201.876 25.1163 202.915 24.8288C204.037 24.5315 205.192 24.3802 206.353 24.3786C206.964 24.3688 207.575 24.401 208.182 24.4751C208.491 24.5072 208.797 24.5876 209.106 24.6399C209.419 24.6935 209.728 24.7687 210.031 24.865C211.298 25.2191 212.503 25.7655 213.605 26.4851C216.054 28.0735 217.919 30.4159 218.919 33.1583C219.458 34.6273 219.73 36.1805 219.723 37.7451C219.74 39.3569 219.455 40.9576 218.883 42.4646L218.702 42.9229L218.678 42.9832L218.702 43.0435C219.711 45.363 220.712 47.6423 221.657 49.8493L221.826 49.6564L215.796 47.3449L215.723 47.3167L215.663 47.373C214.068 48.9186 212.115 50.0455 209.979 50.6533C208.153 51.1559 206.242 51.2656 204.371 50.9752C202.5 50.6849 200.712 50.0011 199.125 48.9689C197.825 48.1164 196.679 47.0493 195.736 45.8132C194.369 44.009 193.484 41.887 193.163 39.6466C193.115 39.2446 193.075 38.9069 193.038 38.6014C193.002 38.2958 193.038 38.0466 193.018 37.8335C192.998 37.6205 193.018 37.4798 193.018 37.3632C193.038 37.3602 193.056 37.3497 193.069 37.3338C193.082 37.3179 193.088 37.2979 193.086 37.2777C193.085 37.2574 193.076 37.2385 193.061 37.2248C193.046 37.211 193.026 37.2033 193.006 37.2033C192.986 37.2033 192.966 37.211 192.952 37.2248C192.937 37.2385 192.928 37.2574 192.926 37.2777C192.924 37.2979 192.931 37.3179 192.943 37.3338C192.956 37.3497 192.974 37.3602 192.994 37.3632C192.994 37.4798 192.994 37.6366 192.994 37.8335C192.994 38.0305 192.994 38.3039 192.994 38.6094C192.994 38.9149 193.062 39.2647 193.103 39.6626C193.235 40.6296 193.465 41.5805 193.79 42.5008C194.25 43.716 194.869 44.865 195.631 45.9178C196.578 47.1759 197.732 48.2634 199.044 49.1338C200.651 50.1917 202.465 50.8958 204.364 51.1994C206.264 51.5029 208.207 51.399 210.063 50.8945C212.225 50.2805 214.202 49.1427 215.82 47.582L215.687 47.6102L221.717 49.9337L222.019 50.0503L221.886 49.7408C220.929 47.5338 219.94 45.2585 218.935 42.9349V43.0515L219.12 42.5812C219.707 41.0413 219.998 39.4049 219.98 37.7572C219.993 36.1594 219.721 34.5721 219.176 33.0698C218.155 30.2728 216.248 27.8859 213.745 26.272C212.616 25.5356 211.379 24.9796 210.079 24.6238C209.772 24.5265 209.457 24.4526 209.138 24.4027C208.825 24.3464 208.515 24.266 208.202 24.2379C207.587 24.1616 206.968 24.1267 206.349 24.1334C205.17 24.1384 203.997 24.2978 202.859 24.6077C201.806 24.9068 200.793 25.3305 199.84 25.87C198.173 26.8077 196.725 28.0889 195.591 29.6287C194.727 30.812 194.058 32.1257 193.609 33.5201C193.525 33.8095 193.444 34.0869 193.372 34.3241C193.308 34.5664 193.257 34.812 193.219 35.0597C193.133 35.4434 193.077 35.8332 193.05 36.2255C193.026 36.5351 193.01 36.7723 192.998 36.9491C192.981 37.0365 192.976 37.1257 192.982 37.2145Z" fill="#263238"/>
</g>
<defs>
<clipPath id="clip0_1958_7226">
<rect width="301.5" height="201" fill="white" transform="translate(0.75 0.75708)"/>
</clipPath>
</defs>
</svg>
