<svg width="191" height="193" viewBox="0 0 191 193" fill="none" xmlns="http://www.w3.org/2000/svg">
<path d="M175.952 25.0203L174.897 23.2843C165.992 8.61505 149.894 -0.234212 132.921 0.842108C130.732 0.972666 128.557 1.26277 126.411 1.71011C110.978 5.01285 97.5541 16.6831 91.9858 31.6301C88.7135 40.4186 87.7977 50.5395 81.5698 57.5182C73.4844 66.5975 59.7613 66.8839 47.6918 66.5063C35.6223 66.1287 21.8949 66.4499 13.8398 75.5682C8.80107 81.2753 7.19962 89.3955 7.60758 97.0382C8.67956 117.284 22.7976 135.382 40.7261 144.379C58.6546 153.376 79.7861 154.179 99.4159 150.225C126.918 144.678 153.071 129.454 168.795 105.957C184.519 82.4602 188.533 50.4006 175.952 25.0203Z" fill="#EBEBEB"/>
<path d="M190.897 192.44C190.897 192.501 148.182 192.553 95.5034 192.553C42.8245 192.553 0.101562 192.501 0.101562 192.44C0.101562 192.379 42.8072 192.327 95.5034 192.327C148.2 192.327 190.897 192.375 190.897 192.44Z" fill="#263238"/>
<path d="M124.804 145.881L80.9699 145.85C75.7011 145.85 71.4219 141.358 71.4219 135.82V20.3765C71.4219 14.8386 75.7011 10.3467 80.9699 10.3511L124.782 10.3771C130.055 10.3771 134.33 14.869 134.33 20.4069L134.308 135.851C134.352 141.393 130.077 145.881 124.804 145.881Z" fill="#263238"/>
<path d="M124.792 14.4655H116.294C115.721 14.4936 115.182 14.7478 114.795 15.1724C114.409 15.597 114.207 16.1574 114.233 16.7309V18.3498C114.259 18.924 114.056 19.485 113.668 19.9098C113.281 20.3345 112.741 20.5882 112.167 20.6152H95.6098C95.0356 20.5871 94.496 20.3323 94.1095 19.9068C93.723 19.4812 93.5211 18.9197 93.5483 18.3454V16.7309C93.5742 16.1574 93.3718 15.597 92.9854 15.1724C92.5991 14.7478 92.0602 14.4936 91.4868 14.4655H81.0708C77.3774 14.4655 74.3828 17.612 74.3828 21.4919V134.167C74.3828 138.043 77.3731 141.189 81.0621 141.193L124.792 141.219C128.485 141.219 131.48 138.077 131.48 134.197L131.471 21.5049C131.471 17.5989 128.485 14.4655 124.792 14.4655Z" fill="white"/>
<path d="M86.2981 130.556V133.312C86.2978 133.366 86.2831 133.419 86.2555 133.465C86.2278 133.512 86.1883 133.55 86.141 133.576C86.0937 133.602 86.0403 133.615 85.9863 133.614C85.9323 133.612 85.8796 133.597 85.8337 133.568L83.6638 132.188C83.6207 132.16 83.5853 132.123 83.5608 132.078C83.5363 132.033 83.5234 131.983 83.5234 131.932C83.5234 131.881 83.5363 131.831 83.5608 131.786C83.5853 131.741 83.6207 131.703 83.6638 131.676L85.8337 130.296C85.8799 130.267 85.933 130.251 85.9874 130.25C86.0418 130.249 86.0955 130.262 86.1429 130.289C86.1904 130.315 86.2298 130.354 86.2571 130.401C86.2844 130.448 86.2986 130.502 86.2981 130.556Z" fill="#E0E0E0"/>
<path d="M104.118 131.906C104.117 132.282 104.005 132.649 103.796 132.961C103.586 133.273 103.289 133.516 102.942 133.659C102.594 133.802 102.212 133.839 101.844 133.765C101.475 133.691 101.137 133.51 100.872 133.244C100.606 132.978 100.426 132.639 100.353 132.271C100.28 131.902 100.318 131.52 100.462 131.173C100.606 130.826 100.849 130.529 101.162 130.321C101.474 130.112 101.842 130 102.217 130C102.722 130.002 103.205 130.203 103.562 130.56C103.918 130.917 104.118 131.401 104.118 131.906Z" fill="#E0E0E0"/>
<path d="M120.469 130.248H118.585C118.137 130.248 117.773 130.611 117.773 131.06V132.952C117.773 133.4 118.137 133.763 118.585 133.763H120.469C120.917 133.763 121.28 133.4 121.28 132.952V131.06C121.28 130.611 120.917 130.248 120.469 130.248Z" fill="#E0E0E0"/>
<path d="M124.056 69.3147C126.855 57.7257 119.73 46.0617 108.141 43.2623C96.5517 40.4629 84.8876 47.5883 82.0883 59.1772C79.2889 70.7662 86.4142 82.4302 98.0032 85.2296C109.592 88.029 121.256 80.9036 124.056 69.3147Z" fill="#F5F5F5"/>
<path d="M104.036 73.7498C104.035 74.1027 103.93 74.4475 103.733 74.7405C103.536 75.0334 103.257 75.2614 102.93 75.3954C102.604 75.5295 102.245 75.5637 101.899 75.4937C101.553 75.4237 101.235 75.2526 100.987 75.0021C100.738 74.7516 100.569 74.4329 100.502 74.0865C100.434 73.74 100.471 73.3813 100.607 73.0558C100.744 72.7303 100.974 72.4525 101.268 72.2578C101.563 72.063 101.908 71.96 102.261 71.9617C102.733 71.9651 103.185 72.155 103.517 72.49C103.85 72.825 104.036 73.2778 104.036 73.7498Z" fill="#6A6A6A"/>
<path d="M98.6895 71.4583C99.1446 70.9684 99.6943 70.5759 100.306 70.3046C100.917 70.0333 101.577 69.8888 102.245 69.8799C102.914 69.8709 103.577 69.9978 104.195 70.2527C104.814 70.5076 105.374 70.8852 105.842 71.3628C106.753 72.2829 108.177 70.8724 107.265 69.9523C106.61 69.2921 105.83 68.7695 104.969 68.4155C104.109 68.0614 103.187 67.8829 102.257 67.8906C101.327 67.8983 100.408 68.092 99.5535 68.4602C98.6993 68.8284 97.9274 69.3638 97.2833 70.0348C96.3936 70.9679 97.8041 72.3958 98.6981 71.4583H98.6895Z" fill="#6A6A6A"/>
<path d="M92.6298 63.1689C95.3423 60.8253 98.58 59.3497 102.204 59.341C105.821 59.2894 109.322 60.6214 111.991 63.0648C112.928 63.9328 114.356 62.5396 113.414 61.6543C110.372 58.8371 106.371 57.2851 102.226 57.3142C98.0548 57.3142 94.3485 59.0502 91.228 61.728C90.2515 62.5743 91.662 63.9935 92.6428 63.1516L92.6298 63.1689Z" fill="#6A6A6A"/>
<path d="M95.0238 67.7563C95.9281 66.747 97.0318 65.9361 98.2652 65.3746C99.4986 64.8132 100.835 64.5135 102.19 64.4943C103.545 64.4751 104.889 64.737 106.138 65.2633C107.387 65.7896 108.513 66.569 109.446 67.5523C110.348 68.4767 111.772 67.0662 110.869 66.1375C109.75 64.9682 108.403 64.0411 106.911 63.4138C105.42 62.7864 103.815 62.4722 102.197 62.4905C100.578 62.5088 98.9812 62.8593 97.504 63.5202C96.0268 64.1812 94.701 65.1384 93.609 66.3328C92.741 67.2789 94.1428 68.7068 95.0238 67.7563Z" fill="#6A6A6A"/>
<path d="M119.106 59.3877C119.633 56.4114 117.647 53.5718 114.67 53.0454C111.694 52.519 108.855 54.5051 108.328 57.4814C107.802 60.4577 109.788 63.2972 112.764 63.8236C115.74 64.3501 118.58 62.364 119.106 59.3877Z" fill="#318AD1"/>
<path d="M115.972 56.9042L115.195 56.1278L111.718 59.6048L112.495 60.3812L115.972 56.9042Z" fill="white"/>
<path d="M112.499 56.1239L111.723 56.9003L115.2 60.3773L115.976 59.6009L112.499 56.1239Z" fill="white"/>
<path d="M101.624 26.5176C101.896 26.3544 102.187 26.2274 102.492 26.14L102.67 25.272L104.115 25.246L104.323 26.114C104.627 26.1909 104.919 26.3076 105.191 26.4612L105.916 25.9751L106.958 26.982L106.502 27.7284C106.665 28.0001 106.792 28.2919 106.88 28.5964L107.748 28.7744L107.774 30.2239L106.906 30.4279C106.83 30.7312 106.715 31.023 106.563 31.2959L107.04 32.025L106.038 33.0666L105.291 32.6326C105.019 32.7942 104.728 32.9197 104.423 33.0059L104.245 33.8739L102.8 33.8999L102.592 33.0319C102.289 32.9542 101.997 32.8375 101.724 32.6847L100.99 33.1621L99.9487 32.1596L100.404 31.4131C100.241 31.1418 100.114 30.8499 100.027 30.5451L99.1589 30.3672L99.1328 28.9219L100.001 28.7136C100.077 28.4107 100.192 28.1189 100.344 27.8456L99.8663 27.1122L100.873 26.0749L101.62 26.5089L101.624 26.5176ZM102.392 28.4489C102.179 28.67 102.035 28.9494 101.981 29.2518C101.926 29.5543 101.962 29.8662 102.085 30.148C102.208 30.4299 102.411 30.669 102.669 30.8352C102.928 31.0014 103.23 31.0872 103.537 31.0818C103.845 31.0763 104.143 30.9798 104.396 30.8045C104.648 30.6292 104.843 30.383 104.956 30.0969C105.068 29.8109 105.093 29.498 105.028 29.1976C104.962 28.8973 104.809 28.6232 104.588 28.4098C104.292 28.124 103.894 27.9675 103.482 27.9748C103.07 27.9821 102.678 28.1527 102.392 28.4489Z" fill="#E0E0E0"/>
<path d="M83.2715 29.7509C82.8375 29.7509 82.2343 29.7509 81.657 29.7509C80.967 29.7509 80.2769 29.7509 79.7952 29.7509C79.7376 29.7509 79.6824 29.7281 79.6417 29.6874C79.601 29.6467 79.5782 29.5915 79.5782 29.5339C79.5776 29.5057 79.5827 29.4775 79.5931 29.4512C79.6035 29.4249 79.6191 29.401 79.6389 29.3808C79.6587 29.3605 79.6823 29.3445 79.7084 29.3335C79.7345 29.3226 79.7625 29.3169 79.7908 29.3169C80.2726 29.3169 80.9713 29.3169 81.6657 29.3169C82.3601 29.3169 83.0458 29.343 83.5276 29.3169C83.5559 29.3164 83.584 29.3214 83.6103 29.3319C83.6366 29.3423 83.6605 29.3579 83.6808 29.3777C83.701 29.3975 83.717 29.4211 83.728 29.4472C83.7389 29.4733 83.7446 29.5013 83.7446 29.5296C83.7451 29.5581 83.7401 29.5864 83.7297 29.613C83.7193 29.6395 83.7038 29.6638 83.6841 29.6843C83.6643 29.7049 83.6407 29.7213 83.6146 29.7328C83.5885 29.7442 83.5604 29.7504 83.5319 29.7509H83.2715Z" fill="#263238"/>
<path d="M81.1113 31.2091C81.0809 31.2085 81.0509 31.2016 81.0233 31.1889C80.9957 31.1762 80.9709 31.158 80.9507 31.1353L79.6487 29.6467C79.6132 29.6057 79.5938 29.5533 79.5938 29.4991C79.5938 29.4449 79.6132 29.3925 79.6487 29.3515L80.9507 27.9975C80.9697 27.9744 80.9932 27.9556 81.0198 27.9421C81.0465 27.9286 81.0756 27.9207 81.1054 27.9189C81.1352 27.9172 81.165 27.9216 81.193 27.9319C81.2211 27.9423 81.2466 27.9583 81.2682 27.9789C81.2897 27.9996 81.3068 28.0244 81.3183 28.052C81.3298 28.0795 81.3355 28.1092 81.335 28.139C81.3346 28.1689 81.3279 28.1983 81.3156 28.2255C81.3032 28.2526 81.2854 28.277 81.2632 28.2969L80.1131 29.5078L81.3022 30.8489C81.3299 30.8803 81.3478 30.9191 81.3539 30.9606C81.36 31.002 81.3539 31.0443 81.3365 31.0824C81.3191 31.1205 81.291 31.1527 81.2556 31.1752C81.2203 31.1977 81.1792 31.2094 81.1373 31.2091H81.1113Z" fill="#263238"/>
<path d="M125.848 28.488C126.22 28.488 126.521 28.1868 126.521 27.8153C126.521 27.4438 126.22 27.1426 125.848 27.1426C125.477 27.1426 125.176 27.4438 125.176 27.8153C125.176 28.1868 125.477 28.488 125.848 28.488Z" fill="#263238"/>
<path d="M126.522 29.9419C126.523 30.0761 126.484 30.2076 126.41 30.3196C126.336 30.4316 126.23 30.5191 126.106 30.5709C125.982 30.6227 125.846 30.6364 125.714 30.6104C125.582 30.5845 125.461 30.5199 125.366 30.4249C125.271 30.33 125.207 30.209 125.181 30.0772C125.155 29.9455 125.169 29.809 125.22 29.6851C125.272 29.5612 125.36 29.4555 125.472 29.3815C125.584 29.3074 125.715 29.2683 125.849 29.2692C126.028 29.2692 126.199 29.3401 126.325 29.4662C126.451 29.5924 126.522 29.7635 126.522 29.9419Z" fill="#263238"/>
<path d="M125.848 32.7411C126.22 32.7411 126.521 32.44 126.521 32.0684C126.521 31.6969 126.22 31.3958 125.848 31.3958C125.477 31.3958 125.176 31.6969 125.176 32.0684C125.176 32.44 125.477 32.7411 125.848 32.7411Z" fill="#263238"/>
<path d="M88.4514 93.9351C87.4283 94.0468 86.3985 94.0845 85.37 94.048C84.343 94.0844 83.3146 94.0467 82.293 93.9351C83.3146 93.8236 84.343 93.7859 85.37 93.8223C86.3985 93.7858 87.4283 93.8235 88.4514 93.9351Z" fill="#263238"/>
<path d="M99.5054 101.14C99.5054 101.2 95.721 101.252 91.0555 101.252C86.39 101.252 82.6055 101.2 82.6055 101.14C82.6055 101.079 86.3856 101.027 91.0555 101.027C95.7253 101.027 99.5054 101.079 99.5054 101.14Z" fill="#263238"/>
<path d="M99.5054 108.305C99.5054 108.366 95.721 108.418 91.0555 108.418C86.39 108.418 82.6055 108.366 82.6055 108.305C82.6055 108.244 86.3856 108.192 91.0555 108.192C95.7253 108.192 99.5054 108.235 99.5054 108.305Z" fill="#263238"/>
<path d="M121.845 98.4357H115.665C114.171 98.4357 112.961 99.6452 112.961 101.137C112.961 102.629 114.171 103.839 115.665 103.839H121.845C123.338 103.839 124.549 102.629 124.549 101.137C124.549 99.6452 123.338 98.4357 121.845 98.4357Z" fill="#EBEBEB"/>
<path d="M117.894 101.139C117.894 101.588 117.761 102.026 117.512 102.398C117.264 102.771 116.91 103.061 116.496 103.233C116.082 103.404 115.626 103.449 115.187 103.361C114.747 103.274 114.344 103.058 114.027 102.741C113.71 102.425 113.494 102.021 113.407 101.581C113.319 101.142 113.364 100.687 113.536 100.273C113.707 99.8586 113.998 99.5048 114.37 99.2558C114.743 99.0069 115.181 98.874 115.629 98.874C115.926 98.874 116.221 98.9326 116.496 99.0465C116.771 99.1603 117.02 99.3272 117.231 99.5376C117.441 99.7479 117.608 99.9977 117.722 100.273C117.836 100.547 117.894 100.842 117.894 101.139Z" fill="#E0E0E0"/>
<path d="M121.849 111H115.665C114.948 111 114.26 110.715 113.753 110.208C113.246 109.701 112.961 109.013 112.961 108.296C112.961 107.579 113.246 106.891 113.753 106.384C114.26 105.877 114.948 105.592 115.665 105.592H121.849C122.566 105.592 123.254 105.877 123.761 106.384C124.268 106.891 124.553 107.579 124.553 108.296C124.553 109.013 124.268 109.701 123.761 110.208C123.254 110.715 122.566 111 121.849 111Z" fill="#EBEBEB"/>
<path d="M115.629 110.562C116.88 110.562 117.894 109.547 117.894 108.296C117.894 107.045 116.88 106.031 115.629 106.031C114.378 106.031 113.363 107.045 113.363 108.296C113.363 109.547 114.378 110.562 115.629 110.562Z" fill="#E0E0E0"/>
<path d="M99.5054 115.501C99.5054 115.566 95.721 115.613 91.0555 115.613C86.39 115.613 82.6055 115.566 82.6055 115.501C82.6055 115.435 86.3856 115.388 91.0555 115.388C95.7253 115.388 99.5054 115.44 99.5054 115.501Z" fill="#263238"/>
<path d="M121.849 119.003H115.665C115.31 119.004 114.958 118.934 114.63 118.799C114.302 118.663 114.004 118.465 113.753 118.214C113.502 117.963 113.303 117.665 113.167 117.338C113.031 117.01 112.961 116.658 112.961 116.304C112.961 115.586 113.246 114.899 113.753 114.392C114.26 113.885 114.948 113.6 115.665 113.6H121.849C122.566 113.6 123.254 113.885 123.761 114.392C124.268 114.899 124.553 115.586 124.553 116.304C124.553 116.658 124.483 117.01 124.347 117.338C124.211 117.665 124.012 117.963 123.761 118.214C123.51 118.465 123.212 118.663 122.884 118.799C122.556 118.934 122.204 119.004 121.849 119.003Z" fill="#EBEBEB"/>
<path d="M115.629 118.569C116.88 118.569 117.894 117.555 117.894 116.303C117.894 115.052 116.88 114.038 115.629 114.038C114.378 114.038 113.363 115.052 113.363 116.303C113.363 117.555 114.378 118.569 115.629 118.569Z" fill="#E0E0E0"/>
<path d="M173.474 22.0505C174.096 18.1935 171.474 14.562 167.617 13.9393C163.76 13.3167 160.129 15.9387 159.506 19.7958C158.884 23.6528 161.506 27.2843 165.363 27.9069C169.22 28.5295 172.851 25.9075 173.474 22.0505Z" fill="#318AD1"/>
<path d="M165.484 36.7425C165.445 36.7425 165.41 35.4404 165.41 33.8216C165.41 32.2028 165.445 30.9052 165.484 30.9052C165.559 31.8754 165.584 32.8488 165.558 33.8216C165.584 34.7959 165.559 35.7708 165.484 36.7425Z" fill="#318AD1"/>
<path d="M161.409 29.2603C161.443 29.2603 160.779 30.5015 159.924 31.9815C159.069 33.4614 158.345 34.6506 158.31 34.6289C158.275 34.6072 158.939 33.392 159.794 31.9077C160.649 30.4234 161.374 29.2386 161.409 29.2603Z" fill="#318AD1"/>
<path d="M157.225 26.6564C156.709 27.1628 156.158 27.6327 155.576 28.0625C155.025 28.5328 154.445 28.9677 153.84 29.3645C154.356 28.8581 154.907 28.3882 155.489 27.9584C156.038 27.4857 156.618 27.0507 157.225 26.6564Z" fill="#318AD1"/>
<path d="M172.542 33.8651C172.457 33.6328 172.395 33.3931 172.355 33.149C172.256 32.715 172.108 32.09 171.921 31.413C171.735 30.736 171.557 30.137 171.422 29.703C171.332 29.4716 171.265 29.2317 171.223 28.9869C171.346 29.2028 171.447 29.4312 171.522 29.6683C171.683 30.1023 171.882 30.6969 172.065 31.3739C172.247 32.051 172.373 32.6759 172.451 33.1099C172.508 33.3577 172.539 33.6109 172.542 33.8651Z" fill="#318AD1"/>
<path d="M179.717 28.7743C178.989 28.2339 178.29 27.6544 177.625 27.0383C176.928 26.4617 176.263 25.8474 175.633 25.1981C176.361 25.7385 177.059 26.318 177.725 26.9341C178.422 27.5107 179.087 28.125 179.717 28.7743Z" fill="#318AD1"/>
<path d="M182.464 21.7782C182.172 21.7602 181.882 21.7196 181.596 21.6566C181.071 21.5698 180.346 21.457 179.543 21.3659C178.74 21.2747 178.007 21.2183 177.477 21.1836C177.187 21.183 176.896 21.1583 176.609 21.1098C176.897 21.0707 177.188 21.0605 177.477 21.0794C178.011 21.0794 178.749 21.1272 179.556 21.2183C180.363 21.3094 181.093 21.4396 181.613 21.5525C181.903 21.6014 182.188 21.6769 182.464 21.7782Z" fill="#318AD1"/>
<path d="M182.47 14.8993C182.47 14.9427 180.951 15.3333 179.05 15.8107C177.15 16.2881 175.604 16.6136 175.578 16.5746C175.552 16.5355 177.102 16.1406 178.998 15.6675C180.895 15.1945 182.462 14.8603 182.47 14.8993Z" fill="#318AD1"/>
<path d="M174.485 6.8877C174.515 6.8877 173.786 8.07686 172.849 9.4917C171.911 10.9065 171.113 12.0436 171.087 12.0176C171.061 11.9915 171.785 10.8284 172.723 9.41358C173.267 8.54229 173.855 7.69924 174.485 6.8877Z" fill="#318AD1"/>
<path d="M166.549 5.2124C166.572 5.53606 166.572 5.86091 166.549 6.18456C166.549 6.78348 166.549 7.60808 166.549 8.51948C166.549 9.43088 166.549 10.2555 166.575 10.8631C166.598 11.1853 166.598 11.5087 166.575 11.8309C166.513 11.5133 166.48 11.1909 166.475 10.8674C166.441 10.2685 166.41 9.43956 166.41 8.52382C166.41 7.60808 166.436 6.78782 166.471 6.18022C166.468 5.85592 166.494 5.53198 166.549 5.2124Z" fill="#318AD1"/>
<path d="M160.54 12.6903C160.505 12.712 159.759 11.5576 158.878 10.1124C157.997 8.66716 157.302 7.47366 157.337 7.45196C157.372 7.43026 158.118 8.58904 159.004 10.056C159.889 11.5229 160.597 12.673 160.54 12.6903Z" fill="#318AD1"/>
<path d="M156.953 15.7413C156.699 15.7309 156.447 15.6916 156.202 15.6241C155.742 15.5243 155.113 15.3724 154.423 15.1901C153.733 15.0078 153.121 14.7561 152.687 14.6042C152.444 14.5271 152.21 14.4253 151.988 14.3004C152.239 14.346 152.485 14.4158 152.722 14.5087C153.156 14.6476 153.785 14.8473 154.458 15.0469C155.13 15.2465 155.76 15.4201 156.22 15.5417C156.47 15.5849 156.716 15.6517 156.953 15.7413Z" fill="#318AD1"/>
<path d="M155.39 21.1749C154.645 21.3238 153.891 21.421 153.133 21.4657C152.38 21.5625 151.622 21.6118 150.863 21.6133C151.608 21.4637 152.362 21.3651 153.12 21.3181C153.873 21.2238 154.631 21.176 155.39 21.1749Z" fill="#318AD1"/>
<path d="M150.562 147.252L156.89 192.332L158.539 192.384C157.489 177.072 156.369 161.457 150.562 147.252Z" fill="#455A64"/>
<path d="M168.147 145.138C163.724 149.969 161.945 156.648 160.825 163.11C159.237 172.272 159.089 183.096 159.571 192.384L161.88 192.436C160.965 176.416 163.091 160.367 168.147 145.138Z" fill="#455A64"/>
<path d="M151.727 173.921C151.219 171.686 150.637 169.416 149.361 167.511C147.625 164.942 144.835 163.319 142.009 162.051C139.184 160.784 136.22 159.777 133.668 158.024C136.515 162.689 142.973 163.931 146.254 168.297C147.89 170.467 148.572 173.192 149.21 175.835C150.611 181.599 151.471 186.585 152.868 192.327H154.743C154.126 186.135 153.119 179.987 151.727 173.921Z" fill="#455A64"/>
<path d="M163.566 192.384C163.566 192.384 165.151 174.481 166.327 171.192C167.503 167.902 178.613 158.823 178.509 159.252C178.405 159.682 170.172 169.616 168.996 171.669C167.82 173.722 165.806 192.384 165.806 192.384H163.566Z" fill="#455A64"/>
<path d="M111.045 173.661C111.484 173.836 111.883 174.099 112.218 174.432C112.552 174.765 112.816 175.163 112.994 175.601C113.348 176.48 113.496 177.429 113.428 178.374C113.337 180.197 112.43 182.093 111.414 183.612C109.804 182.38 109.305 180.084 109.123 178.899C108.836 177.033 109.452 173.483 111.054 173.661" fill="#6A6A6A"/>
<path d="M113.372 186.481C113.235 185.97 113.235 185.432 113.373 184.922C113.511 184.411 113.782 183.946 114.158 183.573C114.538 183.208 114.988 182.922 115.481 182.733C115.973 182.543 116.499 182.454 117.026 182.471C117.266 182.455 117.506 182.491 117.73 182.575C117.955 182.66 118.159 182.792 118.328 182.961C118.461 183.149 118.541 183.369 118.56 183.598C118.578 183.827 118.534 184.057 118.433 184.263C118.228 184.673 117.918 185.021 117.534 185.27C116.267 186.186 114.874 186.837 113.35 186.486" fill="#6A6A6A"/>
<path d="M111.777 192.158C111.778 192.033 111.788 191.908 111.808 191.785C111.838 191.52 111.877 191.177 111.925 190.769C112.024 189.638 112.304 188.53 112.754 187.488C113.226 186.445 113.968 185.546 114.902 184.884C115.186 184.691 115.492 184.533 115.814 184.411C115.9 184.376 115.988 184.347 116.078 184.324L116.174 184.302C115.747 184.482 115.338 184.703 114.954 184.962C114.056 185.633 113.341 186.52 112.875 187.54C112.426 188.57 112.134 189.661 112.007 190.778C111.942 191.212 111.89 191.55 111.847 191.789C111.837 191.914 111.813 192.038 111.777 192.158Z" fill="#263238"/>
<path d="M110.809 176.404C110.826 176.456 110.836 176.51 110.839 176.564L110.895 177.029C110.947 177.437 111.008 178.018 111.078 178.743C111.221 180.193 111.386 182.193 111.512 184.407C111.638 186.62 111.724 188.63 111.759 190.083C111.759 190.813 111.785 191.385 111.785 191.819V192.288C111.785 192.397 111.785 192.453 111.785 192.453C111.781 192.398 111.781 192.343 111.785 192.288L111.763 191.819C111.763 191.385 111.724 190.817 111.694 190.083C111.633 188.63 111.546 186.611 111.412 184.411C111.277 182.211 111.125 180.197 111.008 178.747C110.947 178.036 110.904 177.445 110.869 177.033C110.869 176.842 110.843 176.686 110.835 176.564C110.822 176.512 110.814 176.458 110.809 176.404Z" fill="#263238"/>
<path d="M110.806 187.757C110.552 186.672 110.042 185.664 109.32 184.815C108.597 183.967 107.683 183.303 106.653 182.879C106.127 182.666 105.45 182.549 105.055 182.957C104.66 183.365 104.799 184.038 105.055 184.55C105.574 185.614 106.396 186.501 107.418 187.098C108.44 187.696 109.616 187.978 110.797 187.909" fill="#6A6A6A"/>
<path d="M107.008 184.576C107.123 184.605 107.235 184.646 107.342 184.697C107.446 184.741 107.576 184.793 107.72 184.867C107.863 184.94 108.032 185.019 108.206 185.131C108.398 185.242 108.584 185.363 108.761 185.496C108.969 185.644 109.169 185.803 109.36 185.973C109.797 186.362 110.189 186.799 110.528 187.275C110.86 187.761 111.134 188.284 111.344 188.833C111.432 189.072 111.507 189.316 111.569 189.563C111.625 189.779 111.67 189.997 111.704 190.218C111.735 190.399 111.755 190.581 111.765 190.765C111.776 190.909 111.776 191.054 111.765 191.199C111.776 191.316 111.776 191.433 111.765 191.55C111.734 191.55 111.765 191.047 111.613 190.248C111.575 190.032 111.526 189.817 111.465 189.606C111.399 189.363 111.319 189.124 111.226 188.89C111.015 188.352 110.744 187.84 110.419 187.362C110.087 186.89 109.706 186.453 109.282 186.06C109.096 185.889 108.9 185.728 108.696 185.578C108.514 185.431 108.323 185.318 108.154 185.205C107.468 184.784 106.999 184.602 107.008 184.576Z" fill="#263238"/>
</svg>
