<svg width="330" height="330" viewBox="0 0 330 330" fill="none" xmlns="http://www.w3.org/2000/svg">
<path d="M330 252.384H0V252.55H330V252.384Z" fill="#EBEBEB"/>
<path d="M296.934 263.003H275.075V263.169H296.934V263.003Z" fill="#EBEBEB"/>
<path d="M218.605 264.799H212.87V264.964H218.605V264.799Z" fill="#EBEBEB"/>
<path d="M274.415 256.879H261.749V257.044H274.415V256.879Z" fill="#EBEBEB"/>
<path d="M63.129 257.988H34.6236V258.153H63.129V257.988Z" fill="#EBEBEB"/>
<path d="M73.1874 257.988H69.0096V258.153H73.1874V257.988Z" fill="#EBEBEB"/>
<path d="M148.599 260.773H86.7702V260.938H148.599V260.773Z" fill="#EBEBEB"/>
<path d="M156.42 222.948H28.9806C27.9823 222.946 27.0254 222.548 26.3201 221.842C25.6147 221.135 25.2186 220.178 25.2186 219.179V40.0356C25.2273 39.043 25.6273 38.0939 26.3317 37.3945C27.036 36.695 27.9879 36.3017 28.9806 36.3H156.42C157.42 36.3 158.378 36.6971 159.085 37.4038C159.792 38.1106 160.189 39.0692 160.189 40.0686V219.179C160.189 220.179 159.792 221.138 159.085 221.844C158.378 222.551 157.42 222.948 156.42 222.948ZM28.9806 36.432C28.026 36.4338 27.1111 36.8142 26.4367 37.4898C25.7624 38.1655 25.3836 39.0811 25.3836 40.0356V219.179C25.3836 220.134 25.7624 221.05 26.4367 221.725C27.1111 222.401 28.026 222.781 28.9806 222.783H156.42C157.375 222.781 158.291 222.401 158.966 221.726C159.642 221.05 160.022 220.135 160.024 219.179V40.0356C160.022 39.0805 159.642 38.1649 158.966 37.4894C158.291 36.814 157.375 36.4338 156.42 36.432H28.9806Z" fill="#EBEBEB"/>
<path d="M299.185 222.948H171.739C170.74 222.946 169.782 222.549 169.076 221.842C168.369 221.136 167.972 220.178 167.97 219.179V40.0356C167.98 39.0424 168.382 38.0933 169.087 37.3941C169.793 36.6948 170.745 36.3017 171.739 36.3H299.185C300.176 36.3035 301.126 36.6975 301.829 37.3968C302.532 38.096 302.931 39.0442 302.94 40.0356V219.179C302.94 220.177 302.545 221.133 301.841 221.84C301.137 222.546 300.182 222.945 299.185 222.948ZM171.739 36.432C170.783 36.4338 169.868 36.814 169.192 37.4894C168.517 38.1649 168.137 39.0805 168.135 40.0356V219.179C168.137 220.135 168.517 221.05 169.192 221.726C169.868 222.401 170.783 222.781 171.739 222.783H299.185C300.14 222.781 301.055 222.401 301.731 221.726C302.406 221.05 302.786 220.135 302.788 219.179V40.0356C302.786 39.0805 302.406 38.1649 301.731 37.4894C301.055 36.814 300.14 36.4338 299.185 36.432H171.739Z" fill="#EBEBEB"/>
<path d="M130.172 101.046H44.0814V105.468H130.172V101.046Z" fill="#E0E0E0"/>
<path d="M51.8364 84.7375H48.0414V101.04H51.8364V84.7375Z" fill="#EBEBEB"/>
<path d="M70.1778 84.7375H66.3828V101.04H70.1778V84.7375Z" fill="#EBEBEB"/>
<path d="M90.9964 84.3319L87.2565 84.9766L90.0257 101.042L93.7655 100.397L90.9964 84.3319Z" fill="#EBEBEB"/>
<path d="M56.5356 86.8892H52.7406V101.046H56.5356V86.8892Z" fill="#EBEBEB"/>
<path d="M65.2542 86.8892H61.4592V101.046H65.2542V86.8892Z" fill="#EBEBEB"/>
<path d="M87.2586 86.8892H83.4636V101.046H87.2586V86.8892Z" fill="#EBEBEB"/>
<path d="M75.1621 86.393L71.4575 87.2163L74.5289 101.036L78.2335 100.213L75.1621 86.393Z" fill="#EBEBEB"/>
<path d="M59.8092 83.9321H57.915V101.046H59.8092V83.9321Z" fill="#EBEBEB"/>
<path d="M82.368 83.9321H80.4738V101.046H82.368V83.9321Z" fill="#EBEBEB"/>
<path d="M121.909 88.1431H103.429V100.901H121.909V88.1431Z" fill="#EBEBEB"/>
<path d="M44.0748 138.488H130.165V134.066H44.0748V138.488Z" fill="#E0E0E0"/>
<path d="M122.41 134.066H126.205V117.764H122.41V134.066Z" fill="#EBEBEB"/>
<path d="M104.069 134.066H107.864V117.764H104.069V134.066Z" fill="#EBEBEB"/>
<path d="M80.4884 133.418L84.2282 134.063L86.9974 117.998L83.2575 117.353L80.4884 133.418Z" fill="#EBEBEB"/>
<path d="M117.711 134.066H121.506V119.909H117.711V134.066Z" fill="#EBEBEB"/>
<path d="M108.992 134.066H112.787V119.909H108.992V134.066Z" fill="#EBEBEB"/>
<path d="M86.988 134.066H90.783V119.909H86.988V134.066Z" fill="#EBEBEB"/>
<path d="M96.0243 133.238L99.7289 134.062L102.8 120.242L99.0956 119.419L96.0243 133.238Z" fill="#EBEBEB"/>
<path d="M114.437 134.066H116.332V116.952H114.437V134.066Z" fill="#EBEBEB"/>
<path d="M91.872 134.066H93.7662V116.952H91.872V134.066Z" fill="#EBEBEB"/>
<path d="M52.3446 133.921H70.8246V121.163H52.3446V133.921Z" fill="#EBEBEB"/>
<path d="M283.787 63.1621H178.636C177.863 63.1621 177.236 63.7886 177.236 64.5613V66.0595C177.236 66.8323 177.863 67.4587 178.636 67.4587H283.787C284.56 67.4587 285.186 66.8323 285.186 66.0595V64.5613C285.186 63.7886 284.56 63.1621 283.787 63.1621Z" fill="#E0E0E0"/>
<path d="M278.771 66.5808H183.645V150.995H278.771V66.5808Z" fill="#E6E6E6"/>
<path d="M276.269 68.8975H186.028V148.724H276.269V68.8975Z" fill="#F0F0F0"/>
<path d="M207.207 68.8975L186.028 148.546V111.118L197.208 68.8975H207.207Z" fill="white"/>
<path d="M214.705 68.8975L193.34 148.724H189.935L211.299 68.8975H214.705Z" fill="white"/>
<path d="M276.269 119.269V132.02L271.946 148.724H268.534L276.269 119.269Z" fill="white"/>
<path d="M217.503 67.4587H215.985V150.507H217.503V67.4587Z" fill="#E6E6E6"/>
<path d="M246.959 67.4587H245.441V150.507H246.959V67.4587Z" fill="#E6E6E6"/>
<path d="M263.267 64.5349C263.267 64.5349 265.459 93.0931 278.045 107.646C278.045 107.646 268.877 144.402 268.884 157.219L285.919 154.071L279.781 107.871L282.718 64.5415L263.267 64.5349Z" fill="#E0E0E0"/>
<path d="M199.148 64.5349C199.148 64.5349 196.964 93.0931 184.378 107.646C184.378 107.646 193.545 144.402 193.538 157.219L176.497 154.071L182.642 107.871L179.705 64.5415L199.148 64.5349Z" fill="#E0E0E0"/>
<path d="M90.4898 69.3596C98.3583 67.5024 103.232 59.6181 101.374 51.7495C99.5173 43.8809 91.633 39.0077 83.7644 40.8649C75.8958 42.722 71.0226 50.6063 72.8797 58.4749C74.7369 66.3435 82.6212 71.2167 90.4898 69.3596Z" fill="#E0E0E0"/>
<path d="M89.1232 67.3902C95.909 66.2887 100.517 59.8948 99.4156 53.109C98.3141 46.3232 91.9202 41.7151 85.1344 42.8166C78.3486 43.9181 73.7405 50.312 74.842 57.0978C75.9435 63.8836 82.3374 68.4917 89.1232 67.3902Z" fill="#F0F0F0"/>
<path d="M87.714 46.5696V55.2684L93.4758 52.008" fill="#F0F0F0"/>
<path d="M87.714 46.5696V55.2684L93.4758 52.008" stroke="#E0E0E0" stroke-width="2" stroke-linecap="round" stroke-linejoin="round"/>
<path d="M165 282.19C235.674 282.19 292.967 278.845 292.967 274.718C292.967 270.592 235.674 267.247 165 267.247C94.3256 267.247 37.0326 270.592 37.0326 274.718C37.0326 278.845 94.3256 282.19 165 282.19Z" fill="#F5F5F5"/>
<path d="M53.5656 254.001C53.4666 253.341 51.1566 237.389 55.7832 231.884C56.2436 231.304 56.827 230.834 57.4912 230.506C58.1554 230.179 58.8839 230.002 59.6244 229.99C68.97 229.772 70.2438 237.25 70.257 237.349L69.1548 237.521C69.1152 237.25 68.0064 230.921 59.6508 231.106C59.0682 231.115 58.4951 231.255 57.9733 231.514C57.4515 231.773 56.9941 232.145 56.6346 232.604C52.3314 237.725 54.6546 253.678 54.6546 253.836L53.5656 254.001Z" fill="#318AD1"/>
<path d="M53.0046 253.275L51.8892 253.242C51.8892 253.09 52.2588 238.557 45.0978 235.547C38.0754 232.61 34.914 238.656 34.7886 238.913L33.792 238.412C33.792 238.339 37.5342 231.152 45.5268 234.524C53.394 237.824 53.0244 252.641 53.0046 253.275Z" fill="#318AD1"/>
<path d="M53.0376 254.417C53.0376 254.186 52.965 231.191 48.4836 224.466C44.1804 218.011 37.2636 221.047 36.9402 221.166L36.4848 220.156C36.564 220.116 44.5764 216.579 49.4142 223.832C54.0804 230.848 54.12 253.44 54.12 254.417H53.0376Z" fill="#318AD1"/>
<path d="M60.9642 230.545C60.9642 230.545 56.8854 232.049 58.08 235.62C59.2746 239.191 72.204 244.992 72.204 244.992C72.204 244.992 77.6094 240.035 72.6462 231.99C67.683 223.945 61.0764 228.004 60.9642 230.545Z" fill="#318AD1"/>
<path d="M48.2856 223.252C48.2856 223.252 51.1764 222.941 50.9256 221.179C50.6748 219.417 39.666 214.876 33.165 222.215C33.165 222.215 37.3296 229.37 43.3488 229.475C49.368 229.581 48.2856 223.252 48.2856 223.252Z" fill="#318AD1"/>
<path d="M45.309 235.039C45.309 235.039 47.289 233.422 45.1506 232.637C43.0122 231.851 32.4126 232.069 32.307 242.537C32.307 242.537 44.6292 244.583 46.167 240.59C47.7048 236.597 45.309 235.039 45.309 235.039Z" fill="#318AD1"/>
<path opacity="0.2" d="M60.9642 230.545C60.9642 230.545 56.8854 232.049 58.08 235.62C59.2746 239.191 72.204 244.992 72.204 244.992C72.204 244.992 77.6094 240.035 72.6462 231.99C67.683 223.945 61.0764 228.004 60.9642 230.545Z" fill="white"/>
<path opacity="0.2" d="M48.2856 223.252C48.2856 223.252 51.1764 222.941 50.9256 221.179C50.6748 219.417 39.666 214.876 33.165 222.215C33.165 222.215 37.3296 229.37 43.3488 229.475C49.368 229.581 48.2856 223.252 48.2856 223.252Z" fill="white"/>
<path opacity="0.2" d="M45.309 235.039C45.309 235.039 47.289 233.422 45.1506 232.637C43.0122 231.851 32.4126 232.069 32.307 242.537C32.307 242.537 44.6292 244.583 46.167 240.59C47.7048 236.597 45.309 235.039 45.309 235.039Z" fill="white"/>
<path d="M63.1554 275.352H44.0286L41.9694 254.417H65.2146L63.1554 275.352Z" fill="#318AD1"/>
<path opacity="0.5" d="M63.1554 275.352H44.0286L41.9694 254.417H65.2146L63.1554 275.352Z" fill="white"/>
<path d="M66.2376 252.107H40.9464V256.727H66.2376V252.107Z" fill="#318AD1"/>
<path opacity="0.2" d="M66.2376 252.107H40.9464V256.727H66.2376V252.107Z" fill="white"/>
<path d="M259.09 172.26H194.106C193.34 172.259 192.582 172.409 191.874 172.702C191.166 172.994 190.523 173.423 189.981 173.965C189.439 174.506 189.009 175.149 188.716 175.856C188.423 176.564 188.272 177.322 188.272 178.088L180.352 228.558H256.991L264.911 178.088C264.911 176.543 264.298 175.062 263.206 173.969C262.115 172.877 260.634 172.262 259.09 172.26Z" fill="#318AD1"/>
<path opacity="0.4" d="M259.09 172.26H194.106C193.34 172.259 192.582 172.409 191.874 172.702C191.166 172.994 190.523 173.423 189.981 173.965C189.439 174.506 189.009 175.149 188.716 175.856C188.423 176.564 188.272 177.322 188.272 178.088L180.352 228.558H256.991L264.911 178.088C264.911 176.543 264.298 175.062 263.206 173.969C262.115 172.877 260.634 172.262 259.09 172.26Z" fill="white"/>
<path opacity="0.2" d="M245.335 229.324H256.991L264.911 178.108C264.911 176.562 264.297 175.08 263.204 173.987C262.111 172.894 260.629 172.28 259.083 172.28C257.537 172.28 256.055 172.894 254.962 173.987C253.869 175.08 253.255 176.562 253.255 178.108L245.335 229.324Z" fill="black"/>
<path d="M177.923 204.996H150.295H149.998C148.112 204.996 146.304 205.745 144.97 207.078C143.636 208.41 142.885 210.218 142.883 212.104V275.352H184.615V212.091C184.641 210.27 183.957 208.511 182.707 207.187C181.458 205.862 179.742 205.077 177.923 204.996Z" fill="#318AD1"/>
<path opacity="0.5" d="M177.923 204.996H150.295H149.998C148.112 204.996 146.304 205.745 144.97 207.078C143.636 208.41 142.885 210.218 142.883 212.104V275.352H184.615V212.091C184.641 210.27 183.957 208.511 182.707 207.187C181.458 205.862 179.742 205.077 177.923 204.996Z" fill="white"/>
<path opacity="0.6" d="M149.998 204.983C148.112 204.983 146.304 205.732 144.97 207.064C143.636 208.397 142.885 210.205 142.883 212.091V275.352H157.113V212.091C157.111 210.205 156.361 208.397 155.027 207.064C153.693 205.732 151.884 204.983 149.998 204.983Z" fill="white"/>
<path d="M216.15 222.882H161.759V275.352H216.15V222.882Z" fill="#318AD1"/>
<path opacity="0.4" d="M216.15 222.882H161.759V275.352H216.15V222.882Z" fill="white"/>
<path d="M165.726 218.46H227.766V233.442H165.726C163.738 233.442 161.83 232.652 160.424 231.246C159.018 229.84 158.228 227.933 158.228 225.944C158.232 223.958 159.023 222.055 160.429 220.651C161.835 219.248 163.74 218.46 165.726 218.46Z" fill="#318AD1"/>
<path opacity="0.6" d="M165.726 218.46H227.766V233.442H165.726C163.738 233.442 161.83 232.652 160.424 231.246C159.018 229.84 158.228 227.933 158.228 225.944C158.232 223.958 159.023 222.055 160.429 220.651C161.835 219.248 163.74 218.46 165.726 218.46Z" fill="white"/>
<path d="M251.183 204.996H223.555H223.258C221.372 204.996 219.564 205.745 218.23 207.078C216.895 208.41 216.145 210.218 216.143 212.104V275.352H257.875V212.091C257.901 210.27 257.217 208.511 255.967 207.187C254.718 205.862 253.002 205.077 251.183 204.996Z" fill="#318AD1"/>
<path opacity="0.5" d="M251.183 204.996H223.555H223.258C221.372 204.996 219.564 205.745 218.23 207.078C216.895 208.41 216.145 210.218 216.143 212.104V275.352H257.875V212.091C257.901 210.27 257.217 208.511 255.967 207.187C254.718 205.862 253.002 205.077 251.183 204.996Z" fill="white"/>
<path opacity="0.6" d="M223.258 204.983C221.372 204.983 219.564 205.732 218.23 207.064C216.895 208.397 216.145 210.205 216.143 212.091V275.352H230.373V212.091C230.371 210.205 229.621 208.397 228.287 207.064C226.953 205.732 225.144 204.983 223.258 204.983Z" fill="white"/>
<path d="M289.456 207.392H240.418V275.352H289.456V207.392Z" fill="#318AD1"/>
<path opacity="0.2" d="M289.463 207.392H274.415V275.352H289.463V207.392Z" fill="black"/>
<path opacity="0.2" d="M271.062 209.821H242.86V220.427H271.062V209.821Z" fill="white"/>
<path opacity="0.2" d="M271.062 223.021H242.86V233.627H271.062V223.021Z" fill="white"/>
<path opacity="0.2" d="M271.062 236.221H242.86V264.423H271.062V236.221Z" fill="white"/>
<path opacity="0.2" d="M256.238 212.982C256.854 212.982 257.354 212.483 257.354 211.867C257.354 211.251 256.854 210.751 256.238 210.751C255.622 210.751 255.123 211.251 255.123 211.867C255.123 212.483 255.622 212.982 256.238 212.982Z" fill="black"/>
<path opacity="0.2" d="M256.238 225.713C256.854 225.713 257.354 225.214 257.354 224.598C257.354 223.982 256.854 223.483 256.238 223.483C255.622 223.483 255.123 223.982 255.123 224.598C255.123 225.214 255.622 225.713 256.238 225.713Z" fill="black"/>
<path opacity="0.2" d="M245.335 250.318C245.347 250.471 245.327 250.626 245.277 250.771C245.226 250.916 245.146 251.049 245.042 251.162C244.937 251.275 244.811 251.365 244.67 251.426C244.529 251.488 244.377 251.519 244.223 251.519C244.069 251.519 243.917 251.488 243.777 251.426C243.636 251.365 243.509 251.275 243.405 251.162C243.3 251.049 243.22 250.916 243.17 250.771C243.119 250.626 243.099 250.471 243.111 250.318C243.133 250.038 243.259 249.776 243.465 249.586C243.672 249.395 243.942 249.289 244.223 249.289C244.504 249.289 244.775 249.395 244.981 249.586C245.187 249.776 245.314 250.038 245.335 250.318Z" fill="black"/>
<path d="M271.933 165.106H268.765V207.385H271.933V165.106Z" fill="#263238"/>
<path d="M253.427 179.639H287.278L284.539 155.681H256.166L253.427 179.639Z" fill="#318AD1"/>
<g opacity="0.6">
<path d="M253.427 179.639H287.278L284.539 155.681H256.166L253.427 179.639Z" fill="white"/>
</g>
<path opacity="0.2" d="M268.765 189.282V207.392H271.94V187.302L268.765 189.282Z" fill="white"/>
<path d="M275.9 205.531H264.805L262.825 207.392H277.88L275.9 205.531Z" fill="#318AD1"/>
<path opacity="0.2" d="M275.9 205.531H264.805L262.825 207.392H277.88L275.9 205.531Z" fill="white"/>
<path d="M91.74 107.039C90.877 106.506 89.8457 106.315 88.8492 106.504C86.0244 107.039 85.3512 109.804 85.7274 111.857C85.8901 112.689 86.2738 113.462 86.8382 114.095C87.4025 114.728 88.1268 115.197 88.935 115.454C91.1592 116.015 93.1194 113.956 93.6936 112.411C94.0579 111.429 94.0614 110.35 93.7036 109.366C93.3457 108.382 92.6498 107.557 91.74 107.039Z" fill="#263238"/>
<path d="M141.537 137.385L152.698 134.257C152.698 134.257 152.698 133.597 154.433 132.363C156.169 131.129 160.816 130.158 160.816 130.158C160.816 130.158 162.954 136.343 162.261 136.514C161.568 136.686 155.305 138.778 154.955 138.085L143.075 141.444L141.537 137.385Z" fill="#B97964"/>
<path d="M107.534 124.489C114.048 126.594 124.192 138.085 126.172 138.778C128.152 139.471 147.107 135.372 147.107 135.372L149.747 140.25C149.747 140.25 132.35 146.546 126.152 146.058C119.955 145.569 111.87 136.382 106.075 135.056L107.534 124.489Z" fill="#318AD1"/>
<path opacity="0.5" d="M149.767 140.25C149.767 140.25 132.37 146.546 126.172 146.058C122.166 145.741 117.381 141.801 112.972 138.692C110.524 136.989 108.181 135.531 106.128 135.056L106.88 129.525L107.54 124.489C114.055 126.594 124.199 138.078 126.179 138.778C128.159 139.478 147.114 135.372 147.114 135.372L149.767 140.25Z" fill="white"/>
<path opacity="0.2" d="M112.939 138.692C110.491 136.99 108.148 135.531 106.095 135.056L106.847 129.525C108.715 131.34 111.593 134.64 112.939 138.692Z" fill="black"/>
<path d="M117.13 266.211L112.728 266.983L110.926 260.99L109.283 255.492L114.352 253.724L115.823 260.33L117.13 266.211Z" fill="#E4897B"/>
<path d="M111.738 266.871C111.665 266.382 117.678 265.716 117.678 265.716C117.678 265.716 122.001 268.791 125.71 269.016C129.419 269.24 127.802 271.709 123.823 272.415L113.989 274.151C111.164 274.632 112.51 271.92 111.738 266.871Z" fill="#263238"/>
<path d="M120.648 266.719C119.917 266.685 119.193 266.566 118.49 266.363C118.472 266.366 118.454 266.366 118.437 266.363C118.419 266.353 118.405 266.336 118.397 266.316C118.397 266.316 118.397 266.316 118.397 266.277C118.394 266.253 118.394 266.228 118.397 266.204C118.397 266.138 118.668 264.66 119.414 264.185C119.526 264.11 119.654 264.061 119.787 264.042C119.921 264.022 120.057 264.033 120.186 264.072C120.483 264.152 120.641 264.297 120.668 264.501C120.707 264.818 120.338 265.208 119.896 265.551C120.331 265.393 120.802 265.361 121.255 265.458C121.341 265.487 121.419 265.533 121.486 265.593C121.553 265.653 121.607 265.726 121.645 265.808C121.71 265.906 121.745 266.021 121.745 266.138C121.745 266.256 121.71 266.371 121.645 266.468C121.505 266.577 121.344 266.655 121.173 266.698C121.001 266.741 120.822 266.748 120.648 266.719ZM119.018 266.171C119.955 266.389 121.103 266.521 121.348 266.244C121.348 266.244 121.433 266.145 121.348 265.92C121.329 265.877 121.301 265.839 121.266 265.808C121.23 265.777 121.188 265.755 121.143 265.742C120.655 265.571 119.658 265.901 119.018 266.171ZM119.896 264.33C119.775 264.329 119.658 264.366 119.559 264.435C119.143 264.823 118.863 265.335 118.76 265.894C119.585 265.406 120.358 264.792 120.325 264.521C120.325 264.435 120.166 264.383 120.074 264.356C120.016 264.341 119.956 264.332 119.896 264.33Z" fill="#318AD1"/>
<path opacity="0.2" d="M115.85 260.469L110.946 261.116L109.296 255.552L114.358 253.75L115.85 260.469Z" fill="black"/>
<path d="M87.78 268.092H83.3118L82.5792 261.881L81.9192 256.172L87.219 255.314L87.516 262.079L87.78 268.092Z" fill="#E4897B"/>
<path d="M82.3548 267.808C82.3548 267.313 88.4136 267.702 88.4136 267.702C88.4136 267.702 92.136 271.484 95.7462 272.322C99.3564 273.161 97.3434 275.339 93.3042 275.339H83.3118C80.4408 275.352 82.236 272.91 82.3548 267.808Z" fill="#263238"/>
<path d="M91.5948 269.28C90.7228 269.172 89.8762 268.913 89.0934 268.514C89.07 268.507 89.0493 268.494 89.034 268.475V268.442C89.0175 268.402 89.0175 268.356 89.034 268.316C89.034 268.257 89.562 266.844 90.354 266.508C90.4759 266.451 90.6088 266.421 90.7434 266.421C90.878 266.421 91.0109 266.451 91.1328 266.508C91.41 266.64 91.542 266.811 91.5288 267.016C91.5288 267.333 91.08 267.676 90.5916 267.914C91.0372 267.844 91.4935 267.896 91.9116 268.065C91.992 268.106 92.0625 268.164 92.1184 268.234C92.1742 268.305 92.214 268.387 92.235 268.475C92.2847 268.586 92.2975 268.71 92.2713 268.829C92.2452 268.947 92.1815 269.055 92.0898 269.135C91.9448 269.235 91.7711 269.286 91.5948 269.28ZM89.6148 268.415C90.5058 268.791 91.5948 269.128 91.8984 268.89C91.8984 268.89 92.004 268.811 91.938 268.574C91.9278 268.528 91.907 268.484 91.8772 268.448C91.8474 268.411 91.8095 268.382 91.7664 268.362C91.3572 268.079 90.321 268.23 89.6412 268.382L89.6148 268.415ZM90.6972 266.752C90.6136 266.752 90.5307 266.768 90.453 266.798C89.9758 267.117 89.6128 267.579 89.4168 268.118C90.3144 267.782 91.179 267.306 91.1922 267.036C91.1922 266.957 91.0602 266.877 90.9744 266.838C90.9011 266.779 90.8153 266.739 90.7236 266.719L90.6972 266.752Z" fill="#318AD1"/>
<path opacity="0.2" d="M87.516 262.218L82.5792 262L81.9192 256.238L87.219 255.341L87.516 262.218Z" fill="black"/>
<path d="M116.259 256.977L108.999 258.251C101.739 240.081 96.5184 224.915 92.8554 212.328C90.8754 205.537 89.3442 199.498 88.1628 194.139L88.4928 213.939V258.852H81.18C63.327 173.712 75.9792 154.255 75.9792 154.255L97.3368 150.605C98.1819 154.548 98.7793 158.54 99.1254 162.558L100.089 169.62L108.438 212.731L116.259 256.977Z" fill="#318AD1"/>
<path opacity="0.5" d="M116.259 256.977L108.999 258.251C101.739 240.081 96.5184 224.915 92.8554 212.328C90.8754 205.537 89.3442 199.498 88.1628 194.139L88.4928 213.939V258.852H81.18C63.327 173.712 75.9792 154.255 75.9792 154.255L97.3368 150.605C98.1819 154.548 98.7793 158.54 99.1254 162.558L100.089 169.62L108.438 212.731L116.259 256.977Z" fill="white"/>
<path d="M107.903 257.36L116.866 254.39L116.741 258.199L109.329 260.568L107.903 257.36Z" fill="#318AD1"/>
<path d="M80.2296 257.776L89.5752 256.41L88.7898 260.139L81.081 261.182L80.2296 257.776Z" fill="#318AD1"/>
<path opacity="0.2" d="M92.8884 212.329C90.9084 205.537 89.3772 199.498 88.1958 194.139C88.2961 187.795 88.7567 181.462 89.5752 175.171C89.5752 175.171 92.7036 199.637 92.8884 212.329Z" fill="black"/>
<path d="M100.861 166.98L91.74 170.069L90.0504 164.518L88.2024 169.633L71.643 165.779C73.062 155.615 78.7314 147.503 79.6224 144.428C80.85 140.177 81.8136 132.046 80.9754 126.786V126.72C80.8919 126.189 80.9187 125.647 81.0543 125.127C81.1898 124.607 81.4311 124.121 81.7631 123.698C82.0951 123.276 82.5107 122.926 82.9838 122.672C83.457 122.417 83.9775 122.263 84.513 122.219C86.1102 122.093 87.7206 122.034 89.331 122.027C92.5236 121.99 95.7149 122.177 98.8812 122.588C102.947 123.248 107.547 124.463 107.547 124.463C107.547 124.463 108.207 124.733 107.89 129.083C107.62 132.904 106.887 144.778 99.0726 154.823L100.861 166.98Z" fill="#318AD1"/>
<path opacity="0.6" d="M100.861 166.98L91.74 170.069L90.0504 164.518L88.2024 169.633L71.643 165.779C73.062 155.615 78.7314 147.503 79.6224 144.428C80.85 140.177 81.8136 132.046 80.9754 126.786V126.72C80.8919 126.189 80.9187 125.647 81.0543 125.127C81.1898 124.607 81.4311 124.121 81.7631 123.698C82.0951 123.276 82.5107 122.926 82.9838 122.672C83.457 122.417 83.9775 122.263 84.513 122.219C86.1102 122.093 87.7206 122.034 89.331 122.027C92.5236 121.99 95.7149 122.177 98.8812 122.588C102.947 123.248 107.547 124.463 107.547 124.463C107.547 124.463 108.207 124.733 107.89 129.083C107.62 132.904 106.887 144.778 99.0726 154.823L100.861 166.98Z" fill="white"/>
<path d="M91.575 130.159C91.575 130.159 95.2182 133.32 96.2808 141.445L100.393 130.086L103.217 130.951C103.217 130.951 101.039 120.648 93.9774 120.457C86.9154 120.265 87.4434 130.951 87.4434 130.951L91.575 130.159Z" fill="#318AD1"/>
<path opacity="0.5" d="M91.575 130.159C91.575 130.159 95.2182 133.32 96.2808 141.445L100.393 130.086L103.217 130.951C103.217 130.951 101.039 120.648 93.9774 120.457C86.9154 120.265 87.4434 130.951 87.4434 130.951L91.575 130.159Z" fill="white"/>
<path d="M101.818 118.576C101.818 118.576 99.231 120.245 98.7822 121.354C98.7543 121.423 98.7323 121.493 98.7162 121.565C98.5927 122.195 98.5067 122.832 98.4588 123.473C100.439 127.73 96.6438 135.056 96.6438 135.056C95.099 130.727 92.912 126.656 90.156 122.978C94.3074 121.354 95.0994 113.395 95.0994 113.395L97.0794 114.946L101.818 118.576Z" fill="#B97964"/>
<path opacity="0.2" d="M101.818 118.576C101.818 118.576 99.231 120.245 98.7822 121.354C98.7543 121.423 98.7322 121.493 98.7162 121.565C97.6202 120.729 96.7462 119.636 96.1708 118.383C95.5955 117.13 95.3363 115.754 95.4162 114.378L97.0992 114.946L101.818 118.576Z" fill="black"/>
<path d="M104.689 99.9174C104.689 99.9174 109.923 98.4522 112.457 102.676C114.992 106.9 112.966 110.101 111.203 111.626" stroke="#263238" stroke-width="0.488465" stroke-linecap="round" stroke-linejoin="round"/>
<path d="M106.775 99.66C106.775 99.66 111.038 99.792 112.22 103.396C113.401 106.999 112.523 111.045 106.194 115.401C103.099 117.533 95.4096 113.368 95.4096 113.368L94.7958 115.229C93.7683 114.485 92.8352 113.619 92.0172 112.649C89.529 109.732 90.1692 100.069 97.0728 98.175C104.28 96.228 106.775 99.66 106.775 99.66Z" fill="#263238"/>
<path d="M102.709 100.894C108.128 101.627 109.481 104.768 109.118 110.411C108.662 117.453 106.438 122.205 99.8778 119.79C90.9348 116.51 93.72 99.6599 102.709 100.894Z" fill="#B97964"/>
<path d="M105.653 109.626C105.978 110.494 106.405 111.321 106.927 112.088C106.737 112.292 106.495 112.439 106.227 112.514C105.959 112.588 105.676 112.587 105.409 112.51L105.653 109.626Z" fill="#A24E3F"/>
<path d="M102.399 108.735C102.346 109.177 102.062 109.514 101.739 109.481C101.416 109.448 101.244 109.058 101.29 108.609C101.336 108.161 101.627 107.831 101.95 107.864C102.274 107.897 102.445 108.286 102.399 108.735Z" fill="#263238"/>
<path d="M101.825 107.87L102.835 107.6C102.835 107.6 102.26 108.365 101.825 107.87Z" fill="#263238"/>
<path d="M107.956 109.263C107.91 109.712 107.626 110.048 107.329 110.015C107.032 109.982 106.828 109.593 106.88 109.144C106.933 108.695 107.21 108.359 107.54 108.398C107.87 108.438 108.009 108.821 107.956 109.263Z" fill="#263238"/>
<path d="M107.382 108.405L108.398 108.134C108.398 108.134 107.824 108.9 107.382 108.405Z" fill="#263238"/>
<path d="M102.854 104.986C102.434 104.874 101.993 104.861 101.566 104.947C101.139 105.032 100.737 105.215 100.393 105.481" stroke="#263238" stroke-width="0.707962" stroke-linecap="round" stroke-linejoin="round"/>
<path d="M106.821 105.29C107.204 105.246 107.592 105.29 107.955 105.418C108.319 105.546 108.649 105.755 108.92 106.029" stroke="#263238" stroke-width="0.707962" stroke-linecap="round" stroke-linejoin="round"/>
<path d="M95.5416 109.217C95.5416 109.217 98.6832 105.112 98.769 101.62C98.769 101.62 110.108 98.6964 109.151 109.672C109.151 109.672 111.52 100.135 102.234 98.6502C92.9478 97.1652 90.8028 109.956 95.04 114.675C95.04 114.675 93.5946 111.791 95.5416 109.217Z" fill="#263238"/>
<path d="M96.2742 110.484C96.3049 109.85 96.0843 109.23 95.6605 108.758C95.2366 108.286 94.6437 108 94.0104 107.963C92.3076 107.916 91.0338 111.263 95.0994 112.655C95.7 112.86 96.1026 112.312 96.2742 110.484Z" fill="#B97964"/>
<path d="M105.118 114.127C104.891 114.773 104.71 115.435 104.577 116.107H104.214C102.577 116.028 101.845 115.447 101.528 114.84C101.377 114.537 101.302 114.202 101.31 113.863C101.309 113.672 101.333 113.481 101.383 113.296C102.373 113.79 103.458 114.066 104.564 114.107C104.94 114.127 105.118 114.127 105.118 114.127Z" fill="#263238"/>
<path d="M104.564 114.094L104.386 114.675C102.848 114.596 101.746 114.338 101.31 113.85C101.309 113.658 101.333 113.467 101.383 113.282C102.373 113.776 103.458 114.053 104.564 114.094Z" fill="white"/>
<path d="M104.214 116.094C102.577 116.015 101.845 115.434 101.528 114.827C102.148 114.866 102.756 115.016 103.323 115.269C103.699 115.444 104.011 115.732 104.214 116.094Z" fill="#DE5753"/>
<path d="M90.684 106.029L91.08 97.594L89.595 95.2643C93.4487 93.8508 97.6212 93.5444 101.64 94.3799L106.795 99.6599C106.795 99.6599 96.8286 97.2112 90.684 106.029Z" fill="#318AD1"/>
<path opacity="0.6" d="M106.775 99.6599C103.02 98.9068 99.1202 99.493 95.7528 101.317C93.727 102.47 91.9929 104.073 90.684 106.003L91.08 97.5677L89.595 95.2379C93.4512 93.8333 97.6236 93.536 101.64 94.3799L106.775 99.6599Z" fill="white"/>
<path opacity="0.1" d="M95.7528 101.343C93.727 102.497 91.9929 104.1 90.684 106.029L91.08 97.5942L89.595 95.2644L95.7528 101.343Z" fill="black"/>
<path d="M116.16 160.499L123.42 162.175C125.232 162.283 127.027 162.589 128.773 163.086C131.518 163.891 134.488 165.066 134.053 165.779C133.617 166.492 128.865 170.313 127.347 170.069C125.829 169.825 121.559 167.429 122.067 166.241L114.979 164.518L116.16 160.499Z" fill="#B97964"/>
<path d="M82.962 122.694C85.5624 121.935 90.6114 146.454 94.3338 150.605C98.0562 154.757 120.496 160.868 120.496 160.868L119.361 165.779C119.361 165.779 91.8522 162.433 88.1958 157.199C84.5394 151.965 79.4508 137.94 78.804 130.951C78.1572 123.961 81.4308 123.149 82.962 122.694Z" fill="#318AD1"/>
<path opacity="0.5" d="M82.962 122.694C85.5624 121.935 90.6114 146.454 94.3338 150.605C98.0562 154.757 120.496 160.868 120.496 160.868L119.361 165.779C119.361 165.779 91.8522 162.433 88.1958 157.199C84.5394 151.965 79.4508 137.94 78.804 130.951C78.1572 123.961 81.4308 123.149 82.962 122.694Z" fill="white"/>
<path d="M106.498 143.418L99.2508 142.93L99.7656 138.884L107.019 139.372L106.498 143.418Z" fill="#318AD1"/>
<path opacity="0.5" d="M106.115 143.101L99.8712 142.679L100.32 139.2L106.557 139.623L106.115 143.101Z" fill="white"/>
<path d="M103.607 137.781L102.907 139.735H104.075V137.781H103.607Z" fill="#263238"/>
<path d="M125.558 166.234L118.8 167.508C118.8 167.508 111.731 165.964 110.504 166.234C109.276 166.505 106.095 172.742 106.095 172.742C106.095 172.742 116.952 175.111 118.338 174.649C119.724 174.187 120.872 172.385 120.872 172.385L126.152 171.409L125.558 166.234Z" fill="#E4897B"/>
<path d="M139.352 134.244C136.158 139.042 140.798 158.506 141.088 159.74C141.379 160.974 122.054 166.201 122.054 166.201L124.839 174.722C124.839 174.722 148.922 171.943 151.595 169.072C154.268 166.201 151.259 142.599 151.259 142.599L139.379 134.244H139.352Z" fill="#318AD1"/>
<path opacity="0.4" d="M151.595 169.072C149.318 171.521 131.472 173.903 126.265 174.55L124.839 174.722L122.054 166.201L123.321 165.851C127.618 164.663 141.332 160.783 141.088 159.74C140.798 158.506 136.158 139.042 139.352 134.244L141.418 135.115L148.256 140.316L151.259 142.599C151.259 142.599 152.46 151.8 152.658 159.37C152.797 163.97 152.599 167.99 151.595 169.072Z" fill="black"/>
<path opacity="0.1" d="M126.265 174.55L124.839 174.722L122.054 166.201L123.321 165.851L126.265 174.55Z" fill="black"/>
<path opacity="0.2" d="M152.658 159.37C148.698 153.028 148.309 146.078 148.256 140.316L151.259 142.6C151.259 142.6 152.46 151.8 152.658 159.37Z" fill="black"/>
<path d="M96.0102 275.339L100.63 200.013H138.032L142.652 275.339H145.952L139.973 178.51C139.829 176.309 138.86 174.242 137.26 172.723C135.66 171.204 133.546 170.343 131.34 170.313H107.448C105.223 170.318 103.083 171.168 101.461 172.691C99.8385 174.214 98.8551 176.296 98.7096 178.517L92.7696 275.339H96.0102ZM101.95 178.721C102.041 177.338 102.653 176.041 103.664 175.092C104.675 174.144 106.009 173.615 107.395 173.613H131.34C132.724 173.617 134.055 174.145 135.065 175.092C136.074 176.039 136.686 177.334 136.778 178.715L137.887 196.713H100.861L101.95 178.721Z" fill="#318AD1"/>
<path d="M165.066 270.342L159.905 271.847L156.862 260.673L162.023 259.162L165.066 270.342Z" fill="#B97964"/>
<path d="M159.344 269.451H165.66C165.763 269.452 165.863 269.488 165.943 269.552C166.024 269.617 166.08 269.707 166.102 269.808L167.125 274.428C167.166 274.626 167.128 274.833 167.018 275.004C166.908 275.174 166.736 275.294 166.538 275.339C166.481 275.345 166.423 275.345 166.366 275.339C164.327 275.306 162.848 275.18 160.288 275.18C158.71 275.18 153.958 275.345 151.78 275.345C149.602 275.345 149.318 273.2 150.209 273.002C154.209 272.131 157.212 270.923 158.492 269.775C158.725 269.564 159.029 269.448 159.344 269.451Z" fill="#263238"/>
<path opacity="0.2" d="M162.023 259.162L156.862 260.673L158.433 266.435L163.601 264.931L162.023 259.162Z" fill="black"/>
<path d="M181.85 163.396C183.259 170.508 183.846 177.759 183.599 185.005C183.137 196.627 156.869 211.055 156.367 215.114C155.866 219.173 164.452 261.617 164.452 261.617L155.39 264.838C155.39 264.838 137.485 226.413 137.28 217.008C137.075 207.603 156.869 185.005 162.268 178.774C164.366 176.352 162.301 166.604 162.301 166.604L181.85 163.396Z" fill="#263238"/>
<path opacity="0.3" d="M183.599 185.005C183.434 189.209 179.89 193.776 175.408 198.092C168.3 204.97 158.75 211.2 156.743 214.249C156.554 214.505 156.426 214.801 156.367 215.114C155.872 219.179 164.452 261.617 164.452 261.617L155.39 264.832C155.39 264.832 137.485 226.413 137.28 217.008C137.075 207.603 156.869 185.005 162.268 178.774C164.366 176.352 162.301 166.604 162.301 166.604L181.856 163.39C183.263 170.504 183.848 177.757 183.599 185.005Z" fill="white"/>
<path d="M154.829 266.422L165.865 262.68L164.954 259.604L153.43 263.287L154.829 266.422Z" fill="#318AD1"/>
<path opacity="0.6" d="M154.829 266.422L165.865 262.68L164.954 259.604L153.43 263.287L154.829 266.422Z" fill="white"/>
<path opacity="0.2" d="M175.408 198.092C168.3 204.97 158.75 211.2 156.743 214.249C157.126 200.581 173.626 186.034 173.626 186.034L175.408 198.092Z" fill="black"/>
<path d="M190.06 270.342L184.899 271.847L181.85 260.673L187.018 259.162L190.06 270.342Z" fill="#B97964"/>
<path d="M184.338 269.452H190.634C190.738 269.452 190.838 269.488 190.918 269.552C190.998 269.617 191.054 269.707 191.077 269.808L192.1 274.428C192.141 274.627 192.101 274.835 191.99 275.006C191.879 275.176 191.705 275.296 191.506 275.339C191.451 275.345 191.395 275.345 191.341 275.339C189.301 275.306 187.816 275.18 185.262 275.18C183.685 275.18 178.926 275.345 176.755 275.345C174.583 275.345 174.293 273.2 175.184 273.002C179.177 272.131 182.186 270.923 183.467 269.775C183.705 269.559 184.017 269.443 184.338 269.452Z" fill="#263238"/>
<path opacity="0.2" d="M187.018 259.162L181.85 260.673L183.427 266.435L188.588 264.931L187.018 259.162Z" fill="black"/>
<path d="M192.113 161.04C195.044 167.712 196.466 174.948 196.277 182.233C195.815 193.849 181.863 211.048 181.361 215.107C180.86 219.166 189.42 261.617 189.42 261.617L180.352 264.838C180.352 264.838 162.446 226.413 162.235 217.008C162.023 207.603 173.6 186.034 173.6 186.034L171.191 164.65L192.113 161.04Z" fill="#263238"/>
<path opacity="0.3" d="M192.113 161.04C195.044 167.712 196.466 174.948 196.277 182.233C195.815 193.849 181.863 211.048 181.361 215.107C180.86 219.166 189.42 261.617 189.42 261.617L180.352 264.838C180.352 264.838 162.446 226.413 162.235 217.008C162.023 207.603 173.6 186.034 173.6 186.034L171.191 164.65L192.113 161.04Z" fill="white"/>
<path d="M179.817 266.422L190.859 262.68L189.941 259.604L178.424 263.287L179.817 266.422Z" fill="#318AD1"/>
<path opacity="0.6" d="M179.817 266.422L190.859 262.68L189.941 259.604L178.424 263.287L179.817 266.422Z" fill="white"/>
<path d="M196.31 174.709C196.31 174.709 164.815 179.461 161.687 176.933C157.067 173.211 151.965 142.072 139.352 134.244C140.65 132.164 142.226 130.272 144.038 128.621C147.948 124.931 152.675 122.217 157.832 120.701C161.756 119.566 165.834 119.051 169.917 119.176C169.917 119.176 194.641 136.746 196.31 174.709Z" fill="#318AD1"/>
<path opacity="0.3" d="M196.31 174.709C196.31 174.709 164.815 179.461 161.687 176.933C161.347 176.642 161.053 176.302 160.816 175.923C156.407 169.409 151.18 141.603 139.352 134.244C140.65 132.164 142.226 130.272 144.038 128.621L144.566 128.133C148.375 124.697 152.91 122.163 157.832 120.721C158.09 120.642 158.354 120.569 158.618 120.503C162.3 119.514 166.106 119.069 169.917 119.183C169.917 119.183 175.428 123.097 181.421 131.221C185.01 136.101 187.996 141.398 190.311 146.995C193.551 154.887 195.514 163.243 196.126 171.752C196.205 172.735 196.264 173.712 196.31 174.709Z" fill="black"/>
<path opacity="0.1" d="M158.618 120.503C157.622 125.601 156.119 130.587 154.13 135.386C154.13 135.386 147.668 132.996 144.566 128.126C148.375 124.69 152.91 122.157 157.832 120.714C158.09 120.641 158.354 120.569 158.618 120.503Z" fill="black"/>
<path opacity="0.1" d="M196.31 174.708C196.31 174.708 164.815 179.46 161.687 176.933C161.347 176.642 161.053 176.302 160.816 175.923C172.724 176.224 184.613 174.824 196.126 171.765C196.205 172.735 196.264 173.712 196.31 174.708Z" fill="black"/>
<path opacity="0.2" d="M190.311 147.008C179.269 144.098 173.527 131.677 173.527 131.677L181.447 131.234C185.028 136.115 188.004 141.412 190.311 147.008Z" fill="black"/>
<path d="M157.08 121.183C155.166 128.165 152.387 129.367 150.209 128.957C148.919 128.633 147.749 127.946 146.837 126.977C147.062 126.561 147.167 126.09 147.14 125.618C147.097 125.101 146.939 124.601 146.678 124.153C146.416 123.705 146.058 123.322 145.629 123.031C145.21 122.707 144.769 122.414 144.309 122.153L144.448 120.358L145.108 111.837C146.321 113.693 147.669 115.458 149.14 117.117C149.635 117.658 150.157 118.186 150.691 118.668C152.691 120.496 154.922 121.717 157.08 121.183Z" fill="#E4897B"/>
<path opacity="0.2" d="M150.203 128.957C148.913 128.633 147.742 127.946 146.83 126.977C147.056 126.561 147.161 126.09 147.134 125.618C147.091 125.101 146.932 124.601 146.671 124.153C146.409 123.705 146.051 123.322 145.622 123.031C145.204 122.707 144.762 122.414 144.302 122.153L144.441 120.358L150.691 118.655C150.691 118.655 152.255 124.912 150.203 128.957Z" fill="black"/>
<path d="M134.587 111.494C134.587 111.494 132.719 111.296 132.416 113.725C132.112 116.153 132.937 116.2 132.937 116.2C132.937 116.2 132.277 118.232 133.096 118.807C133.914 119.381 134.587 121.81 134.587 121.81L136.435 118.417L134.587 111.494Z" fill="#263238"/>
<path opacity="0.6" d="M134.587 111.494C134.587 111.494 132.719 111.296 132.416 113.725C132.112 116.153 132.937 116.2 132.937 116.2C132.937 116.2 132.277 118.232 133.096 118.807C133.914 119.381 134.587 121.81 134.587 121.81L136.435 118.417L134.587 111.494Z" fill="white"/>
<path d="M149.015 123.968C148.884 124.241 148.736 124.505 148.573 124.76C147.787 126.089 146.586 127.122 145.154 127.699C143.722 128.277 142.14 128.366 140.653 127.954C138.715 127.466 137.039 126.254 135.967 124.568C135.81 124.338 135.669 124.098 135.544 123.849C135.3 123.347 135.056 122.8 134.838 122.212C133.069 117.48 131.234 110.992 136.957 107.573C140.56 105.402 146.612 105.131 148.771 108.755C149.561 110.076 150.071 111.547 150.268 113.074C150.466 114.601 150.347 116.153 149.919 117.632C150.249 119.493 150.572 120.839 149.015 123.968Z" fill="#E4897B"/>
<path d="M151.384 113.197C151.384 113.197 152.341 113.15 151.952 111.877C151.562 110.603 149.926 109.771 149.926 109.771C149.926 109.771 151.246 108.9 149.516 108.075C148.633 107.671 147.631 107.61 146.705 107.903C146.131 107.422 141.088 103.376 137.663 105.785C137.632 105.811 137.613 105.848 137.608 105.888C137.603 105.928 137.612 105.969 137.635 106.002C137.658 106.035 137.692 106.059 137.731 106.069C137.77 106.079 137.812 106.074 137.848 106.055C140.837 103.957 145.345 107.25 146.335 108.035L146.084 108.154C145.055 107.692 137.471 104.438 134.924 108.26C134.911 108.278 134.903 108.298 134.898 108.32C134.894 108.341 134.894 108.363 134.898 108.385C134.903 108.407 134.911 108.427 134.924 108.445C134.936 108.463 134.952 108.479 134.97 108.491C134.988 108.503 135.007 108.511 135.028 108.516C135.049 108.52 135.071 108.52 135.092 108.516C135.113 108.511 135.133 108.503 135.151 108.491C135.168 108.478 135.183 108.463 135.194 108.445C137.432 105.092 144.157 107.692 145.721 108.359C145.551 108.464 145.39 108.583 145.24 108.715C143.669 108.286 138.692 107.111 135.709 108.715C135.201 108.98 134.754 109.349 134.398 109.799C134.043 110.248 133.785 110.767 133.643 111.322C133.637 111.343 133.636 111.364 133.638 111.385C133.64 111.406 133.647 111.427 133.658 111.445C133.668 111.463 133.682 111.48 133.699 111.493C133.716 111.505 133.735 111.515 133.756 111.52H133.802C133.837 111.52 133.872 111.509 133.901 111.487C133.929 111.466 133.95 111.436 133.96 111.401C134.093 110.89 134.331 110.412 134.659 109.998C134.988 109.584 135.399 109.244 135.868 108.999C138.593 107.514 143.246 108.511 144.962 108.959C144.687 109.271 144.464 109.626 144.302 110.009C143.398 112.187 144.863 113.012 145.82 114.107C146.777 115.203 146.335 117.011 146.322 117.071C145.867 118.136 145.177 119.083 144.302 119.843C143.691 119.594 143.006 119.594 142.395 119.843C141.566 120.221 140.903 120.887 140.527 121.717C137.63 121.414 137.161 123.783 137.161 123.783C135.893 122.855 134.882 121.62 134.224 120.193C133.934 122.833 134.884 125.591 135.815 126.72C136.745 127.849 137.207 126.72 137.207 126.72C137.207 126.72 137.425 128.938 138.666 129.769C139.907 130.601 140.342 129.591 140.342 129.591C140.342 129.591 141.002 130.984 143.345 131.571C145.688 132.158 146.434 128.786 146.434 128.786C149.002 130.766 148.784 126.086 148.784 126.086C148.784 126.086 150.044 126.436 149.926 124.153C149.827 122.371 148.243 118.925 147.543 117.48C148.586 117.315 150.183 119.698 150.183 119.698C154.691 120.12 151.384 113.197 151.384 113.197Z" fill="#263238"/>
<path opacity="0.6" d="M151.384 113.197C151.384 113.197 152.341 113.15 151.952 111.877C151.562 110.603 149.926 109.771 149.926 109.771C149.926 109.771 151.246 108.9 149.516 108.075C148.633 107.671 147.631 107.61 146.705 107.903C146.131 107.422 141.088 103.376 137.663 105.785C137.632 105.811 137.613 105.848 137.608 105.888C137.603 105.928 137.612 105.969 137.635 106.002C137.658 106.035 137.692 106.059 137.731 106.069C137.77 106.079 137.812 106.074 137.848 106.055C140.837 103.957 145.345 107.25 146.335 108.035L146.084 108.154C145.055 107.692 137.471 104.438 134.924 108.26C134.911 108.278 134.903 108.298 134.898 108.32C134.894 108.341 134.894 108.363 134.898 108.385C134.903 108.407 134.911 108.427 134.924 108.445C134.936 108.463 134.952 108.479 134.97 108.491C134.988 108.503 135.007 108.511 135.028 108.516C135.049 108.52 135.071 108.52 135.092 108.516C135.113 108.511 135.133 108.503 135.151 108.491C135.168 108.478 135.183 108.463 135.194 108.445C137.432 105.092 144.157 107.692 145.721 108.359C145.551 108.464 145.39 108.583 145.24 108.715C143.669 108.286 138.692 107.111 135.709 108.715C135.201 108.98 134.754 109.349 134.398 109.799C134.043 110.248 133.785 110.767 133.643 111.322C133.637 111.343 133.636 111.364 133.638 111.385C133.64 111.406 133.647 111.427 133.658 111.445C133.668 111.463 133.682 111.48 133.699 111.493C133.716 111.505 133.735 111.515 133.756 111.52H133.802C133.837 111.52 133.872 111.509 133.901 111.487C133.929 111.466 133.95 111.436 133.96 111.401C134.093 110.89 134.331 110.412 134.659 109.998C134.988 109.584 135.399 109.244 135.868 108.999C138.593 107.514 143.246 108.511 144.962 108.959C144.687 109.271 144.464 109.626 144.302 110.009C143.398 112.187 144.863 113.012 145.82 114.107C146.777 115.203 146.335 117.011 146.322 117.071C145.867 118.136 145.177 119.083 144.302 119.843C143.691 119.594 143.006 119.594 142.395 119.843C141.566 120.221 140.903 120.887 140.527 121.717C137.63 121.414 137.161 123.783 137.161 123.783C135.893 122.855 134.882 121.62 134.224 120.193C133.934 122.833 134.884 125.591 135.815 126.72C136.745 127.849 137.207 126.72 137.207 126.72C137.207 126.72 137.425 128.938 138.666 129.769C139.907 130.601 140.342 129.591 140.342 129.591C140.342 129.591 141.002 130.984 143.345 131.571C145.688 132.158 146.434 128.786 146.434 128.786C149.002 130.766 148.784 126.086 148.784 126.086C148.784 126.086 150.044 126.436 149.926 124.153C149.827 122.371 148.243 118.925 147.543 117.48C148.586 117.315 150.183 119.698 150.183 119.698C154.691 120.12 151.384 113.197 151.384 113.197Z" fill="white"/>
<path d="M141.042 116.081C141.174 116.51 140.996 116.932 140.705 116.998C140.415 117.064 140.098 116.761 139.993 116.338C139.887 115.916 140.045 115.48 140.336 115.414C140.626 115.348 140.936 115.632 141.042 116.081Z" fill="#263238"/>
<path d="M136.039 117.236C136.112 117.403 136.116 117.593 136.053 117.764C135.989 117.935 135.861 118.074 135.696 118.153C135.406 118.219 135.089 117.916 134.983 117.493C134.878 117.071 135.036 116.635 135.326 116.569C135.617 116.503 135.96 116.82 136.039 117.236Z" fill="#263238"/>
<path d="M137.676 117.084C137.463 118.56 137.045 120 136.435 121.361C136.79 121.508 137.173 121.576 137.558 121.56C137.942 121.545 138.318 121.445 138.659 121.268L137.676 117.084Z" fill="#DE5753"/>
<path d="M142.223 114.101C142.177 114.118 142.127 114.123 142.079 114.114C142.03 114.106 141.984 114.086 141.946 114.055C141.694 113.834 141.394 113.675 141.07 113.59C140.746 113.505 140.406 113.497 140.078 113.566C140.012 113.587 139.94 113.581 139.878 113.548C139.816 113.516 139.77 113.461 139.748 113.395C139.73 113.327 139.738 113.255 139.771 113.194C139.804 113.132 139.86 113.086 139.927 113.065C140.339 112.966 140.768 112.967 141.18 113.07C141.591 113.172 141.972 113.372 142.289 113.652C142.343 113.696 142.378 113.759 142.385 113.829C142.393 113.898 142.372 113.967 142.329 114.022C142.298 114.054 142.263 114.08 142.223 114.101Z" fill="#263238"/>
<path d="M133.485 116.002C133.442 116.035 133.388 116.052 133.333 116.048C133.266 116.032 133.207 115.991 133.169 115.933C133.131 115.876 133.117 115.806 133.129 115.738C133.213 115.322 133.396 114.933 133.663 114.603C133.929 114.274 134.271 114.013 134.66 113.843C134.693 113.831 134.728 113.825 134.763 113.826C134.798 113.827 134.833 113.835 134.865 113.85C134.897 113.865 134.925 113.886 134.949 113.912C134.973 113.938 134.991 113.969 135.003 114.002C135.023 114.068 135.018 114.14 134.989 114.204C134.96 114.267 134.909 114.317 134.845 114.345C134.541 114.487 134.275 114.699 134.067 114.962C133.86 115.226 133.717 115.534 133.65 115.863C133.635 115.897 133.612 115.927 133.583 115.951C133.555 115.975 133.521 115.992 133.485 116.002Z" fill="#263238"/>
<path opacity="0.6" d="M142.223 114.101C142.177 114.118 142.127 114.123 142.079 114.114C142.03 114.106 141.984 114.086 141.946 114.055C141.694 113.834 141.394 113.675 141.07 113.59C140.746 113.505 140.406 113.497 140.078 113.566C140.012 113.587 139.94 113.581 139.878 113.548C139.816 113.516 139.77 113.461 139.748 113.395C139.73 113.327 139.738 113.255 139.771 113.194C139.804 113.132 139.86 113.086 139.927 113.065C140.339 112.966 140.768 112.967 141.18 113.07C141.591 113.172 141.972 113.372 142.289 113.652C142.343 113.696 142.378 113.759 142.385 113.829C142.393 113.898 142.372 113.967 142.329 114.022C142.298 114.054 142.263 114.08 142.223 114.101Z" fill="white"/>
<path opacity="0.6" d="M133.485 116.002C133.442 116.035 133.388 116.052 133.333 116.048C133.266 116.032 133.207 115.991 133.169 115.933C133.131 115.876 133.117 115.806 133.129 115.738C133.213 115.322 133.396 114.933 133.663 114.603C133.929 114.274 134.271 114.013 134.66 113.843C134.693 113.831 134.728 113.825 134.763 113.826C134.798 113.827 134.833 113.835 134.865 113.85C134.897 113.865 134.925 113.886 134.949 113.912C134.973 113.938 134.991 113.969 135.003 114.002C135.023 114.068 135.018 114.14 134.989 114.204C134.96 114.267 134.909 114.317 134.845 114.345C134.541 114.487 134.275 114.699 134.067 114.962C133.86 115.226 133.717 115.534 133.65 115.863C133.635 115.897 133.612 115.927 133.583 115.951C133.555 115.975 133.521 115.992 133.485 116.002Z" fill="white"/>
<path opacity="0.2" d="M137.722 124.549C137.722 124.549 138.204 125.03 138.851 124.291C138.851 124.291 139.768 125.723 140.725 122.549C140.725 122.549 143.286 123.063 143.986 122.549C144.467 122.199 143.986 121.565 143.986 121.565C143.986 121.565 145.035 121.46 145.306 120.681C145.306 120.681 146.137 123.79 141.346 123.202C141.332 123.202 139.795 126.555 137.722 124.549Z" fill="black"/>
<path d="M152.354 116.563C152.198 117.241 151.908 117.882 151.503 118.449C151.097 119.015 150.584 119.496 149.992 119.863C148.408 120.839 147.101 119.539 147.107 117.777C147.107 116.206 147.965 113.758 149.747 113.52C151.529 113.282 152.724 114.88 152.354 116.563Z" fill="#E4897B"/>
<path opacity="0.2" d="M139.96 116.82C139.96 116.82 140.21 118.087 141.728 117.691" stroke="black" stroke-width="0.5" stroke-linecap="round" stroke-linejoin="round"/>
<path opacity="0.2" d="M136.27 117.797C136.27 117.797 136.237 119.302 135.194 119.183" stroke="black" stroke-width="0.5" stroke-linecap="round" stroke-linejoin="round"/>
<path opacity="0.2" d="M134.389 112.985C135.902 112.143 137.625 111.754 139.352 111.863" stroke="black" stroke-width="0.5" stroke-linecap="round" stroke-linejoin="round"/>
<path opacity="0.2" d="M134.389 112.2C135.043 111.59 135.845 111.161 136.715 110.955C137.585 110.749 138.494 110.773 139.352 111.025" stroke="black" stroke-width="0.5" stroke-linecap="round" stroke-linejoin="round"/>
<path opacity="0.2" d="M135.023 110.801C135.662 110.322 136.41 110.007 137.199 109.885C137.989 109.763 138.796 109.838 139.55 110.101" stroke="black" stroke-width="0.5" stroke-linecap="round" stroke-linejoin="round"/>
<path d="M198.317 156.09L195.017 159.74C195.017 159.74 192.68 161.152 192.542 161.957C192.403 162.763 195.446 173.21 195.446 173.21C195.446 173.21 199.584 170.029 199.452 169.072C199.32 168.115 197.366 163.39 197.366 163.39L201.003 160.004L198.317 156.09Z" fill="#E4897B"/>
<path d="M169.917 119.196C169.917 119.196 198.904 121.176 209.609 133.551C220.315 145.926 199.426 163.39 199.426 163.39L195.657 156.981C195.657 156.981 204.131 148.401 200.996 142.6C197.861 136.798 181.856 137.287 181.856 137.287C181.856 137.287 166.261 130.858 169.917 119.196Z" fill="#318AD1"/>
<path opacity="0.4" d="M200.977 161.99C200.026 162.888 199.426 163.39 199.426 163.39L195.657 156.981C195.657 156.981 195.98 156.658 196.475 156.09C198.515 153.754 203.524 147.292 200.996 142.6C197.861 136.778 181.856 137.287 181.856 137.287C181.856 137.287 166.267 130.858 169.924 119.196C169.924 119.196 198.911 121.176 209.616 133.544C218.5 143.821 205.603 157.608 200.977 161.99Z" fill="black"/>
<path opacity="0.1" d="M200.977 161.99C200.026 162.888 199.426 163.39 199.426 163.39L195.657 156.981C195.657 156.981 195.98 156.658 196.475 156.09L200.977 161.99Z" fill="black"/>
<path d="M138.692 186.397H100.709C100.272 186.397 99.8521 186.223 99.5427 185.914C99.2332 185.604 99.0594 185.185 99.0594 184.747C99.0594 184.31 99.2332 183.89 99.5427 183.58C99.8521 183.271 100.272 183.097 100.709 183.097H138.692C139.13 183.097 139.55 183.271 139.859 183.58C140.169 183.89 140.342 184.31 140.342 184.747C140.342 185.185 140.169 185.604 139.859 185.914C139.55 186.223 139.13 186.397 138.692 186.397Z" fill="#318AD1"/>
<g opacity="0.2">
<path d="M138.692 186.397H100.709C100.272 186.397 99.8521 186.223 99.5427 185.914C99.2332 185.604 99.0594 185.185 99.0594 184.747C99.0594 184.31 99.2332 183.89 99.5427 183.58C99.8521 183.271 100.272 183.097 100.709 183.097H138.692C139.13 183.097 139.55 183.271 139.859 183.58C140.169 183.89 140.342 184.31 140.342 184.747C140.342 185.185 140.169 185.604 139.859 185.914C139.55 186.223 139.13 186.397 138.692 186.397Z" fill="white"/>
</g>
<path d="M135.392 236.524H97.4094C96.9718 236.524 96.5521 236.35 96.2427 236.041C95.9332 235.731 95.7594 235.312 95.7594 234.874C95.7594 234.437 95.9332 234.017 96.2427 233.707C96.5521 233.398 96.9718 233.224 97.4094 233.224H135.392C135.83 233.224 136.25 233.398 136.559 233.707C136.869 234.017 137.042 234.437 137.042 234.874C137.042 235.312 136.869 235.731 136.559 236.041C136.25 236.35 135.83 236.524 135.392 236.524Z" fill="#318AD1"/>
<g opacity="0.2">
<path d="M135.392 236.524H97.4094C96.9718 236.524 96.5521 236.35 96.2427 236.041C95.9332 235.731 95.7594 235.312 95.7594 234.874C95.7594 234.437 95.9332 234.017 96.2427 233.707C96.5521 233.398 96.9718 233.224 97.4094 233.224H135.392C135.83 233.224 136.25 233.398 136.559 233.707C136.869 234.017 137.042 234.437 137.042 234.874C137.042 235.312 136.869 235.731 136.559 236.041C136.25 236.35 135.83 236.524 135.392 236.524Z" fill="white"/>
</g>
<path d="M134.95 275.339L139.57 200.013H176.972L181.625 275.339H184.925L178.946 178.51C178.801 176.303 177.828 174.232 176.221 172.712C174.614 171.192 172.492 170.335 170.28 170.313H146.388C144.163 170.318 142.023 171.168 140.401 172.691C138.778 174.214 137.795 176.296 137.65 178.517L131.71 275.339H134.95ZM140.89 178.721C140.981 177.338 141.593 176.041 142.604 175.092C143.615 174.144 144.949 173.615 146.335 173.613H170.28C171.664 173.617 172.995 174.145 174.005 175.092C175.014 176.039 175.626 177.334 175.718 178.715L176.827 196.713H139.801L140.89 178.721Z" fill="#318AD1"/>
<path opacity="0.2" d="M134.95 275.339L139.57 200.013H176.972L181.625 275.339H184.925L178.946 178.51C178.801 176.303 177.828 174.232 176.221 172.712C174.614 171.192 172.492 170.335 170.28 170.313H146.388C144.163 170.318 142.023 171.168 140.401 172.691C138.778 174.214 137.795 176.296 137.65 178.517L131.71 275.339H134.95ZM140.89 178.721C140.981 177.338 141.593 176.041 142.604 175.092C143.615 174.144 144.949 173.615 146.335 173.613H170.28C171.664 173.617 172.995 174.145 174.005 175.092C175.014 176.039 175.626 177.334 175.718 178.715L176.827 196.713H139.801L140.89 178.721Z" fill="white"/>
</svg>
