<svg width="24" height="25" viewBox="0 0 24 25" fill="none" xmlns="http://www.w3.org/2000/svg">
<path d="M9 12.0001L11 14.0001L15.5 9.50011M20 12.5001C20 17.4086 14.646 20.9785 12.698 22.115C12.4766 22.2442 12.3659 22.3087 12.2097 22.3422C12.0884 22.3682 11.9116 22.3682 11.7903 22.3422C11.6341 22.3087 11.5234 22.2442 11.302 22.115C9.35396 20.9785 4 17.4086 4 12.5001V7.71772C4 6.9182 4 6.51845 4.13076 6.17482C4.24627 5.87126 4.43398 5.60039 4.67766 5.38564C4.9535 5.14255 5.3278 5.00219 6.0764 4.72146L11.4382 2.71079C11.6461 2.63283 11.75 2.59385 11.857 2.57839C11.9518 2.56469 12.0482 2.56469 12.143 2.57839C12.25 2.59385 12.3539 2.63283 12.5618 2.71079L17.9236 4.72146C18.6722 5.00219 19.0465 5.14255 19.3223 5.38564C19.566 5.60039 19.7537 5.87126 19.8692 6.17482C20 6.51845 20 6.9182 20 7.71772V12.5001Z" stroke="black" stroke-width="2" stroke-linecap="round" stroke-linejoin="round"/>
</svg>
