<svg width="31" height="30" viewBox="0 0 31 30" fill="none" xmlns="http://www.w3.org/2000/svg">
<path d="M15.5003 14.5454C13.8128 14.5454 12.3682 13.9446 11.1665 12.7429C9.96475 11.5412 9.3639 10.0966 9.3639 8.40907C9.3639 6.72157 9.96475 5.27697 11.1665 4.07526C12.3682 2.87356 13.8128 2.27271 15.5003 2.27271C17.1878 2.27271 18.6324 2.87356 19.8341 4.07526C21.0358 5.27697 21.6366 6.72157 21.6366 8.40907C21.6366 10.0966 21.0358 11.5412 19.8341 12.7429C18.6324 13.9446 17.1878 14.5454 15.5003 14.5454ZM3.22754 26.8182V22.5227C3.22754 21.6534 3.45152 20.8546 3.89947 20.1265C4.34743 19.3983 4.94163 18.8419 5.68208 18.4574C7.26731 17.6648 8.87811 17.0705 10.5145 16.6747C12.1508 16.279 13.8128 16.0805 15.5003 16.0795C17.1878 16.0785 18.8497 16.2769 20.4861 16.6747C22.1224 17.0726 23.7332 17.6668 25.3184 18.4574C26.0599 18.8409 26.6546 19.3972 27.1026 20.1265C27.5505 20.8557 27.774 21.6544 27.773 22.5227V26.8182H3.22754Z" fill="#B9C2C9"/>
</svg>
