<svg width="31" height="30" viewBox="0 0 31 30" fill="none" xmlns="http://www.w3.org/2000/svg">
<path d="M15.4993 14.5454C13.8118 14.5454 12.3672 13.9446 11.1655 12.7429C9.96378 11.5412 9.36293 10.0966 9.36293 8.40907C9.36293 6.72157 9.96378 5.27697 11.1655 4.07526C12.3672 2.87356 13.8118 2.27271 15.4993 2.27271C17.1868 2.27271 18.6314 2.87356 19.8331 4.07526C21.0348 5.27697 21.6357 6.72157 21.6357 8.40907C21.6357 10.0966 21.0348 11.5412 19.8331 12.7429C18.6314 13.9446 17.1868 14.5454 15.4993 14.5454ZM3.22656 26.8182V22.5227C3.22656 21.6534 3.45054 20.8546 3.89849 20.1265C4.34645 19.3983 4.94065 18.8419 5.68111 18.4574C7.26633 17.6648 8.87713 17.0705 10.5135 16.6747C12.1499 16.279 13.8118 16.0805 15.4993 16.0795C17.1868 16.0785 18.8487 16.2769 20.4851 16.6747C22.1214 17.0726 23.7322 17.6668 25.3175 18.4574C26.0589 18.8409 26.6537 19.3972 27.1016 20.1265C27.5496 20.8557 27.773 21.6544 27.772 22.5227V26.8182H3.22656Z" fill="#417CCA"/>
</svg>
