<svg width="50" height="50" viewBox="0 0 50 50" fill="none" xmlns="http://www.w3.org/2000/svg">
<rect width="50" height="50" rx="8" fill="#318AD1"/>
<path d="M25 33C25.4667 33 25.8613 32.8387 26.184 32.516C26.5067 32.1933 26.6676 31.7991 26.6667 31.3333C26.6658 30.8676 26.5044 30.4729 26.1827 30.1493C25.8609 29.8258 25.4667 29.6649 25 29.6667C24.5333 29.6684 24.1387 29.8298 23.816 30.1507C23.4933 30.4716 23.3324 30.8658 23.3333 31.3333C23.3342 31.8009 23.4956 32.1956 23.8173 32.5173C24.1391 32.8391 24.5333 33 25 33ZM23.8 27.8667H26.2667C26.2667 27.0667 26.3556 26.4778 26.5333 26.1C26.7111 25.7222 27.0889 25.2444 27.6667 24.6667C28.4444 23.8889 28.9942 23.2387 29.316 22.716C29.6378 22.1933 29.7991 21.5991 29.8 20.9333C29.8 19.7556 29.4 18.8058 28.6 18.084C27.8 17.3622 26.7222 17.0009 25.3667 17C24.1444 17 23.1058 17.3 22.2507 17.9C21.3956 18.5 20.8009 19.3333 20.4667 20.4L22.6667 21.2667C22.8222 20.6667 23.1333 20.1836 23.6 19.8173C24.0667 19.4511 24.6111 19.2676 25.2333 19.2667C25.8333 19.2667 26.3333 19.428 26.7333 19.7507C27.1333 20.0733 27.3333 20.5009 27.3333 21.0333C27.3333 21.4111 27.2111 21.8111 26.9667 22.2333C26.7222 22.6556 26.3111 23.1222 25.7333 23.6333C25 24.2778 24.4942 24.8947 24.216 25.484C23.9378 26.0733 23.7991 26.8676 23.8 27.8667ZM15.6667 37C14.9333 37 14.3058 36.7391 13.784 36.2173C13.2622 35.6956 13.0009 35.0676 13 34.3333V15.6667C13 14.9333 13.2613 14.3058 13.784 13.784C14.3067 13.2622 14.9342 13.0009 15.6667 13H34.3333C35.0667 13 35.6947 13.2613 36.2173 13.784C36.74 14.3067 37.0009 14.9342 37 15.6667V34.3333C37 35.0667 36.7391 35.6947 36.2173 36.2173C35.6956 36.74 35.0676 37.0009 34.3333 37H15.6667Z" fill="white"/>
</svg>
