<svg width="160" height="160" viewBox="0 0 160 160" fill="none" xmlns="http://www.w3.org/2000/svg">
<circle cx="80" cy="80" r="80" fill="white"/>
<circle cx="80.0004" cy="80" r="65.4545" fill="#F3F4F6"/>
<g clip-path="url(#clip0_1632_13239)">
<path d="M123.637 80.0001C123.637 91.5732 119.04 102.672 110.856 110.856C102.673 119.039 91.5737 123.636 80.0006 123.636C68.4275 123.636 57.3285 119.039 49.1451 110.856C40.9616 102.672 36.3643 91.5732 36.3643 80.0001C36.3643 68.4271 40.9616 57.328 49.1451 49.1446C57.3285 40.9612 68.4275 36.3638 80.0006 36.3638C91.5737 36.3638 102.673 40.9612 110.856 49.1446C119.04 57.328 123.637 68.4271 123.637 80.0001ZM101.982 63.4729C101.593 63.0846 101.129 62.7789 100.618 62.574C100.108 62.3692 99.5614 62.2694 99.0115 62.2806C98.4615 62.2918 97.9195 62.4138 97.4178 62.6392C96.9161 62.8647 96.465 63.1891 96.0915 63.5929L77.1479 87.7292L65.7315 76.3074C64.956 75.5848 63.9303 75.1914 62.8705 75.2101C61.8107 75.2288 60.7995 75.6581 60.05 76.4076C59.3004 77.1572 58.8711 78.1684 58.8524 79.2282C58.8337 80.288 59.2271 81.3137 59.9497 82.0892L74.3824 96.5274C74.7712 96.9155 75.2342 97.2213 75.7438 97.4266C76.2534 97.6319 76.7991 97.7324 77.3483 97.7223C77.8976 97.7121 78.4392 97.5914 78.9408 97.3674C79.4424 97.1433 79.8937 96.8206 80.2679 96.4183L102.042 69.2001C102.785 68.4283 103.195 67.3962 103.185 66.3254C103.174 65.2545 102.745 64.2304 101.988 63.4729H101.982Z" fill="#318AD1"/>
</g>
<defs>
<clipPath id="clip0_1632_13239">
<rect width="87.2727" height="87.2727" fill="white" transform="translate(36.3643 36.3638)"/>
</clipPath>
</defs>
</svg>
