<svg width="160" height="160" viewBox="0 0 160 160" fill="none" xmlns="http://www.w3.org/2000/svg">
<circle cx="80" cy="80" r="80" fill="white"/>
<circle cx="79.9995" cy="80" r="65.4545" fill="#F3F4F6"/>
<g clip-path="url(#clip0_353_21506)">
<path d="M123.636 79.9999C123.636 91.573 119.039 102.672 110.855 110.855C102.672 119.039 91.5727 123.636 79.9996 123.636C68.4266 123.636 57.3275 119.039 49.1441 110.855C40.9607 102.672 36.3633 91.573 36.3633 79.9999C36.3633 68.4268 40.9607 57.3277 49.1441 49.1443C57.3275 40.9609 68.4266 36.3635 79.9996 36.3635C91.5727 36.3635 102.672 40.9609 110.855 49.1443C119.039 57.3277 123.636 68.4268 123.636 79.9999ZM101.981 63.4726C101.592 63.0844 101.128 62.7787 100.617 62.5738C100.107 62.3689 99.5604 62.2691 99.0105 62.2803C98.4606 62.2915 97.9185 62.4135 97.4168 62.639C96.9151 62.8645 96.464 63.1888 96.0906 63.5926L77.1469 87.729L65.7306 76.3072C64.9551 75.5845 63.9293 75.1911 62.8695 75.2098C61.8097 75.2285 60.7985 75.6579 60.049 76.4074C59.2995 77.1569 58.8701 78.1681 58.8514 79.2279C58.8327 80.2878 59.2261 81.3135 59.9487 82.089L74.3815 96.5272C74.7703 96.9153 75.2333 97.2211 75.7428 97.4264C76.2524 97.6317 76.7981 97.7322 77.3474 97.722C77.8966 97.7118 78.4382 97.5911 78.9398 97.3671C79.4414 97.1431 79.8928 96.8203 80.2669 96.4181L102.041 69.1999C102.784 68.4281 103.194 67.3959 103.184 66.3251C103.173 65.2543 102.744 64.2302 101.987 63.4726H101.981Z" fill="#318AD1"/>
</g>
<defs>
<clipPath id="clip0_353_21506">
<rect width="87.2727" height="87.2727" fill="white" transform="translate(36.3633 36.3635)"/>
</clipPath>
</defs>
</svg>
