<svg width="262" height="262" viewBox="0 0 262 262" fill="none" xmlns="http://www.w3.org/2000/svg">
<path d="M159.298 54.0401C158.127 55.83 157.303 57.8246 156.871 59.9194L153.586 60.2286V66.5899L156.871 66.8991C157.303 68.9955 158.127 70.9918 159.298 72.7836L157.202 75.3145L161.697 79.8105L164.234 77.7145C166.022 78.8884 168.017 79.7118 170.113 80.1406L170.422 83.4261H176.783L177.093 80.1406C179.188 79.7108 181.183 78.8875 182.972 77.7145L185.508 79.8105L190.004 75.3145L187.908 72.7836C189.079 70.9918 189.902 68.9955 190.334 66.8991L193.62 66.5899V60.2286L190.334 59.9194C189.902 57.8246 189.079 55.83 187.908 54.0401L190.004 51.504L185.498 47.0081L182.961 49.1041C181.181 47.9367 179.197 47.1138 177.114 46.6779L176.804 43.3925H170.417L170.108 46.6779C168.013 47.1092 166.018 47.9323 164.228 49.1041L161.692 47.0081L157.202 51.504L159.298 54.0401ZM180.907 56.1361C182.351 57.5807 183.334 59.421 183.733 61.4243C184.131 63.4277 183.926 65.5041 183.144 67.391C182.362 69.278 181.039 70.8907 179.34 72.0254C177.642 73.16 175.645 73.7657 173.603 73.7657C171.56 73.7657 169.564 73.16 167.865 72.0254C166.167 70.8907 164.843 69.278 164.061 67.391C163.279 65.5041 163.075 63.4277 163.473 61.4243C163.871 59.421 164.854 57.5807 166.298 56.1361C168.232 54.1977 170.856 53.1062 173.595 53.1013C176.333 53.0964 178.961 54.1785 180.902 56.1099L180.907 56.1361Z" fill="#F0F0F0"/>
<path d="M141.417 17.9365H96.5104C95.0808 17.9365 93.9219 19.0955 93.9219 20.5251V54.889C93.9219 56.3186 95.0808 57.4776 96.5104 57.4776H141.417C142.847 57.4776 144.006 56.3186 144.006 54.889V20.5251C144.006 19.0955 142.847 17.9365 141.417 17.9365Z" fill="#E6E6E6"/>
<path d="M96.3428 17.9365H141.622C142.254 17.9365 142.86 18.1877 143.307 18.6348C143.755 19.082 144.006 19.6884 144.006 20.3207V24.8324H93.9219V20.3626C93.9219 19.7201 94.1768 19.1038 94.6306 18.649C95.0845 18.1941 95.7002 17.9379 96.3428 17.9365Z" fill="#E0E0E0"/>
<path opacity="0.5" d="M141.35 21.8874C141.351 22.1864 141.264 22.4788 141.098 22.7278C140.933 22.9768 140.697 23.171 140.421 23.2859C140.145 23.4008 139.841 23.4311 139.548 23.373C139.255 23.315 138.985 23.1711 138.774 22.9598C138.563 22.7484 138.419 22.479 138.361 22.1858C138.303 21.8926 138.333 21.5887 138.448 21.3127C138.563 21.0368 138.757 20.8011 139.006 20.6357C139.255 20.4703 139.547 20.3825 139.846 20.3836C140.245 20.3836 140.628 20.542 140.91 20.824C141.192 21.1061 141.35 21.4886 141.35 21.8874Z" fill="#FAFAFA"/>
<path opacity="0.5" d="M137.073 21.8874C137.074 22.1861 136.986 22.4784 136.821 22.7273C136.656 22.9761 136.421 23.1704 136.145 23.2854C135.869 23.4004 135.566 23.4311 135.273 23.3734C134.98 23.3158 134.71 23.1725 134.499 22.9616C134.287 22.7508 134.143 22.4819 134.084 22.189C134.025 21.8961 134.055 21.5924 134.169 21.3164C134.283 21.0403 134.477 20.8043 134.725 20.6383C134.973 20.4722 135.265 20.3836 135.564 20.3836C135.762 20.3829 135.958 20.4213 136.141 20.4965C136.324 20.5718 136.49 20.6825 136.631 20.8222C136.771 20.9619 136.882 21.1279 136.958 21.3107C137.034 21.4935 137.073 21.6895 137.073 21.8874Z" fill="#FAFAFA"/>
<path opacity="0.5" d="M131.289 23.3913C132.12 23.3913 132.793 22.718 132.793 21.8874C132.793 21.0569 132.12 20.3835 131.289 20.3835C130.458 20.3835 129.785 21.0569 129.785 21.8874C129.785 22.718 130.458 23.3913 131.289 23.3913Z" fill="#FAFAFA"/>
<path opacity="0.6" d="M132.215 30.5963H105.418V32.0006H132.215V30.5963Z" fill="white"/>
<path d="M125.005 33.6304H105.832V35.0347H125.005V33.6304Z" fill="#E0E0E0"/>
<path d="M139.485 30.5963H134.586V32.0006H139.485V30.5963Z" fill="#F0F0F0"/>
<path d="M103.557 30.5963H98.2852V32.0006H103.557V30.5963Z" fill="#F0F0F0"/>
<path d="M132.215 37.0049H105.418V38.4092H132.215V37.0049Z" fill="#F0F0F0"/>
<path opacity="0.6" d="M139.485 37.0049H134.586V38.4092H139.485V37.0049Z" fill="white"/>
<path d="M103.557 37.0049H98.2852V38.4092H103.557V37.0049Z" fill="#F0F0F0"/>
<path opacity="0.6" d="M132.215 50.3669H105.418V51.7713H132.215V50.3669Z" fill="white"/>
<path opacity="0.6" d="M139.485 50.3669H134.586V51.7713H139.485V50.3669Z" fill="white"/>
<path d="M132.215 40.3846H105.418V41.789H132.215V40.3846Z" fill="#F0F0F0"/>
<path d="M139.485 40.3846H134.586V41.789H139.485V40.3846Z" fill="#E0E0E0"/>
<path d="M103.557 40.3846H98.2852V41.789H103.557V40.3846Z" fill="#E0E0E0"/>
<path d="M139.844 33.688H127.105V35.0923H139.844V33.688Z" fill="#F0F0F0"/>
<path opacity="0.6" d="M124.591 43.3296H105.418V44.7339H124.591V43.3296Z" fill="white"/>
<path d="M139.426 43.3872H126.688V44.7915H139.426V43.3872Z" fill="#F0F0F0"/>
<path d="M115.007 46.3845H105.418V47.7888H115.007V46.3845Z" fill="#E0E0E0"/>
<path d="M209.758 45.7242L204.083 48.3757L209.758 51.0271V53.165L202.176 49.497V47.2648L209.758 43.5968V45.7242Z" fill="#E0E0E0"/>
<path d="M227.033 47.2648V49.4866L219.445 53.1546V51.0271L225.12 48.3757L219.445 45.7242V43.5916L227.033 47.2648Z" fill="#E0E0E0"/>
<path d="M215.93 42.0981L212.23 54.8837H214.08L217.78 42.0981H215.93Z" fill="#E0E0E0"/>
<path d="M19.5762 114.148C18.8896 115.194 18.4078 116.36 18.1561 117.586L16.2383 117.764V121.479L18.1561 121.662C18.4078 122.886 18.8897 124.051 19.5762 125.094L18.3395 126.577L20.9595 129.197L22.4372 127.971C23.484 128.656 24.65 129.137 25.8746 129.391L26.0528 131.309H29.768L29.9514 129.391C31.1746 129.138 32.3391 128.656 33.3836 127.971L34.8665 129.197L37.4865 126.577L36.2603 125.094C36.9634 124.054 37.4614 122.889 37.7275 121.662L39.6454 121.479V117.764L37.7275 117.586C37.4759 116.36 36.994 115.194 36.3075 114.148L37.5074 112.66L34.8874 110.04L33.4045 111.261C32.3598 110.577 31.1953 110.097 29.9723 109.846L29.7837 107.944H26.0685L25.8904 109.862C24.6659 110.113 23.4998 110.593 22.4529 111.277L20.9595 110.04L18.3395 112.66L19.5762 114.148ZM32.1941 115.359C33.0374 116.202 33.6116 117.277 33.8442 118.447C34.0768 119.617 33.9572 120.829 33.5007 121.931C33.0441 123.033 32.2711 123.975 31.2793 124.638C30.2875 125.3 29.1215 125.654 27.9287 125.654C26.7359 125.654 25.5699 125.3 24.5781 124.638C23.5863 123.975 22.8133 123.033 22.3568 121.931C21.9002 120.829 21.7807 119.617 22.0132 118.447C22.2458 117.277 22.8201 116.202 23.6634 115.359C24.7952 114.228 26.3293 113.594 27.9287 113.594C29.5282 113.594 31.0623 114.228 32.1941 115.359Z" fill="#E0E0E0"/>
<path d="M230.095 70.9077C229.525 71.7748 229.125 72.7421 228.916 73.7582L227.344 73.9102V76.9913L228.916 77.1433C229.125 78.1594 229.525 79.1266 230.095 79.9938L229.078 81.22L231.258 83.3998L232.489 82.3833C233.357 82.9513 234.324 83.3496 235.34 83.557L235.487 85.129H238.573L238.725 83.557C239.74 83.3477 240.707 82.9495 241.576 82.3833L242.802 83.3998L244.987 81.22L243.97 79.9886C244.536 79.12 244.934 78.1532 245.144 77.138L246.716 76.986V73.9049L245.144 73.753C244.935 72.7368 244.535 71.7696 243.965 70.9024L244.987 69.671L242.802 67.4912L241.565 68.513C240.697 67.9467 239.73 67.5485 238.715 67.3392L238.563 65.7672H235.487L235.34 67.3392C234.324 67.5466 233.357 67.9449 232.489 68.513L231.258 67.4964L229.078 69.692L230.095 70.9077ZM240.575 71.9085C241.275 72.6091 241.752 73.5017 241.946 74.4734C242.139 75.4451 242.04 76.4524 241.661 77.3677C241.281 78.2831 240.639 79.0654 239.816 79.6159C238.992 80.1663 238.023 80.4601 237.033 80.4601C236.042 80.4601 235.073 80.1663 234.249 79.6159C233.426 79.0654 232.784 78.2831 232.404 77.3677C232.025 76.4524 231.926 75.4451 232.119 74.4734C232.313 73.5017 232.79 72.6091 233.49 71.9085C234.43 70.9703 235.704 70.4434 237.033 70.4434C238.361 70.4434 239.635 70.9703 240.575 71.9085Z" fill="#E0E0E0"/>
<path d="M246.601 223.47H228.34V223.606H246.601V223.47Z" fill="#EBEBEB"/>
<path d="M181.174 224.969H176.379V225.105H181.174V224.969Z" fill="#EBEBEB"/>
<path d="M227.783 218.351H217.203V218.487H227.783V218.351Z" fill="#EBEBEB"/>
<path d="M51.2988 219.278H27.4883V219.415H51.2988V219.278Z" fill="#EBEBEB"/>
<path d="M59.7008 219.278H56.2109V219.415H59.7008V219.278Z" fill="#EBEBEB"/>
<path d="M122.696 221.605H71.0508V221.741H122.696V221.605Z" fill="#EBEBEB"/>
<path d="M232.616 182.949H137.903C137.089 182.948 136.308 182.624 135.733 182.048C135.157 181.473 134.833 180.693 134.832 179.879V41.92C134.833 41.106 135.157 40.3258 135.733 39.7503C136.308 39.1747 137.089 38.8508 137.903 38.8494H232.616C233.43 38.8508 234.21 39.1747 234.785 39.7503C235.361 40.3258 235.685 41.106 235.686 41.92V179.879C235.685 180.693 235.361 181.473 234.785 182.048C234.21 182.624 233.43 182.948 232.616 182.949ZM137.903 38.9856C137.124 38.9856 136.377 39.2946 135.826 39.8448C135.275 40.3949 134.964 41.1413 134.963 41.92V179.879C134.963 180.658 135.273 181.406 135.824 181.957C136.375 182.509 137.123 182.818 137.903 182.818H232.616C233.395 182.818 234.143 182.509 234.694 181.957C235.246 181.406 235.555 180.658 235.555 179.879V41.92C235.555 41.1404 235.246 40.3927 234.694 39.8414C234.143 39.2901 233.395 38.9804 232.616 38.9804L137.903 38.9856Z" fill="#E0E0E0"/>
<path d="M123.397 182.949H28.6892C27.8743 182.949 27.0927 182.626 26.516 182.05C25.9393 181.475 25.6147 180.694 25.6133 179.879V41.92C25.6147 41.1051 25.9393 40.3241 26.516 39.7484C27.0927 39.1727 27.8743 38.8494 28.6892 38.8494H123.397C124.211 38.8494 124.992 39.1729 125.568 39.7487C126.144 40.3246 126.468 41.1056 126.468 41.92V179.879C126.468 180.693 126.144 181.474 125.568 182.05C124.992 182.626 124.211 182.949 123.397 182.949ZM28.6892 38.9856C27.9099 38.9856 27.1625 39.2944 26.6105 39.8444C26.0585 40.3944 25.7471 41.1408 25.7443 41.92V179.879C25.7457 180.659 26.0565 181.407 26.6087 181.958C27.1608 182.509 27.909 182.818 28.6892 182.818H123.397C123.783 182.818 124.165 182.742 124.522 182.595C124.879 182.447 125.203 182.23 125.476 181.957C125.749 181.684 125.965 181.36 126.113 181.004C126.261 180.647 126.337 180.265 126.337 179.879V41.92C126.337 41.534 126.261 41.1517 126.113 40.7951C125.965 40.4384 125.749 40.1143 125.476 39.8414C125.203 39.5684 124.879 39.3519 124.522 39.2041C124.165 39.0564 123.783 38.9804 123.397 38.9804L28.6892 38.9856Z" fill="#E0E0E0"/>
<path d="M262 214.95H0V215.081H262V214.95Z" fill="#E0E0E0"/>
<path d="M238.452 234.485C238.452 236.256 189.447 237.697 128.999 237.697C68.55 237.697 19.5508 236.256 19.5508 234.485C19.5508 232.714 68.55 231.267 128.999 231.267C189.447 231.267 238.452 232.708 238.452 234.485Z" fill="#F5F5F5"/>
<path d="M104.89 210.748H100.887V214.751H104.89V210.748Z" fill="#263238"/>
<path opacity="0.5" d="M49.5236 63.4041H61.9058V185.255H48.5857C47.5684 185.255 46.5928 184.851 45.8734 184.132C45.1541 183.412 44.75 182.437 44.75 181.419V68.1829C44.7493 67.5556 44.8723 66.9343 45.1119 66.3545C45.3515 65.7748 45.703 65.2479 46.1463 64.8041C46.5897 64.3602 47.1161 64.0082 47.6956 63.7679C48.2751 63.5277 48.8963 63.4041 49.5236 63.4041Z" fill="white"/>
<path opacity="0.5" d="M112.985 183.154L107.535 211.078H115.442L121.751 183.384L112.985 183.154Z" fill="white"/>
<path opacity="0.5" d="M104.89 210.748H100.887V214.751H104.89V210.748Z" fill="white"/>
<path d="M162.638 214.751H111.852L119.067 172.433H152.865L162.638 214.751Z" fill="#263238"/>
<path opacity="0.7" d="M162.638 214.751H111.852L119.067 172.433H152.865L162.638 214.751Z" fill="white"/>
<path opacity="0.1" d="M155.81 185.255H116.861L115.441 193.592L156.942 190.165L155.81 185.255Z" fill="#318AD1"/>
<path d="M169.6 210.748H103.77V214.751H169.6V210.748Z" fill="#263238"/>
<g opacity="0.7">
<path d="M169.6 210.748H103.77V214.751H169.6V210.748Z" fill="white"/>
</g>
<path d="M53.0437 63.4041H217.705C218.828 63.4192 219.899 63.878 220.684 64.6801C221.47 65.4822 221.906 66.5625 221.897 67.6851V180.974C221.906 182.097 221.47 183.177 220.684 183.979C219.899 184.781 218.828 185.24 217.705 185.255H53.0437C51.9212 185.24 50.8503 184.781 50.0649 183.979C49.2794 183.177 48.8433 182.097 48.8517 180.974V67.6904C48.8419 66.5669 49.2774 65.4852 50.063 64.682C50.8486 63.8787 51.9203 63.4192 53.0437 63.4041Z" fill="#263238"/>
<g opacity="0.7">
<path d="M53.0437 63.4041H217.705C218.828 63.4192 219.899 63.878 220.684 64.6801C221.47 65.4822 221.906 66.5625 221.897 67.6851V180.974C221.906 182.097 221.47 183.177 220.684 183.979C219.899 184.781 218.828 185.24 217.705 185.255H53.0437C51.9212 185.24 50.8503 184.781 50.0649 183.979C49.2794 183.177 48.8433 182.097 48.8517 180.974V67.6904C48.8419 66.5669 49.2774 65.4852 50.063 64.682C50.8486 63.8787 51.9203 63.4192 53.0437 63.4041Z" fill="white"/>
</g>
<path d="M217.318 67.6013H52.6875V176.834H217.318V67.6013Z" fill="#318AD1"/>
<path opacity="0.9" d="M217.318 67.6013H52.6875V176.834H217.318V67.6013Z" fill="white"/>
<path d="M217.318 67.6013H52.6875V76.3678H217.318V67.6013Z" fill="#318AD1"/>
<path opacity="0.5" d="M215.129 71.9872C215.13 72.3563 215.022 72.7175 214.817 73.025C214.613 73.3324 214.322 73.5723 213.981 73.7143C213.641 73.8563 213.265 73.894 212.903 73.8226C212.541 73.7512 212.208 73.574 211.947 73.3133C211.685 73.0526 211.507 72.7203 211.435 72.3583C211.362 71.9963 211.399 71.6209 211.54 71.2797C211.681 70.9386 211.92 70.6469 212.227 70.4417C212.534 70.2365 212.895 70.127 213.264 70.127C213.758 70.127 214.231 70.3228 214.581 70.6715C214.931 71.0202 215.128 71.4933 215.129 71.9872Z" fill="white"/>
<path opacity="0.5" d="M209.832 71.9872C209.833 72.3566 209.725 72.7179 209.52 73.0255C209.316 73.3331 209.024 73.573 208.683 73.7148C208.342 73.8567 207.967 73.8941 207.604 73.8222C207.242 73.7504 206.909 73.5727 206.648 73.3115C206.387 73.0503 206.209 72.7174 206.137 72.355C206.065 71.9927 206.103 71.6172 206.245 71.2761C206.386 70.935 206.626 70.6437 206.934 70.4392C207.241 70.2346 207.603 70.1259 207.972 70.127C208.465 70.1283 208.938 70.3248 209.286 70.6733C209.635 71.0219 209.831 71.4942 209.832 71.9872Z" fill="white"/>
<path opacity="0.5" d="M204.539 71.9872C204.541 72.3563 204.432 72.7175 204.228 73.025C204.023 73.3324 203.732 73.5723 203.392 73.7143C203.051 73.8563 202.676 73.894 202.313 73.8226C201.951 73.7512 201.618 73.574 201.357 73.3133C201.095 73.0526 200.917 72.7203 200.845 72.3583C200.772 71.9963 200.809 71.6209 200.95 71.2797C201.091 70.9386 201.33 70.6469 201.637 70.4417C201.944 70.2365 202.305 70.127 202.674 70.127C203.168 70.127 203.642 70.3228 203.991 70.6715C204.341 71.0202 204.538 71.4933 204.539 71.9872Z" fill="white"/>
<path d="M83.2121 140.338C82.687 141.144 82.3174 142.042 82.1222 142.984L80.6445 143.12V145.981L82.1222 146.123C82.3208 147.056 82.6904 147.944 83.2121 148.743L82.2689 149.885L84.2916 151.908L85.4339 150.964C86.2321 151.487 87.1205 151.857 88.0539 152.054L88.1954 153.532H91.0564L91.1927 152.054C92.135 151.859 93.0324 151.49 93.8389 150.964L94.9759 151.908L96.9986 149.885L96.0554 148.743C96.5817 147.946 96.9533 147.057 97.1505 146.123L98.623 145.981V143.12L97.1505 142.984C96.9558 142.041 96.5842 141.143 96.0554 140.338L96.9986 139.201L94.9759 137.178L93.8389 138.121C93.0338 137.592 92.1359 137.221 91.1927 137.026L91.0564 135.554H88.1954L88.0539 137.026C87.1195 137.223 86.2307 137.595 85.4339 138.121L84.2916 137.178L82.2689 139.201L83.2121 140.338ZM92.2773 141.91C92.8007 142.429 93.158 143.092 93.304 143.814C93.45 144.537 93.3781 145.286 93.0974 145.968C92.8167 146.649 92.3399 147.232 91.7274 147.642C91.115 148.053 90.3945 148.272 89.6573 148.272C88.9202 148.272 88.1997 148.053 87.5872 147.642C86.9748 147.232 86.4979 146.649 86.2172 145.968C85.9365 145.286 85.8646 144.537 86.0107 143.814C86.1567 143.092 86.514 142.429 87.0373 141.91C87.7355 141.22 88.678 140.834 89.6595 140.836C90.641 140.838 91.5819 141.228 92.2773 141.92V141.91Z" fill="#318AD1"/>
<path opacity="0.4" d="M83.2121 140.338C82.687 141.144 82.3174 142.042 82.1222 142.984L80.6445 143.12V145.981L82.1222 146.123C82.3208 147.056 82.6904 147.944 83.2121 148.743L82.2689 149.885L84.2916 151.908L85.4339 150.964C86.2321 151.487 87.1205 151.857 88.0539 152.054L88.1954 153.532H91.0564L91.1927 152.054C92.135 151.859 93.0324 151.49 93.8389 150.964L94.9759 151.908L96.9986 149.885L96.0554 148.743C96.5817 147.946 96.9533 147.057 97.1505 146.123L98.623 145.981V143.12L97.1505 142.984C96.9558 142.041 96.5842 141.143 96.0554 140.338L96.9986 139.201L94.9759 137.178L93.8389 138.121C93.0338 137.592 92.1359 137.221 91.1927 137.026L91.0564 135.554H88.1954L88.0539 137.026C87.1195 137.223 86.2307 137.595 85.4339 138.121L84.2916 137.178L82.2689 139.201L83.2121 140.338ZM92.2773 141.91C92.8007 142.429 93.158 143.092 93.304 143.814C93.45 144.537 93.3781 145.286 93.0974 145.968C92.8167 146.649 92.3399 147.232 91.7274 147.642C91.115 148.053 90.3945 148.272 89.6573 148.272C88.9202 148.272 88.1997 148.053 87.5872 147.642C86.9748 147.232 86.4979 146.649 86.2172 145.968C85.9365 145.286 85.8646 144.537 86.0107 143.814C86.1567 143.092 86.514 142.429 87.0373 141.91C87.7355 141.22 88.678 140.834 89.6595 140.836C90.641 140.838 91.5819 141.228 92.2773 141.92V141.91Z" fill="white"/>
<path d="M167.637 105.324C167.148 106.071 166.805 106.903 166.625 107.776L165.258 107.902V110.564L166.625 110.69C166.805 111.564 167.148 112.396 167.637 113.142L166.762 114.19L168.638 116.066L169.686 115.191C170.432 115.679 171.264 116.022 172.138 116.202L172.264 117.57H174.915L175.041 116.202C175.915 116.022 176.747 115.679 177.493 115.191L178.541 116.066L180.417 114.19L179.542 113.142C180.03 112.396 180.373 111.564 180.553 110.69L181.921 110.564V107.944L180.553 107.818C180.373 106.945 180.03 106.113 179.542 105.366L180.417 104.318L178.541 102.442L177.493 103.317C176.747 102.829 175.915 102.486 175.041 102.306L174.915 100.938H172.264L172.138 102.306C171.264 102.486 170.432 102.829 169.686 103.317L168.638 102.442L166.762 104.276L167.637 105.324ZM176.021 106.791C176.503 107.273 176.832 107.888 176.966 108.557C177.099 109.226 177.031 109.919 176.77 110.549C176.509 111.18 176.067 111.718 175.5 112.097C174.933 112.476 174.266 112.679 173.584 112.679C172.902 112.679 172.235 112.476 171.668 112.097C171.101 111.718 170.659 111.18 170.398 110.549C170.137 109.919 170.069 109.226 170.203 108.557C170.336 107.888 170.665 107.273 171.148 106.791C171.469 106.47 171.85 106.216 172.269 106.043C172.689 105.87 173.139 105.782 173.593 105.783C174.047 105.785 174.496 105.876 174.914 106.052C175.333 106.227 175.712 106.484 176.031 106.807L176.021 106.791Z" fill="#318AD1"/>
<path opacity="0.4" d="M167.637 105.324C167.148 106.071 166.805 106.903 166.625 107.776L165.258 107.902V110.564L166.625 110.69C166.805 111.564 167.148 112.396 167.637 113.142L166.762 114.19L168.638 116.066L169.686 115.191C170.432 115.679 171.264 116.022 172.138 116.202L172.264 117.57H174.915L175.041 116.202C175.915 116.022 176.747 115.679 177.493 115.191L178.541 116.066L180.417 114.19L179.542 113.142C180.03 112.396 180.373 111.564 180.553 110.69L181.921 110.564V107.944L180.553 107.818C180.373 106.945 180.03 106.113 179.542 105.366L180.417 104.318L178.541 102.442L177.493 103.317C176.747 102.829 175.915 102.486 175.041 102.306L174.915 100.938H172.264L172.138 102.306C171.264 102.486 170.432 102.829 169.686 103.317L168.638 102.442L166.762 104.276L167.637 105.324ZM176.021 106.791C176.503 107.273 176.832 107.888 176.966 108.557C177.099 109.226 177.031 109.919 176.77 110.549C176.509 111.18 176.067 111.718 175.5 112.097C174.933 112.476 174.266 112.679 173.584 112.679C172.902 112.679 172.235 112.476 171.668 112.097C171.101 111.718 170.659 111.18 170.398 110.549C170.137 109.919 170.069 109.226 170.203 108.557C170.336 107.888 170.665 107.273 171.148 106.791C171.469 106.47 171.85 106.216 172.269 106.043C172.689 105.87 173.139 105.782 173.593 105.783C174.047 105.785 174.496 105.876 174.914 106.052C175.333 106.227 175.712 106.484 176.031 106.807L176.021 106.791Z" fill="white"/>
<path d="M164.36 90.6783C164.048 91.1579 163.828 91.6908 163.71 92.2503L162.824 92.3289V94.0424L163.71 94.1262C163.826 94.6862 164.047 95.2194 164.36 95.6982L163.794 96.3794L165.004 97.5899L165.69 97.0239C166.168 97.3405 166.702 97.5629 167.262 97.6789L167.346 98.5645H169.055L169.138 97.6789C169.699 97.5629 170.233 97.3405 170.71 97.0239L171.392 97.5899L172.602 96.3794L172.041 95.6982C172.354 95.2194 172.575 94.6862 172.691 94.1262L173.577 94.0424V92.3289L172.691 92.245C172.573 91.6856 172.353 91.1528 172.041 90.673L172.602 89.9919L171.392 88.7814L170.71 89.3473C170.232 89.0329 169.699 88.8107 169.138 88.6923L169.055 87.812H167.346L167.262 88.6923C166.702 88.8107 166.169 89.0329 165.69 89.3473L165.004 88.7814L163.794 89.9919L164.36 90.6783ZM169.778 91.6267C170.09 91.9379 170.303 92.3347 170.389 92.7669C170.476 93.1991 170.432 93.6473 170.264 94.0546C170.096 94.462 169.81 94.8103 169.444 95.0553C169.077 95.3004 168.646 95.4312 168.206 95.4312C167.765 95.4312 167.334 95.3004 166.968 95.0553C166.601 94.8103 166.316 94.462 166.147 94.0546C165.979 93.6473 165.935 93.1991 166.022 92.7669C166.109 92.3347 166.321 91.9379 166.634 91.6267C167.051 91.2108 167.616 90.9772 168.206 90.9772C168.795 90.9772 169.36 91.2108 169.778 91.6267Z" fill="#318AD1"/>
<path opacity="0.7" d="M164.36 90.6783C164.048 91.1579 163.828 91.6908 163.71 92.2503L162.824 92.3289V94.0424L163.71 94.1262C163.826 94.6862 164.047 95.2194 164.36 95.6982L163.794 96.3794L165.004 97.5899L165.69 97.0239C166.168 97.3405 166.702 97.5629 167.262 97.6789L167.346 98.5645H169.055L169.138 97.6789C169.699 97.5629 170.233 97.3405 170.71 97.0239L171.392 97.5899L172.602 96.3794L172.041 95.6982C172.354 95.2194 172.575 94.6862 172.691 94.1262L173.577 94.0424V92.3289L172.691 92.245C172.573 91.6856 172.353 91.1528 172.041 90.673L172.602 89.9919L171.392 88.7814L170.71 89.3473C170.232 89.0329 169.699 88.8107 169.138 88.6923L169.055 87.812H167.346L167.262 88.6923C166.702 88.8107 166.169 89.0329 165.69 89.3473L165.004 88.7814L163.794 89.9919L164.36 90.6783ZM169.778 91.6267C170.09 91.9379 170.303 92.3347 170.389 92.7669C170.476 93.1991 170.432 93.6473 170.264 94.0546C170.096 94.462 169.81 94.8103 169.444 95.0553C169.077 95.3004 168.646 95.4312 168.206 95.4312C167.765 95.4312 167.334 95.3004 166.968 95.0553C166.601 94.8103 166.316 94.462 166.147 94.0546C165.979 93.6473 165.935 93.1991 166.022 92.7669C166.109 92.3347 166.321 91.9379 166.634 91.6267C167.051 91.2108 167.616 90.9772 168.206 90.9772C168.795 90.9772 169.36 91.2108 169.778 91.6267Z" fill="white"/>
<path d="M92.7502 157.499C92.439 157.978 92.2188 158.511 92.1004 159.071L91.2148 159.155V160.868L92.1004 160.952C92.2179 161.512 92.4382 162.045 92.7502 162.524L92.1895 163.205L93.3999 164.415L94.0811 163.85C94.5585 164.166 95.0921 164.389 95.6531 164.505L95.737 165.39H97.4662L97.55 164.505C98.111 164.389 98.6446 164.166 99.122 163.85L99.8084 164.415L101.019 163.205L100.453 162.524C100.767 162.046 100.988 161.512 101.103 160.952L101.988 160.868V159.155L101.103 159.071C100.987 158.511 100.766 157.977 100.453 157.499L101.019 156.817L99.8084 155.628L99.122 156.152C98.6434 155.838 98.1103 155.615 97.55 155.497L97.4662 154.617H95.7579L95.6741 155.497C95.1138 155.615 94.5806 155.838 94.1021 156.152L93.4209 155.586L92.2104 156.797L92.7502 157.499ZM98.1788 158.447C98.491 158.758 98.7039 159.155 98.7904 159.587C98.877 160.019 98.8333 160.468 98.665 160.875C98.4967 161.282 98.2113 161.631 97.8449 161.876C97.4785 162.121 97.0476 162.252 96.6068 162.252C96.166 162.252 95.7351 162.121 95.3687 161.876C95.0023 161.631 94.7169 161.282 94.5486 160.875C94.3803 160.468 94.3366 160.019 94.4232 159.587C94.5097 159.155 94.7226 158.758 95.0348 158.447C95.4522 158.031 96.0175 157.798 96.6068 157.798C97.1961 157.798 97.7614 158.031 98.1788 158.447Z" fill="#318AD1"/>
<path opacity="0.7" d="M92.7502 157.499C92.439 157.978 92.2188 158.511 92.1004 159.071L91.2148 159.155V160.868L92.1004 160.952C92.2179 161.512 92.4382 162.045 92.7502 162.524L92.1895 163.205L93.3999 164.415L94.0811 163.85C94.5585 164.166 95.0921 164.389 95.6531 164.505L95.737 165.39H97.4662L97.55 164.505C98.111 164.389 98.6446 164.166 99.122 163.85L99.8084 164.415L101.019 163.205L100.453 162.524C100.767 162.046 100.988 161.512 101.103 160.952L101.988 160.868V159.155L101.103 159.071C100.987 158.511 100.766 157.977 100.453 157.499L101.019 156.817L99.8084 155.628L99.122 156.152C98.6434 155.838 98.1103 155.615 97.55 155.497L97.4662 154.617H95.7579L95.6741 155.497C95.1138 155.615 94.5806 155.838 94.1021 156.152L93.4209 155.586L92.2104 156.797L92.7502 157.499ZM98.1788 158.447C98.491 158.758 98.7039 159.155 98.7904 159.587C98.877 160.019 98.8333 160.468 98.665 160.875C98.4967 161.282 98.2113 161.631 97.8449 161.876C97.4785 162.121 97.0476 162.252 96.6068 162.252C96.166 162.252 95.7351 162.121 95.3687 161.876C95.0023 161.631 94.7169 161.282 94.5486 160.875C94.3803 160.468 94.3366 160.019 94.4232 159.587C94.5097 159.155 94.7226 158.758 95.0348 158.447C95.4522 158.031 96.0175 157.798 96.6068 157.798C97.1961 157.798 97.7614 158.031 98.1788 158.447Z" fill="white"/>
<path d="M104.54 108.096C102.263 111.573 100.663 115.449 99.8237 119.519L93.4414 120.122V132.478L99.8237 133.096C100.664 137.168 102.264 141.045 104.54 144.524L100.463 149.445L109.203 158.185L114.124 154.108C117.603 156.385 121.48 157.984 125.552 158.824L126.155 165.207H138.511L139.113 158.824C143.184 157.986 147.06 156.385 150.536 154.108L155.462 158.185L164.202 149.445L160.126 144.524C162.403 141.046 164.003 137.168 164.842 133.096L171.219 132.493V120.122L164.842 119.519C164.002 115.449 162.402 111.573 160.126 108.096L164.202 103.17L155.462 94.4353L150.536 98.5068C147.059 96.2307 143.184 94.6308 139.113 93.7908L138.511 87.4084H126.155L125.552 93.796C121.48 94.636 117.603 96.2359 114.124 98.512L109.203 94.4353L100.463 103.176L104.54 108.096ZM146.523 112.136C149.33 114.943 151.241 118.519 152.016 122.412C152.791 126.305 152.393 130.34 150.875 134.008C149.356 137.675 146.783 140.81 143.483 143.015C140.182 145.22 136.302 146.397 132.333 146.397C128.363 146.397 124.483 145.22 121.182 143.015C117.882 140.81 115.31 137.675 113.791 134.008C112.272 130.34 111.875 126.305 112.649 122.412C113.424 118.519 115.336 114.943 118.143 112.136C121.907 108.374 127.011 106.261 132.333 106.261C137.654 106.261 142.758 108.374 146.523 112.136Z" fill="#318AD1"/>
<path d="M114.123 128.841C114.058 128.841 113.995 128.818 113.946 128.774C113.898 128.73 113.867 128.67 113.861 128.605C113.564 125.969 113.809 123.299 114.581 120.761C115.353 118.222 116.636 115.869 118.351 113.844C118.374 113.818 118.401 113.797 118.432 113.781C118.462 113.765 118.496 113.756 118.53 113.753C118.565 113.751 118.599 113.755 118.632 113.765C118.664 113.776 118.695 113.793 118.721 113.815C118.747 113.838 118.769 113.865 118.784 113.896C118.8 113.926 118.809 113.96 118.812 113.994C118.814 114.029 118.81 114.063 118.8 114.096C118.789 114.128 118.772 114.159 118.75 114.185C117.08 116.155 115.832 118.446 115.081 120.917C114.33 123.388 114.093 125.987 114.385 128.553C114.391 128.622 114.369 128.691 114.325 128.745C114.281 128.799 114.218 128.833 114.149 128.841H114.123Z" fill="#318AD1"/>
<path d="M115.006 132.981C114.949 132.982 114.894 132.964 114.848 132.929C114.803 132.895 114.77 132.847 114.755 132.792C114.539 132.062 114.364 131.32 114.231 130.57C114.225 130.536 114.225 130.501 114.233 130.466C114.24 130.432 114.254 130.4 114.274 130.371C114.294 130.343 114.32 130.318 114.349 130.299C114.378 130.28 114.411 130.267 114.446 130.261C114.48 130.255 114.515 130.256 114.549 130.263C114.584 130.271 114.616 130.285 114.645 130.305C114.673 130.325 114.698 130.35 114.717 130.379C114.736 130.409 114.749 130.442 114.755 130.476C114.89 131.208 115.065 131.932 115.279 132.645C115.298 132.712 115.29 132.784 115.257 132.845C115.224 132.906 115.167 132.951 115.101 132.97C115.071 132.982 115.038 132.985 115.006 132.981Z" fill="#318AD1"/>
<path d="M89.6474 125.425H67.2464C67.1769 125.425 67.1102 125.397 67.0611 125.348C67.012 125.299 66.9844 125.232 66.9844 125.163V98.9313C66.9844 98.8618 67.012 98.7952 67.0611 98.746C67.1102 98.6969 67.1769 98.6693 67.2464 98.6693C67.3159 98.6693 67.3825 98.6969 67.4316 98.746C67.4808 98.7952 67.5084 98.8618 67.5084 98.9313V124.901H89.6474C89.7169 124.901 89.7835 124.928 89.8326 124.977C89.8818 125.027 89.9094 125.093 89.9094 125.163C89.908 125.232 89.88 125.298 89.8312 125.347C89.7823 125.395 89.7164 125.423 89.6474 125.425Z" fill="#318AD1"/>
<path d="M67.2438 100.273C67.9846 100.273 68.5852 99.6721 68.5852 98.9313C68.5852 98.1904 67.9846 97.5898 67.2438 97.5898C66.5029 97.5898 65.9023 98.1904 65.9023 98.9313C65.9023 99.6721 66.5029 100.273 67.2438 100.273Z" fill="#318AD1"/>
<path d="M203.943 147.234C204.684 147.234 205.284 146.633 205.284 145.892C205.284 145.151 204.684 144.551 203.943 144.551C203.202 144.551 202.602 145.151 202.602 145.892C202.602 146.633 203.202 147.234 203.943 147.234Z" fill="#318AD1"/>
<path d="M204.205 156.362H170.868V141.999H166.215V141.475H171.392V155.838H203.681V145.698H204.205V156.362Z" fill="#318AD1"/>
<path d="M245.691 160.024H188.633V214.751H245.691V160.024Z" fill="#318AD1"/>
<path opacity="0.4" d="M245.691 160.024H188.633V214.751H245.691V160.024Z" fill="white"/>
<path opacity="0.4" d="M245.684 160.024H206.793V214.751H245.684V160.024Z" fill="white"/>
<path d="M243.741 162.823H208.738V169.598H243.741V162.823Z" fill="#318AD1"/>
<path d="M243.741 171.296H208.738V178.071H243.741V171.296Z" fill="#318AD1"/>
<path d="M243.741 179.763H208.738V186.539H243.741V179.763Z" fill="#318AD1"/>
<path d="M243.741 188.237H208.738V195.012H243.741V188.237Z" fill="#318AD1"/>
<path d="M243.741 196.71H208.738V203.485H243.741V196.71Z" fill="#318AD1"/>
<path d="M243.741 205.183H208.738V211.958H243.741V205.183Z" fill="#318AD1"/>
<path d="M204.762 162.823H190.672V169.598H204.762V162.823Z" fill="#318AD1"/>
<path d="M204.762 171.296H190.672V178.071H204.762V171.296Z" fill="#318AD1"/>
<path d="M204.762 179.763H190.672V186.539H204.762V179.763Z" fill="#318AD1"/>
<path d="M204.762 188.237H190.672V195.012H204.762V188.237Z" fill="#318AD1"/>
<path d="M204.762 196.71H190.672V203.485H204.762V196.71Z" fill="#318AD1"/>
<path d="M204.762 205.183H190.672V211.958H204.762V205.183Z" fill="#318AD1"/>
<path opacity="0.3" d="M242.028 163.703H241.211V168.718H242.028V163.703Z" fill="white"/>
<path opacity="0.3" d="M240.458 163.703H239.641V168.718H240.458V163.703Z" fill="white"/>
<path opacity="0.3" d="M238.884 163.703H238.066V168.718H238.884V163.703Z" fill="white"/>
<path opacity="0.3" d="M237.314 163.703H236.496V168.718H237.314V163.703Z" fill="white"/>
<path opacity="0.3" d="M235.739 163.703H234.922V168.718H235.739V163.703Z" fill="white"/>
<path opacity="0.3" d="M242.028 172.176H241.211V177.185H242.028V172.176Z" fill="white"/>
<path opacity="0.3" d="M240.458 172.176H239.641V177.185H240.458V172.176Z" fill="white"/>
<path opacity="0.3" d="M238.884 172.176H238.066V177.185H238.884V172.176Z" fill="white"/>
<path opacity="0.3" d="M237.314 172.176H236.496V177.185H237.314V172.176Z" fill="white"/>
<path opacity="0.3" d="M235.739 172.176H234.922V177.185H235.739V172.176Z" fill="white"/>
<path opacity="0.3" d="M242.028 180.649H241.211V185.658H242.028V180.649Z" fill="white"/>
<path opacity="0.3" d="M240.458 180.649H239.641V185.658H240.458V180.649Z" fill="white"/>
<path opacity="0.3" d="M238.884 180.649H238.066V185.658H238.884V180.649Z" fill="white"/>
<path opacity="0.3" d="M237.314 180.649H236.496V185.658H237.314V180.649Z" fill="white"/>
<path opacity="0.3" d="M235.739 180.649H234.922V185.658H235.739V180.649Z" fill="white"/>
<path opacity="0.3" d="M242.028 189.122H241.211V194.137H242.028V189.122Z" fill="white"/>
<path opacity="0.3" d="M240.458 189.122H239.641V194.137H240.458V189.122Z" fill="white"/>
<path opacity="0.3" d="M238.884 189.122H238.066V194.137H238.884V189.122Z" fill="white"/>
<path opacity="0.3" d="M237.314 189.122H236.496V194.137H237.314V189.122Z" fill="white"/>
<path opacity="0.3" d="M235.739 189.122H234.922V194.137H235.739V189.122Z" fill="white"/>
<path opacity="0.3" d="M242.028 197.595H241.211V202.605H242.028V197.595Z" fill="white"/>
<path opacity="0.3" d="M240.458 197.595H239.641V202.605H240.458V197.595Z" fill="white"/>
<path opacity="0.3" d="M238.884 197.595H238.066V202.605H238.884V197.595Z" fill="white"/>
<path opacity="0.3" d="M237.314 197.595H236.496V202.605H237.314V197.595Z" fill="white"/>
<path opacity="0.3" d="M235.739 197.595H234.922V202.605H235.739V197.595Z" fill="white"/>
<path opacity="0.3" d="M242.028 206.063H241.211V211.078H242.028V206.063Z" fill="white"/>
<path opacity="0.3" d="M240.458 206.063H239.641V211.078H240.458V206.063Z" fill="white"/>
<path opacity="0.3" d="M238.884 206.063H238.066V211.078H238.884V206.063Z" fill="white"/>
<path opacity="0.3" d="M237.314 206.063H236.496V211.078H237.314V206.063Z" fill="white"/>
<path opacity="0.3" d="M235.739 206.063H234.922V211.078H235.739V206.063Z" fill="white"/>
<path opacity="0.2" d="M212.811 166.208C212.811 166.372 212.762 166.533 212.67 166.67C212.579 166.807 212.449 166.914 212.297 166.977C212.144 167.04 211.977 167.057 211.815 167.025C211.654 166.993 211.505 166.913 211.389 166.797C211.272 166.68 211.193 166.532 211.161 166.37C211.128 166.208 211.145 166.041 211.208 165.889C211.271 165.736 211.378 165.606 211.515 165.515C211.652 165.423 211.813 165.374 211.978 165.374C212.199 165.374 212.411 165.462 212.567 165.618C212.723 165.775 212.811 165.987 212.811 166.208Z" fill="white"/>
<path opacity="0.2" d="M218.049 166.208C218.049 166.372 218 166.533 217.909 166.67C217.817 166.807 217.687 166.914 217.535 166.977C217.383 167.04 217.215 167.057 217.053 167.025C216.892 166.993 216.743 166.913 216.627 166.797C216.51 166.68 216.431 166.532 216.399 166.37C216.367 166.208 216.383 166.041 216.446 165.889C216.509 165.736 216.616 165.606 216.753 165.515C216.89 165.423 217.051 165.374 217.216 165.374C217.437 165.374 217.649 165.462 217.805 165.618C217.961 165.775 218.049 165.987 218.049 166.208Z" fill="white"/>
<path opacity="0.4" d="M223.291 166.208C223.291 166.372 223.242 166.533 223.151 166.67C223.059 166.807 222.929 166.914 222.777 166.977C222.625 167.04 222.457 167.057 222.296 167.025C222.134 166.993 221.986 166.913 221.869 166.797C221.753 166.68 221.673 166.532 221.641 166.37C221.609 166.208 221.625 166.041 221.688 165.889C221.751 165.736 221.858 165.606 221.995 165.515C222.132 165.423 222.293 165.374 222.458 165.374C222.679 165.374 222.891 165.462 223.047 165.618C223.204 165.775 223.291 165.987 223.291 166.208Z" fill="white"/>
<path opacity="0.4" d="M212.811 174.681C212.811 174.845 212.762 175.007 212.67 175.144C212.579 175.281 212.449 175.387 212.297 175.45C212.144 175.514 211.977 175.53 211.815 175.498C211.654 175.466 211.505 175.386 211.389 175.27C211.272 175.153 211.193 175.005 211.161 174.843C211.128 174.682 211.145 174.514 211.208 174.362C211.271 174.21 211.378 174.08 211.515 173.988C211.652 173.896 211.813 173.848 211.978 173.848C212.199 173.848 212.411 173.935 212.567 174.092C212.723 174.248 212.811 174.46 212.811 174.681Z" fill="white"/>
<path opacity="0.2" d="M218.049 174.681C218.049 174.845 218 175.007 217.909 175.144C217.817 175.281 217.687 175.387 217.535 175.45C217.383 175.514 217.215 175.53 217.053 175.498C216.892 175.466 216.743 175.386 216.627 175.27C216.51 175.153 216.431 175.005 216.399 174.843C216.367 174.682 216.383 174.514 216.446 174.362C216.509 174.21 216.616 174.08 216.753 173.988C216.89 173.896 217.051 173.848 217.216 173.848C217.437 173.848 217.649 173.935 217.805 174.092C217.961 174.248 218.049 174.46 218.049 174.681Z" fill="white"/>
<path opacity="0.4" d="M223.291 174.681C223.291 174.845 223.242 175.007 223.151 175.144C223.059 175.281 222.929 175.387 222.777 175.45C222.625 175.514 222.457 175.53 222.296 175.498C222.134 175.466 221.986 175.386 221.869 175.27C221.753 175.153 221.673 175.005 221.641 174.843C221.609 174.682 221.625 174.514 221.688 174.362C221.751 174.21 221.858 174.08 221.995 173.988C222.132 173.896 222.293 173.848 222.458 173.848C222.679 173.848 222.891 173.935 223.047 174.092C223.204 174.248 223.291 174.46 223.291 174.681Z" fill="white"/>
<path opacity="0.2" d="M212.811 183.154C212.811 183.318 212.762 183.48 212.67 183.617C212.579 183.754 212.449 183.86 212.297 183.923C212.144 183.987 211.977 184.003 211.815 183.971C211.654 183.939 211.505 183.859 211.389 183.743C211.272 183.626 211.193 183.478 211.161 183.316C211.128 183.155 211.145 182.987 211.208 182.835C211.271 182.683 211.378 182.553 211.515 182.461C211.652 182.369 211.813 182.321 211.978 182.321C212.199 182.321 212.411 182.408 212.567 182.565C212.723 182.721 212.811 182.933 212.811 183.154Z" fill="white"/>
<path opacity="0.4" d="M218.049 183.154C218.049 183.318 218 183.48 217.909 183.617C217.817 183.754 217.687 183.86 217.535 183.923C217.383 183.987 217.215 184.003 217.053 183.971C216.892 183.939 216.743 183.859 216.627 183.743C216.51 183.626 216.431 183.478 216.399 183.316C216.367 183.155 216.383 182.987 216.446 182.835C216.509 182.683 216.616 182.553 216.753 182.461C216.89 182.369 217.051 182.321 217.216 182.321C217.437 182.321 217.649 182.408 217.805 182.565C217.961 182.721 218.049 182.933 218.049 183.154Z" fill="white"/>
<path opacity="0.2" d="M223.291 183.154C223.291 183.318 223.242 183.48 223.151 183.617C223.059 183.754 222.929 183.86 222.777 183.923C222.625 183.987 222.457 184.003 222.296 183.971C222.134 183.939 221.986 183.859 221.869 183.743C221.753 183.626 221.673 183.478 221.641 183.316C221.609 183.155 221.625 182.987 221.688 182.835C221.751 182.683 221.858 182.553 221.995 182.461C222.132 182.369 222.293 182.321 222.458 182.321C222.679 182.321 222.891 182.408 223.047 182.565C223.204 182.721 223.291 182.933 223.291 183.154Z" fill="white"/>
<path opacity="0.4" d="M212.811 191.627C212.811 191.792 212.762 191.953 212.67 192.09C212.579 192.227 212.449 192.334 212.297 192.397C212.144 192.46 211.977 192.476 211.815 192.444C211.654 192.412 211.505 192.333 211.389 192.216C211.272 192.099 211.193 191.951 211.161 191.789C211.128 191.628 211.145 191.46 211.208 191.308C211.271 191.156 211.378 191.026 211.515 190.934C211.652 190.843 211.813 190.794 211.978 190.794C212.199 190.794 212.411 190.881 212.567 191.038C212.723 191.194 212.811 191.406 212.811 191.627Z" fill="white"/>
<path opacity="0.2" d="M218.049 191.627C218.049 191.792 218 191.953 217.909 192.09C217.817 192.227 217.687 192.334 217.535 192.397C217.383 192.46 217.215 192.476 217.053 192.444C216.892 192.412 216.743 192.333 216.627 192.216C216.51 192.099 216.431 191.951 216.399 191.789C216.367 191.628 216.383 191.46 216.446 191.308C216.509 191.156 216.616 191.026 216.753 190.934C216.89 190.843 217.051 190.794 217.216 190.794C217.437 190.794 217.649 190.881 217.805 191.038C217.961 191.194 218.049 191.406 218.049 191.627Z" fill="white"/>
<path opacity="0.2" d="M223.291 191.627C223.291 191.792 223.242 191.953 223.151 192.09C223.059 192.227 222.929 192.334 222.777 192.397C222.625 192.46 222.457 192.476 222.296 192.444C222.134 192.412 221.986 192.333 221.869 192.216C221.753 192.099 221.673 191.951 221.641 191.789C221.609 191.628 221.625 191.46 221.688 191.308C221.751 191.156 221.858 191.026 221.995 190.934C222.132 190.843 222.293 190.794 222.458 190.794C222.679 190.794 222.891 190.881 223.047 191.038C223.204 191.194 223.291 191.406 223.291 191.627Z" fill="white"/>
<path opacity="0.2" d="M212.811 200.1C212.811 200.265 212.762 200.426 212.67 200.563C212.579 200.7 212.449 200.807 212.297 200.87C212.144 200.933 211.977 200.949 211.815 200.917C211.654 200.885 211.505 200.806 211.389 200.689C211.272 200.572 211.193 200.424 211.161 200.262C211.128 200.101 211.145 199.933 211.208 199.781C211.271 199.629 211.378 199.499 211.515 199.407C211.652 199.316 211.813 199.267 211.978 199.267C212.199 199.267 212.411 199.355 212.567 199.511C212.723 199.667 212.811 199.879 212.811 200.1Z" fill="white"/>
<path opacity="0.4" d="M218.049 200.1C218.049 200.265 218 200.426 217.909 200.563C217.817 200.7 217.687 200.807 217.535 200.87C217.383 200.933 217.215 200.949 217.053 200.917C216.892 200.885 216.743 200.806 216.627 200.689C216.51 200.572 216.431 200.424 216.399 200.262C216.367 200.101 216.383 199.933 216.446 199.781C216.509 199.629 216.616 199.499 216.753 199.407C216.89 199.316 217.051 199.267 217.216 199.267C217.437 199.267 217.649 199.355 217.805 199.511C217.961 199.667 218.049 199.879 218.049 200.1Z" fill="white"/>
<path opacity="0.4" d="M223.291 200.1C223.291 200.265 223.242 200.426 223.151 200.563C223.059 200.7 222.929 200.807 222.777 200.87C222.625 200.933 222.457 200.949 222.296 200.917C222.134 200.885 221.986 200.806 221.869 200.689C221.753 200.572 221.673 200.424 221.641 200.262C221.609 200.101 221.625 199.933 221.688 199.781C221.751 199.629 221.858 199.499 221.995 199.407C222.132 199.316 222.293 199.267 222.458 199.267C222.679 199.267 222.891 199.355 223.047 199.511C223.204 199.667 223.291 199.879 223.291 200.1Z" fill="white"/>
<path opacity="0.4" d="M212.811 208.552C212.811 208.717 212.762 208.878 212.67 209.015C212.579 209.152 212.449 209.259 212.297 209.322C212.144 209.385 211.977 209.401 211.815 209.369C211.654 209.337 211.505 209.258 211.389 209.141C211.272 209.025 211.193 208.876 211.161 208.715C211.128 208.553 211.145 208.385 211.208 208.233C211.271 208.081 211.378 207.951 211.515 207.859C211.652 207.768 211.813 207.719 211.978 207.719C212.199 207.719 212.411 207.807 212.567 207.963C212.723 208.119 212.811 208.331 212.811 208.552Z" fill="white"/>
<path opacity="0.2" d="M218.049 208.552C218.049 208.717 218 208.878 217.909 209.015C217.817 209.152 217.687 209.259 217.535 209.322C217.383 209.385 217.215 209.401 217.053 209.369C216.892 209.337 216.743 209.258 216.627 209.141C216.51 209.025 216.431 208.876 216.399 208.715C216.367 208.553 216.383 208.385 216.446 208.233C216.509 208.081 216.616 207.951 216.753 207.859C216.89 207.768 217.051 207.719 217.216 207.719C217.437 207.719 217.649 207.807 217.805 207.963C217.961 208.119 218.049 208.331 218.049 208.552Z" fill="white"/>
<path opacity="0.4" d="M223.291 208.552C223.291 208.717 223.242 208.878 223.151 209.015C223.059 209.152 222.929 209.259 222.777 209.322C222.625 209.385 222.457 209.401 222.296 209.369C222.134 209.337 221.986 209.258 221.869 209.141C221.753 209.025 221.673 208.876 221.641 208.715C221.609 208.553 221.625 208.385 221.688 208.233C221.751 208.081 221.858 207.951 221.995 207.859C222.132 207.768 222.293 207.719 222.458 207.719C222.679 207.719 222.891 207.807 223.047 207.963C223.204 208.119 223.291 208.331 223.291 208.552Z" fill="white"/>
<path opacity="0.3" d="M206.795 160.024H188.633V214.751H206.795V160.024Z" fill="#318AD1"/>
<path d="M241.117 91.8362H188.089C186.659 91.8362 185.5 92.9951 185.5 94.4247V138.189C185.5 139.619 186.659 140.778 188.089 140.778H241.117C242.547 140.778 243.706 139.619 243.706 138.189V94.4247C243.706 92.9951 242.547 91.8362 241.117 91.8362Z" fill="#318AD1"/>
<path opacity="0.5" d="M241.117 91.8362H188.089C186.659 91.8362 185.5 92.9951 185.5 94.4247V138.189C185.5 139.619 186.659 140.778 188.089 140.778H241.117C242.547 140.778 243.706 139.619 243.706 138.189V94.4247C243.706 92.9951 242.547 91.8362 241.117 91.8362Z" fill="white"/>
<path d="M187.927 91.8362H241.323C241.955 91.8362 242.562 92.0874 243.009 92.5345C243.456 92.9816 243.707 93.5881 243.707 94.2204V100.372H185.496V94.2623C185.496 93.9433 185.559 93.6274 185.681 93.3327C185.804 93.038 185.983 92.7703 186.209 92.5449C186.434 92.3196 186.702 92.141 186.997 92.0194C187.292 91.8977 187.608 91.8355 187.927 91.8362Z" fill="#318AD1"/>
<path opacity="0.5" d="M240.414 96.7251C240.416 97.0945 240.307 97.4559 240.102 97.7634C239.898 98.071 239.606 98.3109 239.265 98.4528C238.924 98.5946 238.549 98.632 238.186 98.5602C237.824 98.4884 237.491 98.3106 237.23 98.0494C236.969 97.7882 236.791 97.4553 236.719 97.093C236.647 96.7306 236.685 96.3551 236.827 96.014C236.968 95.6729 237.208 95.3817 237.516 95.1771C237.823 94.9725 238.185 94.8638 238.554 94.8649C238.799 94.8649 239.04 94.913 239.266 95.0065C239.492 95.1 239.697 95.237 239.87 95.4097C240.042 95.5825 240.179 95.7875 240.273 96.0132C240.366 96.2389 240.414 96.4808 240.414 96.7251Z" fill="white"/>
<path opacity="0.5" d="M235.121 96.7252C235.123 97.0944 235.014 97.4555 234.81 97.763C234.605 98.0705 234.314 98.3104 233.974 98.4524C233.633 98.5944 233.258 98.632 232.895 98.5607C232.533 98.4893 232.2 98.312 231.939 98.0514C231.677 97.7907 231.499 97.4583 231.427 97.0963C231.354 96.7343 231.391 96.3589 231.532 96.0178C231.673 95.6766 231.912 95.385 232.219 95.1797C232.526 94.9745 232.887 94.865 233.256 94.865C233.75 94.865 234.224 95.0608 234.573 95.4095C234.923 95.7582 235.12 96.2314 235.121 96.7252Z" fill="white"/>
<path opacity="0.5" d="M229.825 96.7251C229.826 97.0945 229.717 97.4559 229.512 97.7634C229.308 98.071 229.017 98.3109 228.675 98.4528C228.334 98.5946 227.959 98.632 227.597 98.5602C227.234 98.4884 226.901 98.3106 226.64 98.0494C226.379 97.7882 226.201 97.4553 226.129 97.093C226.058 96.7306 226.095 96.3551 226.237 96.014C226.379 95.6729 226.618 95.3817 226.926 95.1771C227.234 94.9725 227.595 94.8638 227.964 94.8649C228.209 94.8649 228.451 94.913 228.676 95.0065C228.902 95.1 229.107 95.237 229.28 95.4097C229.453 95.5825 229.59 95.7875 229.683 96.0132C229.777 96.2389 229.825 96.4808 229.825 96.7251Z" fill="white"/>
<path opacity="0.6" d="M228.454 107.504H198.602V109.243H228.454V107.504Z" fill="white"/>
<path opacity="0.6" d="M220.426 111.266H199.062V113.006H220.426V111.266Z" fill="#263238"/>
<path d="M236.522 107.504H230.648V109.243H236.522V107.504Z" fill="#318AD1"/>
<path d="M196.526 107.504H190.652V109.243H196.526V107.504Z" fill="#318AD1"/>
<path d="M228.454 115.442H198.602V117.182H228.454V115.442Z" fill="#318AD1"/>
<path opacity="0.6" d="M236.522 115.442H230.648V117.182H236.522V115.442Z" fill="white"/>
<path d="M196.526 115.442H190.652V117.182H196.526V115.442Z" fill="#318AD1"/>
<path d="M228.454 131.98H198.602V133.72H228.454V131.98Z" fill="#318AD1"/>
<path opacity="0.6" d="M236.522 131.98H230.648V133.72H236.522V131.98Z" fill="white"/>
<path d="M228.454 119.624H198.602V121.364H228.454V119.624Z" fill="#318AD1"/>
<path opacity="0.6" d="M236.522 119.624H230.648V121.364H236.522V119.624Z" fill="#263238"/>
<path opacity="0.6" d="M196.526 119.624H190.652V121.364H196.526V119.624Z" fill="#263238"/>
<path d="M236.952 111.334H222.762V113.074H236.952V111.334Z" fill="#318AD1"/>
<path opacity="0.6" d="M219.965 123.271H198.602V125.011H219.965V123.271Z" fill="white"/>
<path d="M236.491 123.339H222.301V125.079H236.491V123.339Z" fill="#318AD1"/>
<path opacity="0.6" d="M209.281 127.049H198.602V128.789H209.281V127.049Z" fill="#263238"/>
<path d="M83.2306 41.7366H30.2018C28.7722 41.7366 27.6133 42.8955 27.6133 44.3251V88.0896C27.6133 89.5192 28.7722 90.6782 30.2018 90.6782H83.2306C84.6603 90.6782 85.8192 89.5192 85.8192 88.0896V44.3251C85.8192 42.8955 84.6603 41.7366 83.2306 41.7366Z" fill="#318AD1"/>
<path opacity="0.5" d="M83.2306 41.7366H30.2018C28.7722 41.7366 27.6133 42.8955 27.6133 44.3251V88.0896C27.6133 89.5192 28.7722 90.6782 30.2018 90.6782H83.2306C84.6603 90.6782 85.8192 89.5192 85.8192 88.0896V44.3251C85.8192 42.8955 84.6603 41.7366 83.2306 41.7366Z" fill="white"/>
<path d="M30.0342 41.7366H83.435C84.0673 41.7366 84.6738 41.9878 85.1209 42.4349C85.568 42.882 85.8192 43.4884 85.8192 44.1208V50.2725H27.6133V44.1627C27.6133 43.5202 27.8682 42.9039 28.322 42.449C28.7759 41.9942 29.3916 41.738 30.0342 41.7366Z" fill="#318AD1"/>
<path opacity="0.5" d="M82.5277 46.636C82.5267 47.006 82.4155 47.3674 82.2085 47.6741C82.0015 47.9808 81.7079 48.219 81.3651 48.3584C81.0223 48.4979 80.6458 48.5322 80.2835 48.457C79.9211 48.3819 79.5893 48.2006 79.3303 47.9364C79.0712 47.6722 78.8966 47.3368 78.8286 46.9731C78.7606 46.6093 78.8024 46.2336 78.9486 45.8936C79.0948 45.5536 79.3387 45.2648 79.6495 45.0639C79.9603 44.863 80.3237 44.759 80.6937 44.7653C81.1844 44.7722 81.6524 44.9726 81.9959 45.323C82.3394 45.6734 82.5306 46.1453 82.5277 46.636Z" fill="white"/>
<path opacity="0.5" d="M77.2348 46.636C77.2348 47.0049 77.1254 47.3656 76.9204 47.6723C76.7154 47.9791 76.4241 48.2182 76.0832 48.3594C75.7424 48.5006 75.3673 48.5375 75.0054 48.4655C74.6436 48.3936 74.3112 48.2159 74.0503 47.955C73.7894 47.6941 73.6117 47.3617 73.5398 46.9999C73.4678 46.638 73.5047 46.2629 73.6459 45.9221C73.7871 45.5812 74.0262 45.2899 74.333 45.0849C74.6397 44.8799 75.0004 44.7705 75.3693 44.7705C75.6145 44.7698 75.8574 44.8176 76.084 44.9111C76.3107 45.0046 76.5166 45.142 76.69 45.3153C76.8633 45.4887 77.0007 45.6946 77.0942 45.9213C77.1877 46.1479 77.2355 46.3908 77.2348 46.636Z" fill="white"/>
<path opacity="0.5" d="M71.9379 46.636C71.9379 47.0051 71.8284 47.366 71.6232 47.6729C71.418 47.9798 71.1263 48.2189 70.7851 48.3599C70.444 48.5009 70.0686 48.5376 69.7066 48.4652C69.3446 48.3928 69.0122 48.2146 68.7516 47.9532C68.4909 47.6917 68.3136 47.3589 68.2422 46.9967C68.1709 46.6345 68.2085 46.2592 68.3505 45.9184C68.4925 45.5777 68.7324 45.2867 69.0399 45.0823C69.3474 44.878 69.7085 44.7695 70.0777 44.7705C70.3224 44.7705 70.5648 44.8188 70.7908 44.9126C71.0168 45.0064 71.2221 45.1439 71.3949 45.3172C71.5677 45.4905 71.7046 45.6962 71.7978 45.9225C71.891 46.1488 71.9386 46.3912 71.9379 46.636Z" fill="white"/>
<path d="M75.0568 69.0213C73.1285 66.4327 69.1723 65.1699 66.5366 67.0406C66.1329 64.1465 64.596 61.5313 62.2641 59.7703C59.9322 58.0093 56.9962 57.2468 54.1021 57.6505C51.208 58.0542 48.5928 59.5911 46.8318 61.923C45.0708 64.2549 44.3083 67.1909 44.712 70.085C42.1654 69.5034 39.3672 70.1165 37.7166 72.7469C35.5682 76.1529 38.3506 79.5327 38.3506 79.5327L53.2846 79.6218V74.146H51.3773C51.3017 74.1468 51.2275 74.1252 51.1642 74.0839C51.1009 74.0426 51.0512 73.9834 51.0215 73.9139C50.9918 73.8443 50.9833 73.7676 50.9972 73.6932C51.0111 73.6189 51.0467 73.5504 51.0996 73.4963L53.2951 71.2011L55.8418 68.5445C55.8779 68.5074 55.9211 68.4779 55.9688 68.4578C56.0165 68.4377 56.0677 68.4273 56.1195 68.4273C56.1713 68.4273 56.2225 68.4377 56.2702 68.4578C56.3179 68.4779 56.3611 68.5074 56.3972 68.5445L58.9386 71.2011L61.1394 73.4963C61.1898 73.5512 61.2233 73.6196 61.2359 73.6931C61.2484 73.7666 61.2395 73.8422 61.2102 73.9107C61.1809 73.9793 61.1324 74.038 61.0706 74.0797C61.0088 74.1215 60.9362 74.1445 60.8617 74.146H58.9491V79.648L74.8472 79.7371C77.1109 77.1381 76.9904 71.6099 75.0568 69.0213Z" fill="white"/>
<path d="M52.672 216.208C52.672 216.208 98.3228 205.513 100.492 215.018C103.594 228.595 70.6556 237.723 53.1121 237.168C35.5686 236.612 52.672 216.208 52.672 216.208Z" fill="#263238"/>
<path opacity="0.2" d="M52.672 216.208C52.672 216.208 98.3228 205.513 100.492 215.018C103.594 228.595 70.6556 237.723 53.1121 237.168C35.5686 236.612 52.672 216.208 52.672 216.208Z" fill="#318AD1"/>
<path opacity="0.7" d="M85.515 217.952L64.073 231.576L66.934 235.643C66.934 235.643 65.4301 237.88 62.5586 231.016L75.821 222.249C75.821 222.249 71.671 221.835 71.7758 221.201C71.9539 220.153 81.0715 218.104 85.2321 217.193C85.3325 217.164 85.4399 217.175 85.5328 217.223C85.6257 217.27 85.6971 217.351 85.7329 217.449C85.7687 217.547 85.7661 217.655 85.7257 217.751C85.6853 217.848 85.6101 217.925 85.515 217.968V217.952Z" fill="#318AD1"/>
<path opacity="0.7" d="M63.2996 230.036L67.02 236.062C62.4285 236.859 57.7727 237.225 53.1131 237.157C51.5841 237.146 50.0684 236.871 48.6329 236.345L47.3281 233.955L50.1368 228.296L63.2996 230.036Z" fill="#318AD1"/>
<path d="M70.3948 227.646L60.8633 233.693L62.5715 238.32L73.7642 233.29L70.3948 227.646Z" fill="#B97964"/>
<path d="M55.6133 235.245L56.5512 238.572C56.7633 238.626 56.9585 238.732 57.1195 238.88C57.2805 239.028 57.4021 239.214 57.4735 239.421C57.5025 239.919 57.4458 240.419 57.3058 240.898L59.8105 250.074C60.1149 249.994 60.4087 249.877 60.6856 249.728C60.9538 249.538 61.1984 249.316 61.414 249.068C62.0952 248.287 62.1685 247.15 62.1947 246.311C62.2366 244.907 63.0436 240.794 63.0436 240.794C63.3299 240.003 63.8285 239.307 64.4846 238.782C64.7401 238.597 64.9505 238.356 65.1002 238.079C65.2499 237.801 65.335 237.493 65.3492 237.178C65.3323 237.004 65.2777 236.836 65.1893 236.685C65.1008 236.534 64.9807 236.405 64.8371 236.305C64.6935 236.205 64.53 236.138 64.3578 236.108C64.1857 236.078 64.009 236.085 63.8401 236.13L62.9283 236.24C62.6045 236.01 62.3797 235.666 62.299 235.278C62.2183 234.889 62.2878 234.484 62.4934 234.144C62.4934 234.144 63.0174 232.148 62.1947 232.483C61.7126 232.672 59.6114 233.615 57.9241 234.307L56.8342 234.752L55.6133 235.245Z" fill="#263238"/>
<path d="M62.6924 242.984C62.704 242.959 62.7073 242.93 62.7016 242.903C62.696 242.875 62.6817 242.851 62.661 242.832C62.4622 242.645 62.2156 242.516 61.9483 242.46C61.8016 242.46 61.7387 242.664 61.8802 242.696C62.1163 242.744 62.3352 242.854 62.5143 243.015C62.5245 243.029 62.5379 243.041 62.5533 243.049C62.5688 243.057 62.586 243.061 62.6033 243.061C62.6207 243.061 62.6379 243.057 62.6533 243.049C62.6688 243.041 62.6822 243.029 62.6924 243.015V242.984Z" fill="#318AD1"/>
<path d="M62.8783 242.172C62.8899 242.146 62.8931 242.118 62.8875 242.091C62.8818 242.063 62.8676 242.039 62.8468 242.02C62.6483 241.833 62.4014 241.706 62.1342 241.653C61.9875 241.622 61.9194 241.852 62.0661 241.884C62.3021 241.932 62.521 242.042 62.7001 242.203C62.7123 242.216 62.7273 242.226 62.744 242.232C62.7607 242.237 62.7785 242.239 62.796 242.236C62.8135 242.234 62.8301 242.227 62.8444 242.217C62.8587 242.206 62.8703 242.193 62.8783 242.177V242.172Z" fill="#318AD1"/>
<path d="M63.0349 241.349C63.0454 241.323 63.0481 241.294 63.0425 241.266C63.0369 241.238 63.0233 241.212 63.0034 241.192C62.8009 241.008 62.5531 240.881 62.2855 240.825C62.1441 240.794 62.0759 241.024 62.2226 241.056C62.4576 241.106 62.6747 241.218 62.8514 241.381C62.864 241.393 62.8794 241.403 62.8963 241.408C62.9132 241.413 62.9312 241.415 62.9488 241.411C62.9663 241.408 62.9828 241.401 62.9969 241.39C63.0109 241.379 63.0222 241.365 63.0296 241.349H63.0349Z" fill="#318AD1"/>
<path opacity="0.2" d="M56.8342 234.752L55.6133 235.276L56.5512 238.603C56.7633 238.657 56.9585 238.763 57.1195 238.911C57.2805 239.06 57.4021 239.245 57.4735 239.452C57.5025 239.951 57.4458 240.451 57.3058 240.93L59.8105 250.105C60.1149 250.025 60.4087 249.909 60.6856 249.759C60.8218 249.66 60.9424 249.56 61.0576 249.461L57.0176 234.7L56.8342 234.752Z" fill="white"/>
<path d="M64.3114 242.02C64.2218 242.019 64.1323 242.01 64.0442 241.994C63.6218 241.839 63.2259 241.62 62.8704 241.344L62.7656 241.276L62.8809 241.229C63.1934 241.105 63.516 241.009 63.8451 240.94C64.1812 240.868 64.5307 240.888 64.8564 240.998C64.9497 241.009 65.0369 241.049 65.1048 241.114C65.1727 241.179 65.2175 241.264 65.2324 241.357C65.2472 241.45 65.2313 241.545 65.1871 241.627C65.1428 241.71 65.0727 241.776 64.9874 241.815C64.7891 241.953 64.5526 242.024 64.3114 242.02ZM63.0433 241.312C63.3609 241.551 63.7148 241.737 64.0913 241.863C64.2341 241.895 64.382 241.899 64.5261 241.872C64.6702 241.846 64.8075 241.791 64.9297 241.711C64.9888 241.676 65.0375 241.626 65.0706 241.566C65.1038 241.506 65.1203 241.439 65.1184 241.37C65.0869 241.234 64.9297 241.155 64.8354 241.119C64.5294 241.018 64.2022 241 63.887 241.066C63.599 241.123 63.3167 241.206 63.0433 241.312Z" fill="#318AD1"/>
<path d="M62.8376 241.381V241.26C62.7904 240.811 62.8098 240.357 62.8952 239.913C62.9499 239.758 63.0351 239.614 63.1458 239.492C63.2564 239.37 63.3904 239.271 63.5397 239.201C63.6166 239.152 63.707 239.129 63.7979 239.134C63.8888 239.14 63.9755 239.175 64.0454 239.233C64.1154 239.291 64.165 239.37 64.1871 239.459C64.2093 239.547 64.2028 239.64 64.1685 239.725C64.0937 240.061 63.9289 240.371 63.6917 240.621C63.464 240.864 63.215 241.087 62.9476 241.286L62.8376 241.381ZM63.786 239.285C63.7158 239.285 63.6463 239.299 63.5817 239.326C63.4485 239.389 63.3294 239.478 63.2313 239.588C63.1332 239.698 63.0581 239.826 63.0105 239.966C62.9299 240.348 62.9104 240.741 62.9529 241.129C63.1801 240.955 63.3922 240.762 63.5869 240.553C63.8046 240.318 63.958 240.031 64.0323 239.719C64.0522 239.657 64.0564 239.59 64.0445 239.525C64.0327 239.46 64.0051 239.399 63.9642 239.347C63.9407 239.325 63.9128 239.307 63.8821 239.295C63.8515 239.283 63.8188 239.278 63.786 239.279V239.285Z" fill="#318AD1"/>
<path d="M71.5304 187.162C71.5304 187.162 73.1968 202.002 73.6264 202.798C75.1356 205.492 85.1178 210.134 85.1178 210.134L90.2058 209.086L93.8738 212.131L91.4686 214.012L88.6495 212.964C87.1102 213.239 85.5495 213.376 83.9859 213.373C81.3659 213.373 68.6799 210.161 66.5629 206.624C64.446 203.087 63.4766 186.712 63.4766 186.712L71.5304 187.162Z" fill="#B97964"/>
<path d="M63.2529 192.994C63.2529 192.994 59.3439 179.962 64.2171 176.342C69.0903 172.721 72.9627 190.647 72.9627 190.647L63.2529 192.994Z" fill="#318AD1"/>
<path opacity="0.3" d="M63.2529 192.994C63.2529 192.994 59.3439 179.962 64.2171 176.342C69.0903 172.721 72.9627 190.647 72.9627 190.647L63.2529 192.994Z" fill="white"/>
<path d="M66.3387 216.836L66.302 199.544L65.82 175.755L55.7225 173.659L46.8145 173.266L36.7327 177.924L36.4969 183.73C36.4969 183.73 37.6497 210.381 37.5868 211.188C37.5082 212.173 34.6367 218.351 34.6367 218.351C47.4118 221.264 66.5483 217.717 66.3387 216.836Z" fill="#318AD1"/>
<path opacity="0.3" d="M66.3387 216.836L66.302 199.544L65.82 175.755L55.7225 173.659L46.8145 173.266L36.7327 177.924L36.4969 183.73C36.4969 183.73 37.6497 210.381 37.5868 211.188C37.5082 212.173 34.6367 218.351 34.6367 218.351C47.4118 221.264 66.5483 217.717 66.3387 216.836Z" fill="white"/>
<path d="M51.8757 177.112C51.8757 177.112 54.3543 179.318 55.6223 176.467L56.2826 176.991C56.2826 176.991 56.2197 179.114 55.0145 179.821C55.3079 181 60.3383 198.135 61.2396 206.77L59.8667 210.276L56.1987 207.389C56.1987 207.389 54.4276 192.575 53.8198 179.983C53.1087 179.745 52.4586 179.354 51.9154 178.837C51.3722 178.32 50.949 177.69 50.6758 176.991L51.8757 177.112Z" fill="#318AD1"/>
<path opacity="0.2" d="M55.0703 177.416L57.2187 179.087L57.5698 174.073L56.8886 173.926L56.3174 177.306L55.3009 176.714L55.0703 177.416Z" fill="#318AD1"/>
<path opacity="0.2" d="M44.7229 174.267C44.6862 174.267 49.7795 180.497 49.7795 180.497L51.5087 179.176L52.6981 178.17L53.0073 177.793L46.2634 173.109C45.9538 173.439 45.6211 173.747 45.2678 174.031C45.079 174.092 44.8966 174.171 44.7229 174.267Z" fill="#318AD1"/>
<path d="M45.0859 174.162L47.5487 171.961L54.2926 178.275L52.532 177.652L49.9591 179.627L45.0859 174.162Z" fill="#318AD1"/>
<path d="M54.2905 178.275C54.1438 177.987 54.8145 172.255 54.8145 172.255L57.204 173.889C57.0782 173.863 56.9944 178.605 56.9158 178.605C56.8372 178.605 55.3438 176.981 55.3438 176.981L54.2905 178.275Z" fill="#318AD1"/>
<path opacity="0.2" d="M66.1607 192.292L65.6367 181.152L68.131 191.815L66.1607 192.292Z" fill="#318AD1"/>
<path opacity="0.2" d="M44.5385 193.917C44.8529 193.854 46.4406 193.33 46.4406 193.33L42.9141 183.489L47.7715 194.404L44.8529 195.567L44.5385 193.917Z" fill="#318AD1"/>
<path opacity="0.3" d="M45.0859 174.162L47.5487 171.961L54.2926 178.275L52.532 177.652L49.9591 179.627L45.0859 174.162Z" fill="white"/>
<path opacity="0.3" d="M54.2905 178.275C54.1438 177.987 54.8145 172.255 54.8145 172.255L57.204 173.889C57.0782 173.863 56.9944 178.605 56.9158 178.605C56.8372 178.605 55.3438 176.981 55.3438 176.981L54.2905 178.275Z" fill="white"/>
<path opacity="0.3" d="M58.1172 187.487L59.249 193.047L62.545 194.242L64.772 192.297L64.3633 187.047L58.1172 187.487Z" fill="white"/>
<path d="M54.6934 177.793L53.6454 178.045C53.6454 178.045 53.6087 178.113 53.6454 178.071C53.6821 178.029 53.0742 180.046 53.0742 180.046C53.2419 180.198 53.8026 181.168 53.8655 181.152C53.9283 181.136 55.3169 181.005 55.3169 181.005L55.8409 179.538L54.6934 177.793Z" fill="#318AD1"/>
<path opacity="0.2" d="M54.6934 177.793L53.6454 178.045C53.6454 178.045 53.6087 178.113 53.6454 178.071C53.6821 178.029 53.0742 180.046 53.0742 180.046C53.2419 180.198 53.8026 181.168 53.8655 181.152C53.9283 181.136 55.3169 181.005 55.3169 181.005L55.8409 179.538L54.6934 177.793Z" fill="#318AD1"/>
<path d="M43.1832 185.753C43.1832 185.753 45.6564 202.227 47.087 203.768C49.5026 206.388 61.476 213.278 61.476 213.278L67.4548 211.182C67.6593 211.114 67.8772 211.097 68.0898 211.132C68.3025 211.166 68.5036 211.252 68.6758 211.382L72.763 214.526L72.3752 214.856C72.2911 214.926 72.1884 214.97 72.0795 214.983C71.9707 214.996 71.8604 214.977 71.7621 214.929L71.1281 214.615L71.8355 215.306L71.6154 215.5C71.5027 215.594 71.3691 215.659 71.2259 215.69C71.0826 215.721 70.9341 215.717 70.7927 215.678L68.964 215.186L70.6512 216.312C70.461 216.468 70.2359 216.576 69.995 216.626C69.7541 216.677 69.5046 216.668 69.2679 216.601L66.5955 215.841C64.7706 216.256 62.9146 216.521 61.0463 216.632C57.9023 216.826 43.0364 211.633 40.2645 207.834C37.4925 204.035 34.6367 188.215 34.6367 188.215L43.1832 185.753Z" fill="#B97964"/>
<path d="M35.27 196.715C35.27 196.715 31.5653 181.781 36.4385 178.16C41.3117 174.539 46.1378 193.434 46.1378 193.434L35.27 196.715Z" fill="#318AD1"/>
<path opacity="0.3" d="M35.27 196.715C35.27 196.715 31.5653 181.781 36.4385 178.16C41.3117 174.539 46.1378 193.434 46.1378 193.434L35.27 196.715Z" fill="white"/>
<path d="M67.1678 158.086C67.4784 158.052 67.7668 157.909 67.9805 157.681C68.1941 157.453 68.319 157.156 68.3323 156.844C68.3456 156.532 68.2465 156.225 68.053 155.98C67.8596 155.735 67.5845 155.567 67.2779 155.507L64.3906 155.219C64.5269 157.074 64.6649 158.927 64.8046 160.779C65.3599 160.947 65.9523 160.947 66.5076 160.779C66.7843 160.691 67.0365 160.54 67.244 160.337C67.4515 160.134 67.6085 159.885 67.7023 159.61C67.7893 159.333 67.7842 159.034 67.6879 158.759C67.5916 158.485 67.4092 158.248 67.1678 158.086Z" fill="#263238"/>
<path d="M56.127 168.78L49.9176 160.968C49.9176 160.968 49.9176 160.968 49.9176 160.994C49.9176 161.733 49.9176 162.566 49.8338 163.477C49.8338 163.477 49.163 163.158 49.163 163.168C48.8958 167.224 47.2924 174.172 47.3657 174.749L53.8895 177.992L55.079 176.803L55.3096 174.183C54.6441 172.506 55.2624 170.578 56.127 168.78Z" fill="#B97964"/>
<path opacity="0.2" d="M55.1943 171.416L51.2695 168.314C51.17 169.886 51.9979 172.375 55.1471 173.664C54.9765 172.922 54.9927 172.15 55.1943 171.416Z" fill="#318AD1"/>
<path d="M51.2426 157.095C49.9588 162.335 49.4715 164.877 51.2426 168.314C53.9412 173.481 60.5384 173.523 63.3785 168.738C65.9304 164.436 67.6072 156.566 63.1689 152.987C62.1857 152.201 61.0199 151.677 59.7798 151.463C58.5398 151.248 57.2656 151.351 56.0757 151.76C54.8858 152.17 53.8189 152.874 52.9739 153.807C52.1289 154.74 51.5334 155.871 51.2426 157.095Z" fill="#B97964"/>
<path d="M52.3467 149.958C53.9187 147.338 58.1107 146.914 59.646 148.984C59.8713 149.293 57.3876 149.366 57.6705 149.35L56.2138 153.495C55.9256 153.333 55.213 153.495 54.6104 154.355C54.6104 154.355 53.6724 160.056 50.7171 161.649C47.8193 157.645 48.1495 149.969 52.3467 149.958Z" fill="#263238"/>
<path d="M47.8672 160.763C47.8735 161.435 48.0129 162.099 48.2773 162.717C48.5417 163.335 48.9259 163.894 49.4077 164.363C50.7125 165.605 52.2216 164.641 52.5832 162.974C52.9028 161.47 52.6146 159.008 50.964 158.4C49.3134 157.792 47.8672 159.097 47.8672 160.763Z" fill="#B97964"/>
<path d="M58.3566 161.502C58.1942 162.026 58.3566 162.55 58.6867 162.644C59.0168 162.739 59.4465 162.403 59.6142 161.879C59.7819 161.355 59.6142 160.831 59.2841 160.732C58.954 160.632 58.5243 160.973 58.3566 161.502Z" fill="#263238"/>
<path d="M63.5363 163.184C63.3738 163.708 63.5363 164.232 63.8664 164.326C64.1965 164.421 64.6314 164.085 64.7939 163.561C64.9563 163.037 64.7939 162.513 64.4638 162.414C64.1336 162.314 63.704 162.655 63.5363 163.184Z" fill="#263238"/>
<path d="M61.7094 161.774C61.7094 161.774 62.3696 164.18 62.6683 165.605C62.6859 165.685 62.6858 165.768 62.6681 165.849C62.6503 165.929 62.6152 166.004 62.5654 166.069C62.5155 166.135 62.452 166.188 62.3793 166.227C62.3066 166.265 62.2264 166.287 62.1443 166.291C61.6278 166.28 61.1221 166.141 60.6719 165.888L61.7094 161.774Z" fill="#A24E3F"/>
<path d="M57.808 158.332C57.8432 158.361 57.8853 158.381 57.9302 158.389C57.9752 158.397 58.0215 158.394 58.0648 158.379C58.3661 158.256 58.6921 158.204 59.0168 158.229C59.3415 158.253 59.6561 158.353 59.9354 158.52C59.9915 158.561 60.061 158.578 60.1294 158.568C60.1978 158.558 60.2597 158.522 60.3022 158.468C60.3418 158.412 60.3578 158.343 60.3471 158.275C60.3363 158.208 60.2995 158.147 60.2446 158.106C59.8959 157.886 59.4995 157.751 59.0884 157.715C58.6773 157.678 58.2635 157.741 57.8814 157.897C57.8183 157.922 57.7672 157.97 57.7388 158.031C57.7105 158.093 57.7071 158.163 57.7294 158.227C57.7463 158.268 57.7734 158.304 57.808 158.332Z" fill="#263238"/>
<path d="M66.2842 160.784C66.3347 160.773 66.3816 160.75 66.4205 160.716C66.4681 160.668 66.4949 160.603 66.4949 160.535C66.4949 160.468 66.4681 160.403 66.4205 160.354C66.1556 160.043 65.8199 159.799 65.4415 159.644C65.0632 159.489 64.6531 159.427 64.2458 159.464C64.1776 159.475 64.1166 159.513 64.0755 159.569C64.0345 159.624 64.0166 159.694 64.0258 159.762C64.0309 159.796 64.0425 159.828 64.0601 159.857C64.0776 159.886 64.1006 159.911 64.1279 159.931C64.1552 159.951 64.1861 159.965 64.2189 159.973C64.2517 159.981 64.2858 159.982 64.3192 159.977C64.6422 159.948 64.9673 159.999 65.2661 160.125C65.5649 160.251 65.8281 160.449 66.0327 160.7C66.064 160.735 66.1035 160.76 66.1476 160.775C66.1916 160.79 66.2386 160.793 66.2842 160.784Z" fill="#263238"/>
<path d="M57.9211 166.962C58.1023 167.108 58.2951 167.24 58.4975 167.355C58.5297 167.371 58.5666 167.376 58.6019 167.369C58.6372 167.361 58.6688 167.341 58.6914 167.313C58.7068 167.279 58.7089 167.24 58.6973 167.204C58.6857 167.168 58.6612 167.138 58.6285 167.119C58.1087 166.84 57.6621 166.442 57.3252 165.958C56.9883 165.473 56.7705 164.916 56.6897 164.332C56.6858 164.296 56.6684 164.263 56.6412 164.24C56.6139 164.216 56.5788 164.204 56.543 164.206C56.5105 164.204 56.4787 164.216 56.4542 164.237C56.4298 164.259 56.4147 164.289 56.412 164.321C56.4095 164.331 56.4095 164.342 56.412 164.353C56.4731 164.867 56.6384 165.364 56.8979 165.813C57.1573 166.261 57.5055 166.652 57.9211 166.962Z" fill="#263238"/>
<path d="M69.7709 154.161C69.4146 153.113 68.1675 152.673 67.0618 152.589C67.4064 152.549 67.7239 152.382 67.9532 152.122C68.1825 151.862 68.3073 151.526 68.3037 151.179C68.2823 150.832 68.1837 150.493 68.0151 150.189C67.8465 149.884 67.6122 149.621 67.3291 149.419C66.8373 149.037 66.2555 148.788 65.6397 148.696C65.0239 148.604 64.3948 148.673 63.813 148.895C63.9167 148.833 63.9958 148.737 64.0369 148.623C64.0779 148.509 64.0784 148.385 64.0384 148.271C63.9527 148.043 63.799 147.848 63.5982 147.71C62.9983 147.279 62.2698 147.064 61.5319 147.102C60.7941 147.139 60.0907 147.425 59.5372 147.915C59.3272 147.281 58.8888 146.749 58.3074 146.422C57.7261 146.094 57.0437 145.995 56.3932 146.144C55.1408 146.468 52.7828 146.72 52.4213 149.922C52.1516 149.665 51.8302 149.468 51.4785 149.345C51.1268 149.222 50.7529 149.175 50.3818 149.208C50.0107 149.241 49.6509 149.353 49.3264 149.536C49.0019 149.719 48.7201 149.969 48.5 150.27C48.2798 150.57 48.1263 150.914 48.0496 151.279C47.973 151.644 47.975 152.02 48.0555 152.384C48.136 152.748 48.2932 153.09 48.5165 153.389C48.7398 153.687 49.0242 153.934 49.3506 154.114C49.0549 154.017 48.7333 154.036 48.4511 154.167C48.1689 154.298 47.9472 154.532 47.831 154.821C47.729 155.116 47.7073 155.432 47.7681 155.738C47.8288 156.043 47.97 156.328 48.1769 156.561C48.6001 157.017 49.146 157.34 49.7489 157.493C50.3085 157.675 50.9085 157.694 51.4781 157.546C51.7601 157.466 52.0162 157.313 52.2212 157.104C52.4262 156.894 52.5728 156.635 52.6466 156.351C52.7095 156.65 52.8797 156.915 53.125 157.096C53.3703 157.278 53.6736 157.363 53.9776 157.336C54.2803 157.291 54.5609 157.151 54.7792 156.936C54.9976 156.721 55.1425 156.443 55.1932 156.141C55.2329 155.839 55.1918 155.531 55.074 155.249C54.9562 154.968 54.7659 154.722 54.5225 154.538C54.7024 154.69 54.9139 154.799 55.1416 154.858C55.3693 154.917 55.6073 154.924 55.8381 154.879C56.0689 154.833 56.2866 154.737 56.4752 154.596C56.6638 154.456 56.8184 154.275 56.9277 154.066C57.3918 155.08 58.1862 155.906 59.1809 156.409C59.683 156.646 60.2493 156.712 60.7927 156.597C61.3361 156.481 61.8265 156.191 62.1886 155.769C62.4999 156.169 62.867 156.522 63.2786 156.817C63.4876 156.963 63.7254 157.061 63.9758 157.106C64.2262 157.151 64.4834 157.142 64.73 157.079C64.9734 157.006 65.183 156.849 65.322 156.636C65.461 156.423 65.5204 156.168 65.4898 155.916C65.878 156.263 66.3475 156.507 66.8548 156.626C67.3622 156.744 67.8911 156.732 68.3928 156.592C68.8813 156.427 69.292 156.088 69.5462 155.64C69.8005 155.191 69.8805 154.665 69.7709 154.161Z" fill="#263238"/>
<path d="M75.1588 215.694H56.2109C56.2109 216.417 57.0231 216.999 58.0187 216.994H88.8771C89.8622 216.994 90.6535 216.401 90.6482 215.684L75.1588 215.694Z" fill="#263238"/>
<path d="M89.1597 216.936H71.8677C71.7412 216.945 71.6161 216.905 71.5185 216.824C71.4209 216.743 71.3583 216.627 71.3438 216.501C71.3449 216.454 71.3537 216.408 71.37 216.365L79.0727 198.716C79.201 198.449 79.4051 198.226 79.6595 198.074C79.9138 197.922 80.2073 197.849 80.5033 197.862H97.7953C97.9213 197.852 98.0464 197.891 98.1442 197.971C98.242 198.051 98.3047 198.166 98.3193 198.292C98.3189 198.341 98.3082 198.389 98.2878 198.434L90.5903 216.087C90.4602 216.352 90.2555 216.574 90.0015 216.725C89.7474 216.875 89.4549 216.949 89.1597 216.936Z" fill="#263238"/>
<path opacity="0.7" d="M97.7956 197.857H80.5036C80.2076 197.843 79.9142 197.917 79.6598 198.069C79.4054 198.221 79.2013 198.444 79.0731 198.711L71.6637 215.694H56.2109C56.2109 216.417 57.0231 216.999 58.0187 216.994H88.8771C89.1704 216.993 89.4608 216.934 89.7312 216.821C89.9209 216.766 90.0964 216.67 90.2456 216.541C90.3949 216.411 90.5144 216.251 90.5958 216.071L98.2934 198.418C98.3137 198.373 98.3244 198.325 98.3248 198.276C98.3078 198.152 98.2432 198.038 98.1446 197.96C98.0459 197.882 97.9209 197.845 97.7956 197.857Z" fill="white"/>
<path d="M87.3928 207.258C87.0155 208.101 86.2609 208.683 85.695 208.568C85.1291 208.452 84.9771 207.677 85.3439 206.828C85.7107 205.979 86.4706 205.408 87.0365 205.528C87.6024 205.649 87.7701 206.388 87.3928 207.258Z" fill="white"/>
<g opacity="0.3">
<path d="M79.0461 198.711L71.6367 215.694H72.4384L80.4766 197.878C80.1829 197.862 79.891 197.933 79.6369 198.081C79.3828 198.229 79.1774 198.448 79.0461 198.711Z" fill="#318AD1"/>
</g>
<path d="M79.9375 235.276L91.0882 237.068L92.8751 232.473L81.1584 228.815L79.9375 235.276Z" fill="#B97964"/>
<path d="M96.0435 239.389L97.5474 236.277C97.4234 236.096 97.3469 235.887 97.3249 235.669C97.3029 235.451 97.3362 235.231 97.4216 235.03C97.5893 234.652 98.5272 234.034 98.5272 234.034L102.719 225.503C102.439 225.36 102.141 225.253 101.834 225.184C101.506 225.147 101.176 225.147 100.849 225.184C99.8268 225.325 99.0198 226.122 98.4434 226.756C97.4792 227.804 94.1466 230.324 94.1466 230.324C93.4075 230.727 92.5715 230.917 91.7309 230.874C91.4171 230.842 91.0999 230.881 90.8038 230.99C90.5077 231.099 90.2405 231.275 90.0227 231.503C89.9175 231.644 89.8445 231.806 89.8087 231.978C89.773 232.15 89.7755 232.328 89.816 232.498C89.8564 232.669 89.9339 232.829 90.043 232.967C90.1521 233.105 90.29 233.217 90.4471 233.295L91.2069 233.819C91.2985 234.204 91.2415 234.61 91.0472 234.955C90.8529 235.299 90.5357 235.558 90.1589 235.679C90.1589 235.679 88.4297 236.822 89.2839 237.12C89.7659 237.299 91.9667 237.99 93.6855 238.588L94.8016 238.975L96.0435 239.389Z" fill="#263238"/>
<path d="M95.8932 228.899C95.8661 228.909 95.8432 228.928 95.828 228.953C95.8129 228.977 95.8063 229.006 95.8093 229.035C95.8405 229.306 95.9416 229.564 96.1028 229.784C96.1918 229.905 96.3962 229.784 96.3071 229.653C96.1609 229.462 96.0702 229.233 96.0451 228.993C96.0452 228.975 96.0408 228.958 96.0321 228.942C96.0234 228.926 96.0108 228.913 95.9956 228.903C95.9803 228.894 95.9629 228.889 95.945 228.888C95.927 228.887 95.9092 228.891 95.8932 228.899Z" fill="#318AD1"/>
<path d="M95.1928 229.381C95.1667 229.392 95.145 229.411 95.1308 229.436C95.1166 229.461 95.1108 229.489 95.1142 229.517C95.1398 229.789 95.2395 230.048 95.4024 230.267C95.4915 230.387 95.6959 230.267 95.6068 230.136C95.462 229.943 95.3731 229.715 95.35 229.475C95.3479 229.458 95.3419 229.442 95.3327 229.428C95.3234 229.413 95.311 229.401 95.2965 229.392C95.2819 229.383 95.2655 229.377 95.2485 229.375C95.2315 229.373 95.2143 229.375 95.1981 229.381H95.1928Z" fill="#318AD1"/>
<path d="M94.5288 229.9C94.5027 229.911 94.4809 229.93 94.4667 229.955C94.4526 229.979 94.4468 230.008 94.4502 230.036C94.4776 230.308 94.5791 230.567 94.7436 230.785C94.8275 230.901 95.0318 230.785 94.9427 230.654C94.8009 230.46 94.7123 230.233 94.686 229.994C94.6848 229.977 94.6795 229.96 94.6705 229.945C94.6615 229.93 94.6491 229.917 94.6342 229.908C94.6194 229.899 94.6025 229.893 94.5851 229.892C94.5677 229.89 94.5502 229.893 94.534 229.9H94.5288Z" fill="#318AD1"/>
<path opacity="0.2" d="M97.422 235.03C97.5897 234.652 98.5277 234.034 98.5277 234.034L102.72 225.503C102.439 225.36 102.142 225.253 101.834 225.184C101.666 225.184 101.509 225.184 101.357 225.184L94.5977 238.913L94.7863 238.975L96.0334 239.41L97.5373 236.298C97.4114 236.114 97.3346 235.901 97.3145 235.679C97.2943 235.457 97.3313 235.233 97.422 235.03Z" fill="white"/>
<path d="M94.681 230.13L94.5657 230.088L94.5919 230.025L94.5657 230.083C94.2498 229.973 93.9446 229.835 93.6539 229.669C93.3535 229.5 93.1053 229.252 92.9361 228.951C92.8827 228.876 92.8502 228.788 92.842 228.696C92.8337 228.604 92.8499 228.511 92.8889 228.427C92.9436 228.351 93.0192 228.292 93.1066 228.258C93.1939 228.223 93.2894 228.215 93.3815 228.233C93.5447 228.256 93.7018 228.311 93.8432 228.396C93.9846 228.48 94.1074 228.593 94.2041 228.726C94.416 229.122 94.5679 229.548 94.6548 229.989L94.681 230.13ZM93.3081 228.38C93.2493 228.375 93.1903 228.385 93.1364 228.409C93.0824 228.433 93.0352 228.47 92.9989 228.516C92.9768 228.578 92.9701 228.644 92.9792 228.709C92.9883 228.774 93.0131 228.835 93.0513 228.888C93.2104 229.168 93.4421 229.4 93.7221 229.559C93.9697 229.702 94.2292 229.823 94.4976 229.921C94.4225 229.537 94.2882 229.168 94.0993 228.826C94.0133 228.706 93.9039 228.606 93.7778 228.53C93.6517 228.454 93.5115 228.405 93.3657 228.385L93.3081 228.38Z" fill="#318AD1"/>
<path d="M93.0733 231.231C92.9596 231.229 92.8467 231.211 92.7379 231.178C92.6483 231.153 92.567 231.104 92.5026 231.037C92.4381 230.97 92.3927 230.886 92.3711 230.796C92.3724 230.707 92.3961 230.62 92.4401 230.543C92.4841 230.466 92.5469 230.402 92.6226 230.356C92.9017 230.155 93.229 230.032 93.5711 229.999C93.9058 229.97 94.2424 229.97 94.5771 229.999H94.7029L94.6243 230.094C94.3672 230.471 94.0524 230.805 93.6916 231.084C93.5001 231.181 93.2881 231.232 93.0733 231.231ZM94.0217 230.109C93.8768 230.102 93.7316 230.102 93.5868 230.109C93.2676 230.139 92.962 230.253 92.7012 230.439C92.6457 230.474 92.5988 230.52 92.5643 230.576C92.5297 230.631 92.5085 230.694 92.5021 230.759C92.5193 230.825 92.5542 230.886 92.6031 230.934C92.652 230.982 92.7131 231.016 92.7798 231.032C93.0665 231.113 93.3736 231.077 93.6339 230.932C93.9466 230.698 94.2207 230.417 94.4461 230.099L94.0217 230.109Z" fill="#318AD1"/>
<path d="M38.0482 230.193C35.6431 226.363 30.1882 215.982 41.2341 213.949C52.2801 211.916 89.1068 229.433 89.1068 229.433L86.775 236.481L52.4792 231.084C52.4792 231.084 57.1952 237.346 51.4783 237.063C43.1991 236.235 41.2132 234.254 38.0482 230.193Z" fill="#263238"/>
<path opacity="0.7" d="M53.2914 231.267L43.8594 228.307C43.8594 228.307 51.7508 233.133 54.6485 233.709L53.2914 231.267Z" fill="#318AD1"/>
<path d="M18.3393 141.92H37.5177C38.3516 141.92 39.1512 142.251 39.7409 142.841C40.3305 143.431 40.6617 144.23 40.6617 145.064V155.418C40.6617 156.252 40.3305 157.052 39.7409 157.642C39.1512 158.231 38.3516 158.562 37.5177 158.562H32.9275L32.896 161.706L29.4429 158.562H18.3393C17.5055 158.562 16.7058 158.231 16.1162 157.642C15.5266 157.052 15.1953 156.252 15.1953 155.418V145.059C15.1967 144.226 15.5286 143.428 16.118 142.839C16.7075 142.251 17.5064 141.92 18.3393 141.92Z" fill="#318AD1"/>
<path d="M25.5661 148.601L22.5322 150.011L25.5557 151.426V152.563L21.5156 150.603V149.424L25.5557 147.464L25.5661 148.601Z" fill="white"/>
<path d="M34.7666 149.424V150.603L30.7266 152.563V151.436L33.75 150.021L30.7266 148.612V147.475L34.7666 149.424Z" fill="white"/>
<path d="M28.857 146.668L26.8867 153.48H27.8718L29.8421 146.668H28.857Z" fill="white"/>
<path d="M33.0902 141.213H23.2443C23.2095 141.213 23.1762 141.199 23.1517 141.174C23.1271 141.15 23.1133 141.117 23.1133 141.082C23.1133 141.047 23.1271 141.014 23.1517 140.989C23.1762 140.965 23.2095 140.951 23.2443 140.951H33.0902C33.125 140.951 33.1583 140.965 33.1829 140.989C33.2074 141.014 33.2212 141.047 33.2212 141.082C33.2212 141.117 33.2074 141.15 33.1829 141.174C33.1583 141.199 33.125 141.213 33.0902 141.213Z" fill="#318AD1"/>
<path d="M35.8085 141.218H34.2365C34.2017 141.218 34.1684 141.204 34.1438 141.18C34.1193 141.155 34.1055 141.122 34.1055 141.087C34.1055 141.052 34.1193 141.019 34.1438 140.994C34.1684 140.97 34.2017 140.956 34.2365 140.956H35.8085C35.8432 140.956 35.8765 140.97 35.9011 140.994C35.9257 141.019 35.9395 141.052 35.9395 141.087C35.9395 141.122 35.9257 141.155 35.9011 141.18C35.8765 141.204 35.8432 141.218 35.8085 141.218Z" fill="#318AD1"/>
</svg>
