<svg width="88" height="88" viewBox="0 0 88 88" fill="none" xmlns="http://www.w3.org/2000/svg">
<path d="M87.636 43.9999C87.636 55.573 83.0386 66.6721 74.8552 74.8555C66.6718 83.0389 55.5727 87.6363 43.9996 87.6363C32.4266 87.6363 21.3275 83.0389 13.1441 74.8555C4.96067 66.6721 0.363281 55.573 0.363281 43.9999C0.363281 32.4268 4.96067 21.3277 13.1441 13.1443C21.3275 4.96092 32.4266 0.363525 43.9996 0.363525C55.5727 0.363525 66.6718 4.96092 74.8552 13.1443C83.0386 21.3277 87.636 32.4268 87.636 43.9999ZM65.9815 27.4726C65.5918 27.0844 65.1279 26.7787 64.6175 26.5738C64.107 26.3689 63.5604 26.2691 63.0105 26.2803C62.4606 26.2915 61.9185 26.4135 61.4168 26.639C60.9151 26.8645 60.464 27.1888 60.0906 27.5926L41.1469 51.729L29.7306 40.3072C28.9551 39.5845 27.9293 39.1911 26.8695 39.2098C25.8097 39.2285 24.7985 39.6579 24.049 40.4074C23.2995 41.1569 22.8701 42.1681 22.8514 43.2279C22.8327 44.2878 23.2261 45.3135 23.9487 46.089L38.3815 60.5272C38.7703 60.9153 39.2333 61.2211 39.7428 61.4264C40.2524 61.6317 40.7981 61.7322 41.3474 61.722C41.8966 61.7118 42.4382 61.5911 42.9398 61.3671C43.4414 61.1431 43.8928 60.8203 44.2669 60.4181L66.0415 33.1999C66.7838 32.4281 67.1939 31.3959 67.1837 30.3251C67.1735 29.2543 66.7438 28.2302 65.9869 27.4726H65.9815Z" fill="#318AD1"/>
</svg>
