<svg width="41" height="41" viewBox="0 0 41 41" fill="none" xmlns="http://www.w3.org/2000/svg">
<path fill-rule="evenodd" clip-rule="evenodd" d="M20.3913 0H20.6087C25.0119 0 28.4616 1.13665e-07 31.1543 0.362326C33.908 0.732279 36.0819 1.50651 37.7887 3.21135C39.4954 4.91809 40.2677 7.09205 40.6377 9.84763C41 12.5384 41 15.9881 41 20.3913V20.5591C41 24.1995 41 27.1782 40.8017 29.6039C40.6033 32.0448 40.1972 34.0796 39.2856 35.773C38.8852 36.5186 38.3893 37.188 37.7887 37.7887C36.0819 39.4954 33.908 40.2677 31.1524 40.6377C28.4616 41 25.0119 41 20.6087 41H20.3913C15.9881 41 12.5384 41 9.84572 40.6377C7.09205 40.2677 4.91809 39.4935 3.21135 37.7887C1.69912 36.2764 0.917256 34.3942 0.503442 32.0563C0.093442 29.7622 0.0190697 26.9074 0.0038139 23.3643C-4.92843e-08 22.4623 0 21.5088 0 20.5019V20.3913C0 15.9881 1.13665e-07 12.5384 0.362326 9.84572C0.732279 7.09205 1.50651 4.91809 3.21135 3.21135C4.91809 1.5046 7.09205 0.732279 9.84763 0.362326C12.5384 1.13665e-07 15.9881 0 20.3913 0ZM10.2271 3.19609C7.79 3.52409 6.31972 4.14958 5.23465 5.23465C4.14767 6.32163 3.52409 7.79 3.19609 10.229C2.86428 12.7081 2.86047 15.9652 2.86047 20.5V22.1095L4.76935 20.439C5.60665 19.706 6.69124 19.3187 7.80341 19.3556C8.91558 19.3924 9.97218 19.8506 10.7592 20.6373L18.9401 28.8182C19.5749 29.4529 20.4133 29.8434 21.3077 29.9208C22.2021 29.9983 23.0951 29.7577 23.8296 29.2416L24.3979 28.8411C25.4575 28.0965 26.7385 27.7335 28.0313 27.8114C29.3241 27.8894 30.5522 28.4037 31.5147 29.2702L36.9114 34.1273C37.4568 32.9869 37.7791 31.488 37.9507 29.3732C38.1376 27.0753 38.1395 24.211 38.1395 20.5C38.1395 15.9652 38.1357 12.7081 37.8039 10.229C37.4759 7.79 36.8504 6.31972 35.7653 5.23274C34.6784 4.14767 33.21 3.52409 30.771 3.19609C28.2919 2.86428 25.0348 2.86047 20.5 2.86047C15.9652 2.86047 12.7062 2.86428 10.2271 3.19609Z" fill="#787777"/>
<path d="M31.9223 12.8845C31.9223 13.8944 31.5211 14.8629 30.807 15.5771C30.0929 16.2912 29.1244 16.6923 28.1145 16.6923C27.1046 16.6923 26.136 16.2912 25.4219 15.5771C24.7078 14.8629 24.3066 13.8944 24.3066 12.8845C24.3066 11.8746 24.7078 10.9061 25.4219 10.192C26.136 9.47784 27.1046 9.07666 28.1145 9.07666C29.1244 9.07666 30.0929 9.47784 30.807 10.192C31.5211 10.9061 31.9223 11.8746 31.9223 12.8845Z" fill="#787777"/>
</svg>
