<svg width="196" height="95" viewBox="0 0 196 95" fill="none" xmlns="http://www.w3.org/2000/svg">
<path d="M93.1493 8.44079C92.53 8.44079 92.2203 8.17241 92.2203 7.63565V6.07491C92.2203 5.53816 92.53 5.26978 93.1493 5.26978H105.883C106.502 5.26978 106.812 5.53816 106.812 6.07491V7.63565C106.812 8.17241 106.502 8.44079 105.883 8.44079H101.325V22.3511C101.325 22.8053 101.118 23.0324 100.705 23.0324H98.327C97.9141 23.0324 97.7076 22.8053 97.7076 22.3511V8.44079H93.1493Z" fill="black"/>
<path d="M110.082 23.0324C109.504 23.0324 109.215 22.7227 109.215 22.1034V6.19878C109.215 5.57944 109.504 5.26978 110.082 5.26978H111.965C112.543 5.26978 112.832 5.57944 112.832 6.19878V12.2559H119.496V6.19878C119.496 5.57944 119.785 5.26978 120.363 5.26978H122.246C122.824 5.26978 123.113 5.57944 123.113 6.19878V22.1034C123.113 22.7227 122.824 23.0324 122.246 23.0324H120.363C119.785 23.0324 119.496 22.7227 119.496 22.1034V15.3278H112.832V22.1034C112.832 22.7227 112.543 23.0324 111.965 23.0324H110.082Z" fill="black"/>
<path d="M127.944 23.0324C127.366 23.0324 127.077 22.7227 127.077 22.1034V6.19878C127.077 5.57944 127.366 5.26978 127.944 5.26978H138.572C139.191 5.26978 139.501 5.53816 139.501 6.07491V7.53655C139.501 8.07331 139.191 8.34169 138.572 8.34169H130.694V12.2807H137.915C138.534 12.2807 138.844 12.5491 138.844 13.0858V14.5475C138.844 15.0842 138.534 15.3526 137.915 15.3526H130.694V19.9605H138.968C139.587 19.9605 139.897 20.2289 139.897 20.7656V22.2272C139.897 22.764 139.587 23.0324 138.968 23.0324H127.944Z" fill="black"/>
<path d="M24.812 31.7197C24.4486 30.3984 24.8285 29.7378 25.9516 29.7378H30.5347C31.3109 29.7378 31.8311 30.2828 32.0954 31.3728L36.8024 50.8448C37.1492 52.2652 37.3721 53.2396 37.4712 53.7681C37.5869 54.2801 37.6859 55.1141 37.7685 56.2702H37.8924C37.975 55.1141 38.0575 54.2388 38.1401 53.6442C38.2227 53.0497 38.4622 52.067 38.8586 50.6962L44.3831 31.571C44.7299 30.3489 45.4235 29.7378 46.464 29.7378H51.0224C52.0629 29.7378 52.7565 30.3489 53.1033 31.571L58.6278 50.6962C59.0242 52.067 59.2637 53.0497 59.3463 53.6442C59.4288 54.2388 59.5114 55.1141 59.594 56.2702H59.7179C59.8005 55.1141 59.8913 54.2801 59.9904 53.7681C60.106 53.2396 60.3372 52.2652 60.684 50.8448L65.391 31.3728C65.6553 30.2828 66.1755 29.7378 66.9517 29.7378H71.5348C72.6579 29.7378 73.0378 30.3984 72.6744 31.7197L64.2514 62.86C63.822 64.462 63.0458 65.263 61.9227 65.263H57.5873C56.6294 65.263 55.9275 64.4703 55.4816 62.8848L49.536 42.1246C49.2056 41.0015 49.0157 40.2748 48.9662 39.9445C48.9166 39.5977 48.8506 38.9618 48.768 38.0369H48.7184C48.6358 38.9618 48.5698 39.5977 48.5202 39.9445C48.4707 40.2748 48.2808 41.0015 47.9504 42.1246L42.0048 62.8848C41.5589 64.4703 40.857 65.263 39.899 65.263H35.5637C34.4406 65.263 33.6644 64.462 33.235 62.86L24.812 31.7197Z" fill="black"/>
<path d="M73.6654 65.263C72.4762 65.263 72.0881 64.718 72.501 63.628L84.64 31.7444C85.152 30.4067 85.9283 29.7378 86.9688 29.7378H90.437C91.4775 29.7378 92.2538 30.4067 92.7658 31.7444L104.905 63.628C105.318 64.718 104.93 65.263 103.74 65.263H99.8014C98.7114 65.263 97.9517 64.6932 97.5223 63.5536L94.9954 56.8896H82.4104L79.8835 63.5536C79.4541 64.6932 78.6944 65.263 77.6044 65.263H73.6654ZM84.7144 50.7457H92.6914L89.6443 42.8678C89.281 41.9429 89.058 41.274 88.9754 40.8611C88.9093 40.4317 88.835 39.8041 88.7524 38.9783H88.6534C88.5708 39.8041 88.4882 40.4317 88.4056 40.8611C88.3396 41.274 88.1249 41.9429 87.7615 42.8678L84.7144 50.7457Z" fill="#318AD1"/>
<path d="M111.049 65.263C109.893 65.263 109.314 64.6437 109.314 63.405V31.5958C109.314 30.3571 109.893 29.7378 111.049 29.7378H119.695C127.292 29.7378 132.428 31.2738 135.104 34.3457C137.796 37.4176 139.142 41.786 139.142 47.4509C139.142 53.1157 137.796 57.5006 135.104 60.6056C132.428 63.7105 127.292 65.263 119.695 65.263H111.049ZM116.548 59.1192H119.224C124.344 59.1192 127.655 58.1695 129.158 56.2702C130.661 54.3544 131.412 51.4146 131.412 47.4509C131.412 43.4871 130.661 40.5638 129.158 38.681C127.655 36.7817 124.344 35.8321 119.224 35.8321H116.548V59.1192Z" fill="black"/>
<path d="M144.121 65.263C142.932 65.263 142.544 64.718 142.957 63.628L155.096 31.7444C155.608 30.4067 156.384 29.7378 157.425 29.7378H160.893C161.933 29.7378 162.71 30.4067 163.222 31.7444L175.361 63.628C175.774 64.718 175.385 65.263 174.196 65.263H170.257C169.167 65.263 168.408 64.6932 167.978 63.5536L165.451 56.8896H152.866L150.339 63.5536C149.91 64.6932 149.15 65.263 148.06 65.263H144.121ZM155.17 50.7457H163.147L160.1 42.8678C159.737 41.9429 159.514 41.274 159.431 40.8611C159.365 40.4317 159.291 39.8041 159.208 38.9783H159.109C159.027 39.8041 158.944 40.4317 158.862 40.8611C158.795 41.274 158.581 41.9429 158.217 42.8678L155.17 50.7457Z" fill="#318AD1"/>
<mask id="path-3-inside-1_353_19361" fill="white">
<path d="M87.755 24.7721C88.4586 24.7721 88.8912 24.0083 88.5075 23.4186C83.2008 15.262 73.9825 7.0136 65.214 3.54405C55.9599 -0.11765 45.7651 -0.600007 36.2108 2.17179C26.6565 4.94358 18.2767 10.8146 12.371 18.8744C6.46523 26.9341 3.36365 36.7321 3.54727 46.7487C3.73088 56.7653 7.18943 66.4408 13.3865 74.2745C19.5836 82.1082 28.1729 87.6624 37.8222 90.0756C47.4715 92.4888 57.6416 91.6261 66.7552 87.6214C75.4107 83.818 84.8103 75.3961 89.8549 67.0484C90.2112 66.4589 89.777 65.7243 89.0884 65.7243L84.8118 65.7242C84.481 65.7242 84.177 65.9051 84.0141 66.1931C79.6745 73.8617 72.9892 79.9173 64.9501 83.4498C56.7479 87.054 47.5948 87.8304 38.9104 85.6586C30.226 83.4867 22.4956 78.4879 16.9182 71.4376C11.3409 64.3872 8.22819 55.6793 8.06293 46.6644C7.89768 37.6494 10.6891 28.8312 16.0043 21.5775C21.3194 14.3237 28.8613 9.03977 37.4601 6.54516C46.059 4.05054 55.2343 4.48466 63.563 7.78019C71.733 11.0129 78.6405 16.8219 83.2582 24.3326C83.4251 24.6041 83.7198 24.7721 84.0385 24.7721L87.755 24.7721Z"/>
</mask>
<path d="M65.214 3.54405L54.912 29.58L65.214 3.54405ZM66.7552 87.6214L78.0195 113.256L66.7552 87.6214ZM64.9501 83.4498L76.2143 109.084L64.9501 83.4498ZM63.563 7.78019L73.865 -18.2557L63.563 7.78019ZM83.2582 24.3326L107.111 9.66775L83.2582 24.3326ZM84.0385 24.7721L84.0386 52.7721H84.0386L84.0385 24.7721ZM84.8118 65.7242L84.8118 37.7242H84.8118L84.8118 65.7242ZM84.0141 66.1931L59.6453 52.4031L84.0141 66.1931ZM89.8549 67.0484L65.8909 52.5665L89.8549 67.0484ZM89.0884 65.7243L89.0884 93.7243H89.0884L89.0884 65.7243ZM88.5075 23.4186L65.0376 38.6883L88.5075 23.4186ZM87.755 24.7721L87.7549 -3.22788H87.7549L87.755 24.7721ZM111.977 8.14893C104.123 -3.92384 90.6511 -16.5031 75.516 -22.4919L54.912 29.58C57.3138 30.5303 62.2787 34.4478 65.0376 38.6883L111.977 8.14893ZM75.516 -22.4919C60.4916 -28.4368 43.9287 -29.2217 28.4094 -24.7194L44.0122 29.063C47.6015 28.0217 51.4281 28.2015 54.912 29.58L75.516 -22.4919ZM28.4094 -24.7194C12.8928 -20.2179 -0.674308 -10.6953 -10.2147 2.32479L34.9566 35.4239C37.2277 32.3245 40.4203 30.1051 44.0122 29.063L28.4094 -24.7194ZM-10.2147 2.32479C-19.7524 15.3412 -24.7436 31.1365 -24.448 47.2619L31.5426 46.2355C31.4709 42.3276 32.6828 38.527 34.9566 35.4239L-10.2147 2.32479ZM-24.448 47.2619C-24.1524 63.3874 -18.5854 78.9896 -8.57307 91.6462L35.3461 56.9028C32.9643 53.8919 31.6142 50.1432 31.5426 46.2355L-24.448 47.2619ZM-8.57307 91.6462C1.44219 104.307 15.3543 113.319 31.0289 117.239L44.6155 62.9122C40.9914 62.0058 37.725 59.9099 35.3461 56.9028L-8.57307 91.6462ZM31.0289 117.239C46.7059 121.16 63.2277 119.756 78.0195 113.256L55.491 61.9871C52.0556 63.4967 48.2372 63.8179 44.6155 62.9122L31.0289 117.239ZM78.0195 113.256C92.2341 107.01 105.952 94.5483 113.819 81.5302L65.8909 52.5665C63.6686 56.244 58.5873 60.6265 55.491 61.9871L78.0195 113.256ZM89.0884 37.7243L84.8118 37.7242L84.8118 93.7242L89.0884 93.7243L89.0884 37.7243ZM59.6453 52.4031C58.2653 54.8418 56.1631 56.727 53.6858 57.8155L76.2143 109.084C89.8152 103.108 101.084 92.8817 108.383 79.983L59.6453 52.4031ZM53.6858 57.8155C51.1618 58.9246 48.3604 59.1596 45.7036 58.4951L32.1171 112.822C46.8291 116.501 62.3339 115.183 76.2143 109.084L53.6858 57.8155ZM45.7036 58.4951C43.0445 57.8301 40.637 56.2897 38.8778 54.0659L-5.04133 88.8093C4.35422 100.686 17.4074 109.143 32.1171 112.822L45.7036 58.4951ZM38.8778 54.0659C37.1157 51.8384 36.1115 49.0572 36.0582 46.1512L-19.9324 47.1775C-19.6551 62.3014 -14.434 76.9361 -5.04133 88.8093L38.8778 54.0659ZM36.0582 46.1512C36.005 43.2449 36.9067 40.4241 38.5899 38.127L-6.58141 5.0279C-15.5285 17.2383 -20.2096 32.0539 -19.9324 47.1775L36.0582 46.1512ZM38.5899 38.127C40.2704 35.8336 42.625 34.2013 45.2615 33.4364L29.6587 -20.3461C15.0975 -16.1217 2.36841 -7.18618 -6.58141 5.0279L38.5899 38.127ZM45.2615 33.4364C47.8954 32.6723 50.7025 32.8038 53.261 33.8161L73.865 -18.2557C59.766 -23.8345 44.2226 -24.5712 29.6587 -20.3461L45.2615 33.4364ZM53.261 33.8161C55.7739 34.8104 57.9404 36.6141 59.4058 38.9975L107.111 9.66775C99.3406 -2.97035 87.6921 -12.7846 73.865 -18.2557L53.261 33.8161ZM84.0386 52.7721L87.7551 52.7721L87.7549 -3.22788L84.0384 -3.22787L84.0386 52.7721ZM59.4058 38.9975C64.5628 47.3854 73.7944 52.7722 84.0386 52.7721L84.0384 -3.22787C93.6452 -3.2279 102.288 1.82279 107.111 9.66775L59.4058 38.9975ZM84.8118 37.7242C74.1795 37.7242 64.6725 43.5194 59.6453 52.4031L108.383 79.983C103.682 88.2908 94.7825 93.7243 84.8118 93.7242L84.8118 37.7242ZM113.819 81.5302C126.015 61.3493 110.485 37.7243 89.0884 37.7243L89.0884 93.7243C69.0692 93.7242 54.4077 71.5686 65.8909 52.5665L113.819 81.5302ZM65.0376 38.6883C52.7382 19.7838 67.2797 -3.22783 87.7549 -3.22788L87.7551 52.7721C109.638 52.7721 125.044 28.2328 111.977 8.14893L65.0376 38.6883Z" fill="#318AD1" mask="url(#path-3-inside-1_353_19361)"/>
<path d="M107.074 70V87.7401H103.783L95.9422 76.5746H95.8102V87.7401H92V70H95.3438L103.123 81.1569H103.281V70H107.074Z" fill="#1A1C1E"/>
<path d="M118.323 82.0751V74.435H122.072V87.7401H118.473V85.3234H118.332C118.027 86.103 117.519 86.7295 116.81 87.2031C116.106 87.6766 115.246 87.9134 114.231 87.9134C113.328 87.9134 112.533 87.7113 111.847 87.307C111.16 86.9028 110.624 86.3282 110.236 85.5833C109.855 84.8383 109.661 83.9461 109.656 82.9066V74.435H113.404V82.2483C113.41 83.0337 113.624 83.6545 114.047 84.1107C114.469 84.5669 115.035 84.795 115.745 84.795C116.197 84.795 116.619 84.6939 117.012 84.4918C117.405 84.2839 117.722 83.9779 117.962 83.5736C118.209 83.1694 118.329 82.6699 118.323 82.0751Z" fill="#1A1C1E"/>
<path d="M124.574 87.7401V74.435H128.209V76.7565H128.349C128.596 75.9307 129.009 75.307 129.59 74.8855C130.171 74.4581 130.84 74.2445 131.596 74.2445C131.784 74.2445 131.987 74.256 132.204 74.2791C132.421 74.3022 132.611 74.334 132.776 74.3744V77.6487C132.6 77.5967 132.356 77.5505 132.045 77.5101C131.734 77.4697 131.45 77.4495 131.192 77.4495C130.64 77.4495 130.147 77.5679 129.713 77.8046C129.285 78.0356 128.945 78.359 128.693 78.7748C128.446 79.1906 128.323 79.6699 128.323 80.2127V87.7401H124.574Z" fill="#1A1C1E"/>
<path d="M145.464 78.2291L142.032 78.437C141.973 78.1482 141.847 77.8884 141.654 77.6574C141.46 77.4206 141.205 77.2329 140.888 77.0943C140.577 76.95 140.205 76.8778 139.771 76.8778C139.19 76.8778 138.7 76.999 138.301 77.2416C137.902 77.4783 137.703 77.796 137.703 78.1944C137.703 78.512 137.832 78.7806 138.09 79C138.348 79.2194 138.791 79.3956 139.419 79.5284L141.865 80.0135C143.179 80.2791 144.159 80.7064 144.804 81.2955C145.449 81.8845 145.772 82.6583 145.772 83.6169C145.772 84.4889 145.511 85.2541 144.989 85.9124C144.472 86.5707 143.763 87.0847 142.859 87.4543C141.962 87.8181 140.926 88 139.753 88C137.964 88 136.538 87.6333 135.476 86.8999C134.42 86.1607 133.802 85.1559 133.62 83.8855L137.307 83.6949C137.418 84.232 137.688 84.642 138.116 84.9249C138.545 85.2021 139.093 85.3407 139.762 85.3407C140.419 85.3407 140.947 85.2166 141.346 84.9682C141.75 84.7141 141.956 84.3879 141.962 83.9894C141.956 83.6545 141.812 83.3802 141.53 83.1665C141.249 82.9471 140.815 82.7796 140.228 82.6641L137.887 82.205C136.568 81.9451 135.585 81.4947 134.94 80.8537C134.3 80.2127 133.981 79.3956 133.981 78.4023C133.981 77.5476 134.215 76.8114 134.684 76.1935C135.16 75.5756 135.825 75.0991 136.682 74.7642C137.544 74.4293 138.553 74.2618 139.709 74.2618C141.416 74.2618 142.759 74.6169 143.739 75.3272C144.725 76.0375 145.3 77.0048 145.464 78.2291Z" fill="#1A1C1E"/>
<path d="M153.796 88C152.406 88 151.209 87.7228 150.206 87.1684C149.209 86.6083 148.44 85.8171 147.901 84.795C147.361 83.7671 147.091 82.5515 147.091 81.1482C147.091 79.7796 147.361 78.5784 147.901 77.5448C148.44 76.5111 149.2 75.7055 150.18 75.128C151.165 74.5505 152.321 74.2618 153.647 74.2618C154.538 74.2618 155.369 74.4033 156.137 74.6862C156.911 74.9634 157.586 75.3821 158.161 75.9423C158.742 76.5024 159.193 77.2069 159.516 78.0558C159.839 78.8989 160 79.8864 160 81.0183V82.0318H148.587V79.7449H156.471C156.471 79.2137 156.354 78.743 156.119 78.333C155.885 77.923 155.559 77.6025 155.143 77.3715C154.732 77.1347 154.254 77.0164 153.708 77.0164C153.139 77.0164 152.635 77.1463 152.195 77.4062C151.761 77.6602 151.42 78.0038 151.174 78.437C150.928 78.8643 150.802 79.3407 150.796 79.8662V82.0404C150.796 82.6987 150.919 83.2676 151.165 83.7469C151.418 84.2262 151.772 84.5958 152.23 84.8556C152.688 85.1155 153.23 85.2454 153.858 85.2454C154.274 85.2454 154.656 85.1877 155.002 85.0722C155.348 84.9567 155.644 84.7834 155.891 84.5525C156.137 84.3215 156.325 84.0385 156.454 83.7036L159.921 83.9288C159.745 84.7488 159.384 85.4649 158.838 86.077C158.299 86.6833 157.601 87.1569 156.744 87.4976C155.894 87.8325 154.911 88 153.796 88Z" fill="#1A1C1E"/>
</svg>
