<svg width="30" height="30" viewBox="0 0 30 30" fill="none" xmlns="http://www.w3.org/2000/svg">
<path d="M18.3858 4.87547C18.3384 4.8388 18.2838 4.81154 18.2253 4.79526C18.1668 4.77898 18.1056 4.774 18.0451 4.78061C17.9846 4.78722 17.9261 4.80529 17.8729 4.83377C17.8197 4.86225 17.7728 4.90059 17.7351 4.94657L13.4862 10.1124H11.1314L16.2886 3.84266C16.4774 3.61313 16.7114 3.42178 16.9771 3.27961C17.2429 3.13743 17.5353 3.04723 17.8374 3.01419C18.1395 2.98116 18.4454 3.00593 18.7376 3.08709C19.0297 3.16825 19.3023 3.3042 19.5397 3.48713L24.2908 7.15174C24.74 7.49833 25.0385 7.99408 25.1276 8.54168C25.2168 9.08927 25.0902 9.64918 24.7726 10.1115H22.3597L23.1969 9.17647C23.2375 9.13125 23.2681 9.07862 23.287 9.02173C23.306 8.96483 23.3128 8.90485 23.3071 8.84536C23.3014 8.78587 23.2834 8.7281 23.254 8.67549C23.2245 8.62288 23.1844 8.57653 23.136 8.53919L20.8246 6.75621L18.0849 10.1124H15.7366L19.3828 5.64519L18.3858 4.87547ZM5.76923 7.44594C5.03479 7.44594 4.33042 7.72687 3.81109 8.22693C3.29176 8.72698 3 9.40521 3 10.1124V23.0003C3 24.0611 3.43764 25.0784 4.21663 25.8285C4.99563 26.5786 6.05218 27 7.15385 27H22.8462C23.9478 27 25.0044 26.5786 25.7834 25.8285C26.5624 25.0784 27 24.0611 27 23.0003V15.0009C27 13.9401 26.5624 12.9228 25.7834 12.1727C25.0044 11.4226 23.9478 11.0012 22.8462 11.0012H5.76923C5.52442 11.0012 5.28963 10.9076 5.11652 10.7409C4.94341 10.5742 4.84615 10.3481 4.84615 10.1124C4.84615 9.87667 4.94341 9.6506 5.11652 9.48391C5.28963 9.31722 5.52442 9.22358 5.76923 9.22358H9.99692L11.4702 7.44594H5.76923ZM19.6154 18.1118H22.3846C22.6294 18.1118 22.8642 18.2054 23.0373 18.3721C23.2104 18.5388 23.3077 18.7649 23.3077 19.0006C23.3077 19.2363 23.2104 19.4624 23.0373 19.6291C22.8642 19.7958 22.6294 19.8894 22.3846 19.8894H19.6154C19.3706 19.8894 19.1358 19.7958 18.9627 19.6291C18.7896 19.4624 18.6923 19.2363 18.6923 19.0006C18.6923 18.7649 18.7896 18.5388 18.9627 18.3721C19.1358 18.2054 19.3706 18.1118 19.6154 18.1118Z" fill="#B9C2C9"/>
</svg>
