<svg width="50" height="50" viewBox="0 0 50 50" fill="none" xmlns="http://www.w3.org/2000/svg">
<rect width="50" height="50" rx="8" fill="#DC0004"/>
<mask id="mask0_353_22154" style="mask-type:alpha" maskUnits="userSpaceOnUse" x="9" y="8" width="32" height="34">
<rect x="41" y="42" width="32" height="34" transform="rotate(180 41 42)" fill="#D9D9D9"/>
</mask>
<g mask="url(#mask0_353_22154)">
<path d="M34.334 15.0833L34.334 27.9166C34.334 28.653 33.737 29.2499 33.0007 29.2499C32.2643 29.2499 31.6673 28.653 31.6673 27.9166L31.6673 19.8999L17.1905 35.2815C16.6538 35.8518 15.7475 35.8518 15.2108 35.2815C14.7182 34.7581 14.7182 33.9417 15.2108 33.4183L29.8006 17.9166L22.4173 17.9166C21.6349 17.9166 21.0006 17.2823 21.0006 16.4999C21.0006 15.7175 21.6349 15.0833 22.4173 15.0833L34.334 15.0833Z" fill="white"/>
</g>
</svg>
